<?xml version="1.0" encoding="UTF-8" standalone="no"?>
<svg width="1040px" height="479px" viewBox="0 0 1040 479" version="1.1" xmlns="http://www.w3.org/2000/svg" xmlns:xlink="http://www.w3.org/1999/xlink">
    <!-- Generator: Sketch 40.3 (33839) - http://www.bohemiancoding.com/sketch -->
    <title>Group</title>
    <desc>Created with Sketch.</desc>
    <defs></defs>
    <g id="Page-1" stroke="none" stroke-width="1" fill="none" fill-rule="evenodd" opacity="0.45">
        <g id="project-page:-net-project-modal" transform="translate(-203.000000, -303.000000)" fill="#000000">
            <g id="Group" transform="translate(203.000000, 303.000000)">
                <path d="M904.119785,381.933735 L904.119785,72.004956 C904.119785,58.7354441 893.37735,48 880.125886,48 L180.735487,48 C167.486392,48 156.741588,58.7473849 156.741588,72.004956 L156.741588,73.5910531 L166.214381,73.5910531 C171.939008,73.5910531 176.579736,78.2304333 176.579736,83.9562102 C176.579736,89.6807284 171.943544,94.3213673 166.214381,94.3213673 L156.741588,94.3213673 L156.741588,119.658418 L158.527888,119.658418 C164.252516,119.658418 168.893243,124.297798 168.893243,130.023575 C168.893243,135.748093 164.257052,140.388732 158.527888,140.388732 L156.741588,140.388732 L156.741588,403.997251 C156.741588,417.266763 167.484023,428.002207 180.735487,428.002207 L880.125886,428.002207 C893.374981,428.002207 904.119785,417.254822 904.119785,403.997251 L904.119785,402.425502 L875.363703,402.425502 C869.703255,402.425502 865.114555,397.839508 865.114555,392.179618 C865.114555,386.520973 869.709205,381.933735 875.363703,381.933735 L904.119785,381.933735 Z" id="Combined-Shape"></path>
                <rect id="Rectangle-20-Copy-2" x="109.257998" y="48.2610488" width="143.707514" height="25.8854716" rx="12.9427358"></rect>
                <rect id="Rectangle-20-Copy-9" x="223.457313" y="0" width="143.707514" height="25.8854716" rx="12.9427358"></rect>
                <rect id="Rectangle-20-Copy-6" x="37.4799309" y="48.2610488" width="64.7801275" height="25.8854716" rx="12.9427358"></rect>
                <rect id="Rectangle-20-Copy-10" x="0" y="48.2610488" width="32.8527789" height="25.8854716" rx="12.9427358"></rect>
                <rect id="Rectangle-20-Copy-11" x="62.9292667" y="140.286094" width="32.8527789" height="25.8854716" rx="12.9427358"></rect>
                <rect id="Rectangle-20-Copy-7" x="62.4752806" y="94.547782" width="143.707514" height="25.8854716" rx="12.9427358"></rect>
                <rect id="Rectangle-20-Copy-8" x="99.9244005" y="140.395778" width="143.707514" height="25.8854716" rx="12.9427358"></rect>
                <rect id="Rectangle-20-Copy-13" x="866.197437" y="402.425502" width="141.719775" height="25.4529317" rx="12.7264659"></rect>
                <rect id="Rectangle-20-Copy-15" x="783.356964" y="356.588655" width="141.719775" height="25.4529317" rx="12.7264659"></rect>
                <rect id="Rectangle-20-Copy-17" x="935.501886" y="356.588655" width="32.3983648" height="25.4529317" rx="12.7264659"></rect>
                <rect id="Rectangle-20-Copy-16" x="976.109961" y="453.115663" width="63.8840996" height="25.4529317" rx="12.7264659"></rect>
            </g>
        </g>
    </g>
</svg>