<?xml version="1.0" encoding="utf-8"?>
<!-- Generator: Adobe Illustrator 19.2.1, SVG Export Plug-In . SVG Version: 6.00 Build 0)  -->
<svg version="1.1" id="Layer_1" xmlns="http://www.w3.org/2000/svg" xmlns:xlink="http://www.w3.org/1999/xlink" x="0px" y="0px"
	 viewBox="0 0 828.6 144.6" style="enable-background:new 0 0 828.6 144.6;" xml:space="preserve">
<style type="text/css">
	.st0{fill:#FFFFFF;}
	.st1{fill:#010202;}
	.st2{fill:#161E14;}
	.st3{fill:#60B66B;}
</style>
<g>
	<g>
		<path class="st0" d="M818.3,144.6H10.3c-5.7,0-10.3-4.7-10.3-10.3V10.3C0,4.7,4.7,0,10.3,0h807.9c5.7,0,10.3,4.7,10.3,10.3v123.9
			C828.6,139.9,823.9,144.6,818.3,144.6z"/>
	</g>
	<g>
		<g>
			<path class="st1" d="M63.7,90.4c-1.4,0-2.6-1.2-2.6-2.6V62.8c0-1.4,1.2-2.6,2.6-2.6h8.1c6.8,0,9.2,3.7,9.2,7.8
				c0,3-1.5,5.2-3.3,6.1c3.4,1.3,4.7,3.7,4.7,7.2c0,5.5-3.3,9.1-9.8,9.1H63.7z M66.3,72.5h5.5c2.8,0,4-1.6,4-3.9
				c0-2.3-1.2-3.8-4-3.8h-5.5V72.5z M66.3,85.8h6.3c3.2,0,4.5-1.7,4.5-4.4c0-2.7-1.5-4.4-4.5-4.4h-6.3V85.8z"/>
			<path class="st1" d="M93.9,82.6l-2.7,6.5c-0.4,0.9-1.3,1.7-2.4,1.7c-1.4,0-2.6-1.2-2.6-2.6c0-0.3,0-0.6,0.2-0.9L97,61.4
				c0.3-0.6,1-1.6,2.4-1.6s2.1,1,2.4,1.6l10.6,25.9c0.1,0.3,0.2,0.7,0.2,0.9c0,1.4-1.2,2.6-2.6,2.6c-1.2,0-2-0.8-2.4-1.7l-2.7-6.5
				H93.9z M99.4,68.4l-3.7,9.4h7.4L99.4,68.4z"/>
			<path class="st1" d="M115.4,75.3c0-10.7,5.1-15.8,14.1-15.8c5.4,0,9,2.2,10.8,4.9c0.4,0.5,0.5,1,0.5,1.5c0,1.3-1.1,2.4-2.4,2.4
				c-0.6,0-1.3-0.3-1.8-0.9c-1.8-2-3.8-3.2-7.1-3.2c-6,0-8.7,3.7-8.7,11.1c0,7.9,2.7,11.1,8.7,11.1c3.3,0,5.1-0.8,7.3-3
				c0.7-0.7,1.3-1,1.9-1c1.4,0,2.4,1.1,2.4,2.4c0,0.5-0.2,1-0.5,1.4c-2.2,2.9-6.4,4.9-11.2,4.9C120.5,91.1,115.4,86.3,115.4,75.3z"
				/>
			<path class="st1" d="M152.4,72.7l10.8-12.1c0.5-0.6,1.2-0.9,1.9-0.9c1.4,0,2.5,1.1,2.5,2.5c0,0.7-0.3,1.3-0.7,1.7l-8.5,9.2
				l9.9,13.5c0.3,0.4,0.5,0.9,0.5,1.5c0,1.4-1.2,2.6-2.6,2.6c-1.1,0-1.8-0.6-2.1-1.1l-9.3-12.8l-2.6,2.7v8.6c0,1.4-1.2,2.6-2.6,2.6
				s-2.6-1.2-2.6-2.6V62.4c0-1.4,1.2-2.6,2.6-2.6s2.6,1.2,2.6,2.6V72.7z"/>
			<path class="st1" d="M182.3,80.5V62.4c0-1.4,1.2-2.6,2.6-2.6s2.6,1.2,2.6,2.6v18.1c0,2.7,1,5.9,6.1,5.9c5.1,0,6.1-3.2,6.1-5.9
				V62.4c0-1.4,1.2-2.6,2.6-2.6s2.6,1.2,2.6,2.6v18.1c0,5.1-2.2,10.5-11.3,10.5C184.6,91.1,182.3,85.7,182.3,80.5z"/>
			<path class="st1" d="M222.3,64.2c-3.7,0-5.1,1.8-5.1,3.6c0,5.9,16.4,3.1,16.4,14.4c0,5.5-3.9,8.9-11.3,8.9
				c-5.4,0-9.6-2.7-11.4-5.5c-0.2-0.4-0.4-0.8-0.4-1.3c0-1.3,1.1-2.4,2.4-2.4c1,0,1.5,0.5,2,1c1.9,1.9,4.3,3.4,7.4,3.4
				c4.1,0,6.1-1.4,6.1-4.1c0-6.6-16.4-3.6-16.4-14.4c0-4.5,3.2-8.2,10.3-8.2c4.5,0,8.4,1.7,10.2,4.2c0.3,0.4,0.4,0.9,0.4,1.4
				c0,1.3-1.1,2.4-2.4,2.4c-0.6,0-1.3-0.4-1.9-1C227.2,65.2,224.9,64.2,222.3,64.2z"/>
			<path class="st1" d="M246.8,75.3c0-10.7,5.2-15.8,14.3-15.8c9.1,0,14.3,5.1,14.3,15.8c0,10.5-5.2,15.7-14.3,15.7
				C251.9,91.1,246.8,85.9,246.8,75.3z M252.2,75.3c0,7.4,2.9,11.1,8.9,11.1c5.9,0,8.9-3.6,8.9-11.1c0-7.5-2.9-11.1-8.9-11.1
				C255.1,64.2,252.2,67.9,252.2,75.3z"/>
			<path class="st1" d="M304.2,62.4v25.9c0,1.4-1.2,2.6-2.6,2.6c-0.9,0-1.7-0.5-2.1-1.1l-13.3-19.2v17.7c0,1.4-1.2,2.6-2.6,2.6
				c-1.4,0-2.6-1.2-2.6-2.6V62.4c0-1.4,1.2-2.6,2.6-2.6c0.9,0,1.6,0.4,2.1,1.1l13.3,19.3V62.4c0-1.4,1.2-2.6,2.6-2.6
				S304.2,61,304.2,62.4z"/>
		</g>
		<g>
			<g>
				<path class="st2" d="M465.7,64.2l9-13c1.7-2.4,3.9-3.7,6.6-3.7c2.2,0,4.1,0.8,5.7,2.3c1.6,1.6,2.4,3.4,2.4,5.6
					c0,1.6-0.4,3-1.3,4.2L480,71.5l9.9,12.5c1,1.3,1.5,2.7,1.5,4.4c0,2.2-0.8,4.1-2.3,5.7c-1.6,1.6-3.4,2.4-5.7,2.4
					c-2.4,0-4.3-0.8-5.6-2.4L465.7,79v8.3c0,2.4-0.4,4.2-1.2,5.6c-1.5,2.4-3.7,3.6-6.6,3.6c-2.6,0-4.6-0.9-6.1-2.7
					c-1.3-1.6-2-3.8-2-6.5V56.5c0-2.5,0.7-4.6,2.1-6.3c1.4-1.7,3.4-2.6,5.9-2.6c2.4,0,4.4,0.9,6,2.6c0.9,1,1.5,1.9,1.7,2.9
					c0.1,0.6,0.2,1.8,0.2,3.4V64.2L465.7,64.2z M424.9,46.6c5.9,0,11.3,1.9,16.2,5.9c3.9,3.1,5.8,6.3,5.8,9.7c0,2.8-1.2,5-3.5,6.6
					c-1.3,0.9-2.8,1.3-4.4,1.3c-1.3,0-2.5-0.3-3.7-0.9c-0.5-0.3-1.7-1.4-3.7-3.6c-1.8-2-4.1-3-6.8-3c-2.6,0-4.8,0.9-6.6,2.7
					c-1.8,1.8-2.7,4.1-2.7,6.7c0,2.6,0.9,4.8,2.7,6.7c1.8,1.8,4,2.7,6.6,2.7c2.2,0,4.2-0.7,6-2.2c1.2-1.1,2.3-2.2,3.4-3.3
					c1.2-1.1,2.8-1.6,4.7-1.6c2.2,0,4,0.8,5.6,2.3c1.6,1.5,2.4,3.4,2.4,5.5c0,2.9-1.7,5.9-5.2,8.9c-4.9,4.2-10.5,6.4-16.8,6.4
					c-3.9,0-7.6-0.8-11.1-2.5c-4.4-2.1-7.9-5.2-10.5-9.4c-2.6-4.1-3.9-8.6-3.9-13.5c0-7.3,2.7-13.5,8.1-18.7
					C412.2,48.9,418,46.6,424.9,46.6L424.9,46.6z M396.2,57.4v29.9c0,2.6-0.7,4.7-2,6.4c-1.4,1.8-3.4,2.8-6,2.8
					c-2.3,0-4.3-0.9-5.9-2.6c-1.3-1.4-2-3.6-2-6.6V57.4c0-3.3,0.7-5.8,2-7.3c1.5-1.7,3.5-2.6,5.9-2.6c2.4,0,4.4,0.8,5.9,2.5
					C395.5,51.7,396.2,54.1,396.2,57.4L396.2,57.4z M351.6,64.2l9-13c1.7-2.4,3.9-3.7,6.6-3.7c2.2,0,4.1,0.8,5.7,2.3
					c1.6,1.6,2.4,3.4,2.4,5.6c0,1.6-0.4,3-1.3,4.2l-8.1,11.8l9.9,12.5c1,1.3,1.5,2.7,1.5,4.4c0,2.2-0.8,4.1-2.3,5.7
					c-1.6,1.6-3.4,2.4-5.7,2.4c-2.4,0-4.3-0.8-5.5-2.4L351.6,79v8.3c0,2.4-0.4,4.2-1.2,5.6c-1.5,2.4-3.7,3.6-6.6,3.6
					c-2.6,0-4.6-0.9-6.1-2.7c-1.3-1.6-2-3.8-2-6.5V56.5c0-2.5,0.7-4.6,2.1-6.3c1.4-1.7,3.4-2.6,5.9-2.6c2.4,0,4.4,0.9,6,2.6
					c0.9,1,1.5,1.9,1.7,2.9c0.1,0.6,0.2,1.8,0.2,3.4V64.2L351.6,64.2z"/>
			</g>
			<path class="st3" d="M765.9,77.6l3.7,6c1,1.7,1.6,3.4,1.6,5.2c0,2.2-0.8,4.1-2.3,5.6c-1.5,1.5-3.4,2.2-5.7,2.2
				c-2.9,0-5.1-1.2-6.5-3.7L750,82v6.5c0,2.2-0.7,4.1-2.2,5.7c-1.5,1.6-3.3,2.3-5.6,2.3c-2.7,0-4.8-1-6.2-2.9
				c-1.3-1.7-1.9-4-1.9-6.8V57.1c0-6.1,3.3-9.2,9.9-9.2h10.1c3.3,0,6.4,1,9.3,2.9c2.9,1.9,4.9,4.4,6.3,7.5c1,2.3,1.5,4.6,1.5,7
				C771.1,69.6,769.4,73.7,765.9,77.6L765.9,77.6z M714.7,81.2h7.2c3,0,5.2,0.6,6.7,1.8c1.7,1.5,2.6,3.3,2.6,5.7
				c0,2.4-0.9,4.3-2.6,5.7c-1.3,1.1-3.5,1.7-6.6,1.7h-12.4c-2.9,0-4.9-0.2-6-0.7c-2.1-0.9-3.5-2.3-4.2-4.3c-0.4-1.3-0.6-3.4-0.6-6.3
				V58.7c0-2.2,0.1-3.7,0.2-4.4c0.3-1.5,0.9-2.8,1.9-3.9c1.1-1.2,2.6-2,4.3-2.3c0.8-0.1,2.5-0.2,5-0.2h9.5c2.6,0,4.1,0,4.5,0.1
				c1.7,0.2,3.1,0.7,4.2,1.5c1.9,1.5,2.9,3.4,2.9,5.7c0,2.5-0.8,4.5-2.5,5.8c-1.5,1.2-3.6,1.8-6.2,1.8h-7.8v3.3h6.2
				c1.8,0,3.3,0.5,4.5,1.5c1.3,1,1.9,2.5,1.9,4.3c0,3.8-2.3,5.8-7,5.8h-5.7V81.2L714.7,81.2z M667.5,62.7h-4.2
				c-2.3,0-4.3-0.6-5.8-1.9c-1.6-1.4-2.4-3.2-2.4-5.5c0-1.4,0.4-2.7,1.1-3.9c0.8-1.3,1.8-2.2,3-2.7c1.2-0.5,4.1-0.8,8.6-0.8h16.1
				c3.9,0,6.5,0.2,7.6,0.7c1.3,0.5,2.3,1.4,3.1,2.7c0.8,1.3,1.2,2.6,1.2,4c0,2.2-0.9,4.1-2.6,5.7c-1.2,1.2-3.3,1.7-6.1,1.7h-3.6v24
				c0,2.6-0.4,4.6-1.3,6.1c-1.5,2.4-3.7,3.6-6.5,3.6c-2.9,0-5-1.1-6.6-3.3c-1-1.4-1.4-3.4-1.4-6.2V62.7L667.5,62.7z M648.6,77.6
				l3.7,6c1,1.7,1.6,3.4,1.6,5.2c0,2.2-0.8,4.1-2.3,5.6c-1.5,1.5-3.4,2.2-5.7,2.2c-2.9,0-5.1-1.2-6.5-3.7L632.8,82v6.5
				c0,2.2-0.7,4.1-2.2,5.7c-1.5,1.6-3.3,2.3-5.6,2.3c-2.7,0-4.8-1-6.2-2.9c-1.3-1.7-1.9-4-1.9-6.8V57.1c0-6.1,3.3-9.2,9.9-9.2h10.1
				c3.3,0,6.4,1,9.3,2.9c2.9,1.9,4.9,4.4,6.3,7.5c1,2.3,1.5,4.6,1.5,7C653.8,69.6,652.1,73.7,648.6,77.6L648.6,77.6z M582.5,89.9
				c-0.8,1.8-1.5,3.1-2.3,4c-1.6,1.7-3.5,2.6-5.8,2.6c-2.8,0-5-1.1-6.5-3.4c-0.9-1.3-1.4-2.9-1.4-4.5c0-1.4,0.3-2.8,1-4.2l15.1-32.1
				c1.5-3.1,3.9-4.7,7.3-4.7c3.5,0,6,1.6,7.5,4.8l15.2,32.4c0.6,1.3,0.9,2.6,0.9,3.9c0,1.9-0.6,3.6-1.8,5c-1.6,1.9-3.7,2.9-6.2,2.9
				c-2,0-3.8-0.6-5.1-1.9c-1-0.9-2-2.5-3-4.7H582.5L582.5,89.9z M543.9,62.7h-4.2c-2.3,0-4.3-0.6-5.8-1.9c-1.6-1.4-2.4-3.2-2.4-5.5
				c0-1.4,0.4-2.7,1.1-3.9c0.8-1.3,1.8-2.2,3-2.7c1.2-0.5,4.1-0.8,8.6-0.8h16.1c3.9,0,6.5,0.2,7.6,0.7c1.3,0.5,2.3,1.4,3.1,2.7
				c0.8,1.3,1.2,2.6,1.2,4c0,2.2-0.9,4.1-2.6,5.7c-1.2,1.2-3.3,1.7-6.1,1.7h-3.6v24c0,2.6-0.4,4.6-1.3,6.1c-1.5,2.4-3.7,3.6-6.5,3.6
				c-2.9,0-5-1.1-6.6-3.3c-1-1.4-1.4-3.4-1.4-6.2V62.7L543.9,62.7z M501.3,77.9c1.8,0,3.7,0.8,5.7,2.3c2.5,2,4.2,2.9,5.1,2.9
				c1.4,0,2-0.7,2-2.1c0-0.8-0.4-1.4-1.2-2c-0.4-0.3-2.8-1.2-7.1-2.7c-7.1-2.5-10.6-7.1-10.6-13.9c0-5.1,1.9-9.1,5.6-12.1
				c3.3-2.6,7.3-3.9,12.2-3.9c4.2,0,7.8,1,10.9,3c3.1,2,4.6,4.6,4.6,7.7c0,1.9-0.6,3.5-1.7,4.7c-1.2,1.3-2.7,1.9-4.5,1.9
				c-2,0-4.1-0.9-6.5-2.8c-1.5-1.2-2.6-1.7-3.4-1.7c-1.3,0-1.9,0.6-1.9,1.9c0,1.2,1.6,2.3,4.8,3.3c4.4,1.4,7.9,3.1,10.3,5.1
				c3.2,2.7,4.8,6.5,4.8,11.3c0,5.3-1.8,9.4-5.4,12.4c-3.4,2.8-7.8,4.1-13.2,4.1c-5.4,0-9.9-1.4-13.4-4.3c-2.8-2.3-4.2-5-4.2-8
				c0-2.1,0.7-3.8,2.1-5.1C497.5,78.6,499.3,77.9,501.3,77.9L501.3,77.9z"/>
		</g>
	</g>
</g>
</svg>
