<?xml version="1.0" encoding="UTF-8" standalone="no"?>
<svg width="43px" height="44px" viewBox="0 0 43 44" version="1.1" xmlns="http://www.w3.org/2000/svg" xmlns:xlink="http://www.w3.org/1999/xlink">
    <!-- Generator: Sketch 40.3 (33839) - http://www.bohemiancoding.com/sketch -->
    <title>Group 13</title>
    <desc>Created with Sketch.</desc>
    <defs>
        <path d="M42.1288883,21.2582672 C42.1288883,9.6327545 32.7444729,0.208414384 21.1682099,0.208414384 C9.59194685,0.208414384 0.207531469,9.6327545 0.207531469,21.2582672 C0.207531469,32.8837799 9.59194685,42.30812 21.1682099,42.30812 C32.7444729,42.30812 42.1288883,32.8837799 42.1288883,21.2582672 Z M3.11297204,21.2582672 C3.11297204,11.2442117 11.1965774,3.12621576 21.1682099,3.12621576 C31.1398424,3.12621576 39.2234477,11.2442117 39.2234477,21.2582672 C39.2234477,31.2723227 31.1398424,39.3903186 21.1682099,39.3903186 C11.1965774,39.3903186 3.11297204,31.2723227 3.11297204,21.2582672 Z" id="path-1"></path>
        <filter x="-50%" y="-50%" width="200%" height="200%" filterUnits="objectBoundingBox" id="filter-2">
            <feOffset dx="0" dy="1" in="SourceAlpha" result="shadowOffsetOuter1"></feOffset>
            <feColorMatrix values="0 0 0 0 0   0 0 0 0 0   0 0 0 0 0  0 0 0 0.16 0" type="matrix" in="shadowOffsetOuter1"></feColorMatrix>
        </filter>
        <linearGradient x1="77.4114325%" y1="64.0654007%" x2="-10.3631652%" y2="24.8008199%" id="linearGradient-3">
            <stop stop-color="#FAFAFA" offset="0%"></stop>
            <stop stop-color="#727272" offset="100%"></stop>
        </linearGradient>
    </defs>
    <g id="Page-1" stroke="none" stroke-width="1" fill="none" fill-rule="evenodd">
        <g id="project-page" transform="translate(-279.000000, -127.000000)">
            <g id="Group-13" transform="translate(279.000000, 127.000000)">
                <g id="Group-14">
                    <g id="Group-12" transform="translate(0.037919, 0.452441)">
                        <path d="M3.11297204,21.2582672 C3.11297204,11.2442117 11.1965774,3.12621576 21.1682099,3.12621576 C31.1398424,3.12621576 39.2234477,11.2442117 39.2234477,21.2582672 C39.2234477,31.2723227 31.1398424,39.3903186 21.1682099,39.3903186 C11.1965774,39.3903186 3.11297204,31.2723227 3.11297204,21.2582672 Z" id="Path" fill="#F8CA00"></path>
                        <g id="Page-1">
                            <g id="Oval-2">
                                <use fill="black" fill-opacity="1" filter="url(#filter-2)" xlink:href="#path-1"></use>
                                <use fill="#F8E386" fill-rule="evenodd" xlink:href="#path-1"></use>
                            </g>
                            <path d="M42.1288883,21.2582672 C42.1288883,9.6327545 32.7444729,0.208414384 21.1682099,0.208414384 C9.59194685,0.208414384 0.207531469,9.6327545 0.207531469,21.2582672 C0.207531469,32.8837799 9.59194685,42.30812 21.1682099,42.30812 C32.7444729,42.30812 42.1288883,32.8837799 42.1288883,21.2582672 Z M39.2234477,21.2582672 C39.2234477,31.2723227 31.1398424,39.3903186 21.1682099,39.3903186 C11.1965774,39.3903186 39.2234477,11.2442117 39.2234477,21.2582672 Z" id="Oval-2" fill="url(#linearGradient-3)" opacity="0.161497201"></path>
                            <path d="M40.6372558,21.2582672 C40.6372558,10.4600651 31.9206671,1.70639277 21.1682099,1.70639277 C10.4157527,1.70639277 1.69916391,10.4600651 1.69916391,21.2582672 C1.69916391,32.0564693 10.4157527,40.8101416 21.1682099,40.8101416 C31.9206671,40.8101416 40.6372558,32.0564693 40.6372558,21.2582672 Z M2.46779435,21.2582672 C2.46779435,10.886374 10.8402556,2.47829325 21.1682099,2.47829325 C31.4961642,2.47829325 39.8686254,10.886374 39.8686254,21.2582672 C39.8686254,31.6301604 31.4961642,40.0382411 21.1682099,40.0382411 C10.8402556,40.0382411 2.46779435,31.6301604 2.46779435,21.2582672 Z" id="Oval-2" fill="#F8CA00"></path>
                        </g>
                        <g id="Group-11" transform="translate(25.872842, 7.100380) rotate(28.000000) translate(-25.872842, -7.100380) translate(21.372842, 4.600380)" fill="#FFFFFF" opacity="0.540228545">
                            <ellipse id="Oval-3" cx="2.38210034" cy="2.85191807" rx="2.38210034" ry="2.01826053"></ellipse>
                            <ellipse id="Oval-3" cx="6.76801901" cy="1.39888569" rx="1.29932746" ry="1.10086938"></ellipse>
                        </g>
                    </g>
                </g>
                <path d="M14.004,19.448 C13.066,19.448 12.478,19.882 12.212,20.288 C12.212,19.868 11.876,19.532 11.456,19.532 C11.036,19.532 10.7,19.868 10.7,20.288 L10.7,25.384 C10.7,25.804 11.022,26.112 11.456,26.112 C11.89,26.112 12.212,25.804 12.212,25.384 L12.212,22.262 C12.212,21.436 12.562,20.82 13.612,20.82 C14.522,20.82 14.844,21.366 14.844,22.164 L14.844,25.384 C14.844,25.804 15.152,26.112 15.6,26.112 C16.02,26.112 16.356,25.804 16.356,25.384 L16.356,21.884 C16.356,20.666 15.908,19.448 14.004,19.448 L14.004,19.448 Z M17.406,22.794 C17.406,25.132 18.61,26.182 20.556,26.182 C21.83,26.182 22.572,25.636 22.81,25.412 C22.936,25.3 23.048,25.118 23.048,24.894 C23.048,24.53 22.754,24.236 22.39,24.236 C22.208,24.236 22.096,24.292 21.942,24.39 C21.606,24.614 21.172,24.824 20.556,24.824 C19.632,24.824 18.918,24.362 18.918,23.354 L22.376,23.354 C23.23,23.354 23.23,22.752 23.23,22.234 C23.23,21.268 22.796,19.448 20.43,19.448 C18.526,19.448 17.406,20.652 17.406,22.794 L17.406,22.794 Z M20.43,20.736 C21.34,20.736 21.732,21.408 21.732,22.094 L18.96,22.094 C19.03,21.198 19.618,20.736 20.43,20.736 L20.43,20.736 Z M28.914,25.58 C29.012,25.888 29.306,26.112 29.642,26.112 C29.964,26.112 30.23,25.944 30.342,25.636 L32.26,20.554 C32.302,20.456 32.33,20.344 32.33,20.26 C32.33,19.84 32.008,19.532 31.574,19.532 C31.238,19.532 30.958,19.714 30.846,20.022 L29.698,23.466 L28.76,20.036 C28.69,19.798 28.424,19.532 28.046,19.532 C27.626,19.532 27.388,19.826 27.318,20.078 L26.38,23.466 L25.218,20.022 C25.106,19.714 24.826,19.532 24.504,19.532 C24.084,19.532 23.748,19.868 23.748,20.288 C23.748,20.372 23.776,20.526 23.818,20.624 L25.736,25.622 C25.848,25.902 26.114,26.112 26.45,26.112 C26.786,26.112 27.08,25.888 27.178,25.566 L28.046,22.514 L28.914,25.58 Z" id="new" fill="#FFFFFF"></path>
            </g>
        </g>
    </g>
</svg>