<?xml version="1.0" encoding="UTF-8" standalone="no"?>
<svg width="1440px" height="753px" viewBox="0 0 1440 753" version="1.1" xmlns="http://www.w3.org/2000/svg" xmlns:xlink="http://www.w3.org/1999/xlink">
    <!-- Generator: Sketch 40.3 (33839) - http://www.bohemiancoding.com/sketch -->
    <title>Page 1</title>
    <desc>Created with Sketch.</desc>
    <defs>
        <rect id="path-1" x="0" y="0" width="1440" height="753"></rect>
        <path d="M1962.794,0.4506 L1962.794,592.159 L0.687,582.159 L0.687,117.692 C0.687,117.692 276.935188,63.4351282 626.227511,0.4506 L1962.794,0.4506 L1962.794,0.4506 Z" id="path-3"></path>
        <polygon id="path-5" points="0.687 0.8807 0.687 258.159 1962.794 268.159 1962.794 0.8807 0.687 0.8807"></polygon>
        <polygon id="path-7" points="0.571726121 254.052186 1198.794 260.159 1198.794 0.439315287 0.571726121 0.439315287"></polygon>
        <polygon id="path-9" points="0.855021287 179.410389 577.765191 182.350648 577.765191 0.319768377 0.855021287 0.319768377 0.855021287 179.410389"></polygon>
        <polygon id="path-11" points="0.4016 169.652713 529.765191 172.350648 529.765191 0.0878 0.4016 0.0878 0.4016 169.652713"></polygon>
        <polygon id="path-13" points="0.192054296 168.963337 234.794 170.159 234.794 0.257064186 0.192054296 0.257064186 0.192054296 168.963337"></polygon>
        <polygon id="path-15" points="0.192042435 147.963337 234.794 149.159 234.794 0.6931 0.192042435 0.6931 0.192042435 147.963337"></polygon>
        <path d="M348.67172,0.596740954 L349.193,4.457 L60.117,121.491 L0.013,327.186 L330.767,328.871 L594.357,73.144 C676.105873,76.4016056 754.174257,90.4818604 825.958999,113.901811 L825.958999,0.596740954 L348.67172,0.596740954 L348.67172,0.596740954 Z" id="path-17"></path>
        <path d="M0.1455,138.67333 C36.0812576,115.770781 74.6771919,95.2131855 115.548,77.388 C166.45,55.134 220.87,37.183 278.05,24.185 C282.105,23.24 286.213,22.336 290.28,21.489 C313.695,16.485 337.573,12.315 361.819,9.041 C404.756,3.243 447.232,0.44 488.86,0.439 C504.716665,0.438527602 520.45332,0.844577914 536.0515,1.64644493 L536.0515,258.269479 L0.1455,255.538187 L0.1455,138.67333 L0.1455,138.67333 Z" id="path-19"></path>
        <polygon id="path-21" points="662.027 674.9459 662.027 0.096 0.582 0.096 0.582 674.9459 662.027 674.9459"></polygon>
        <polygon id="path-23" points="567.8328 0.096 0.582 0.096 0.582 557.2809 567.8328 557.2809 567.8328 0.096"></polygon>
        <polygon id="path-25" points="455.088 0.096 0.582 0.096 0.582 444.5359 455.088 444.5359 455.088 0.096"></polygon>
    </defs>
    <g id="Page-1" stroke="none" stroke-width="1" fill="none" fill-rule="evenodd">
        <g id="project-page-expanded" transform="translate(0.000000, -45.000000)">
            <g id="Page-1" transform="translate(0.000000, 45.000000)">
                <mask id="mask-2" fill="white">
                    <use xlink:href="#path-1"></use>
                </mask>
                <use id="Mask" fill="#D8D8D8" xlink:href="#path-1"></use>
                <g mask="url(#mask-2)">
                    <g transform="translate(-329.000000, -364.000000)">
                        <polygon id="Fill-1" fill="#493E52" points="0.582 1543 1964.688 1543 1964.688 0.866 0.582 0.866"></polygon>
                        <g id="Group-75" stroke-width="1" fill="none" transform="translate(3.000000, 532.550000)">
                            <g id="Group-4">
                                <mask id="mask-4" fill="white">
                                    <use xlink:href="#path-3"></use>
                                </mask>
                                <g id="Clip-3"></g>
                                <polygon id="Fill-2" fill="#52465C" mask="url(#mask-4)" points="2111.385 701.7886 0.687 0.4506 -9.041 635.9876 1641.247 902.0696"></polygon>
                            </g>
                            <g id="Group-7" transform="translate(0.000000, 324.000000)">
                                <mask id="mask-6" fill="white">
                                    <use xlink:href="#path-5"></use>
                                </mask>
                                <g id="Clip-6"></g>
                                <polygon id="Fill-5" fill="#52465C" mask="url(#mask-6)" points="2064.9446 186.8417 -69.6044 0.8807 -105.7104 353.3627 1618.1806 335.2017"></polygon>
                            </g>
                            <path d="M1202.2261,583.5256 C1202.8061,581.3166 1201.4851,579.0556 1199.2751,578.4756 C1197.0661,577.8956 1194.8051,579.2166 1194.2251,581.4266 C1193.6461,583.6356 1194.9661,585.8966 1197.1761,586.4766 C1199.3851,587.0566 1201.6461,585.7346 1202.2261,583.5256" id="Fill-8" fill="#FD5F59"></path>
                            <path d="M652.6783,578.929 C653.2583,576.72 651.9373,574.459 649.7273,573.879 C647.5183,573.299 645.2573,574.62 644.6773,576.83 C644.0973,579.039 645.4193,581.3 647.6283,581.88 C649.8373,582.46 652.0983,581.138 652.6783,578.929" id="Fill-10" fill="#FD5F59"></path>
                            <path d="M593.7271,453.7719 C594.3071,451.5629 592.9861,449.3019 590.7761,448.7219 C588.5671,448.1419 586.3061,449.4629 585.7261,451.6729 C585.1461,453.8819 586.4681,456.1429 588.6771,456.7229 C590.8861,457.3019 593.1471,455.9809 593.7271,453.7719" id="Fill-12" fill="#FFFFFF"></path>
                            <path d="M1145.7228,449.0391 C1146.3028,446.8301 1144.9818,444.5691 1142.7728,443.9891 C1140.5628,443.4091 1138.3018,444.7301 1137.7218,446.9401 C1137.1428,449.1491 1138.4638,451.4101 1140.6728,451.9901 C1142.8818,452.5701 1145.1428,451.2481 1145.7228,449.0391" id="Fill-14" fill="#FFFFFF"></path>
                            <path d="M1015.7396,524.6205 C1016.3196,522.4115 1014.9986,520.1505 1012.7886,519.5705 C1010.5796,518.9905 1008.3186,520.3115 1007.7386,522.5215 C1007.1596,524.7305 1008.4806,526.9915 1010.6896,527.5715 C1012.8986,528.1505 1015.1596,526.8295 1015.7396,524.6205" id="Fill-18" fill="#FD5F59"></path>
                            <path d="M400.8917,575.0717 C401.3137,573.4617 400.3517,571.8137 398.7407,571.3907 C397.1307,570.9687 395.4827,571.9317 395.0607,573.5417 C394.6377,575.1517 395.6007,576.7997 397.2107,577.2217 C398.8217,577.6447 400.4687,576.6817 400.8917,575.0717" id="Fill-20" fill="#FD5F59"></path>
                            <path d="M1019.6381,408.7656 C1020.2181,406.5566 1018.8971,404.2956 1016.6871,403.7156 C1014.4781,403.1356 1012.2171,404.4566 1011.6371,406.6666 C1011.0581,408.8756 1012.3791,411.1366 1014.5881,411.7166 C1016.7971,412.2956 1019.0581,410.9746 1019.6381,408.7656" id="Fill-22" fill="#FD5F59"></path>
                            <path d="M1131.0748,574.8275 C1131.6548,572.6185 1130.3338,570.3575 1128.1238,569.7775 C1125.9148,569.1975 1123.6538,570.5185 1123.0738,572.7285 C1122.4938,574.9375 1123.8148,577.1985 1126.0248,577.7785 C1128.2338,578.3585 1130.4948,577.0365 1131.0748,574.8275" id="Fill-24" fill="#FD5F59"></path>
                            <path d="M657.4548,350.8335 C658.0348,348.6245 656.7138,346.3635 654.5038,345.7835 C652.2948,345.2035 650.0338,346.5245 649.4538,348.7345 C648.8738,350.9435 650.1958,353.2045 652.4048,353.7845 C654.6138,354.3645 656.8748,353.0425 657.4548,350.8335" id="Fill-26" fill="#FD5F59"></path>
                            <path d="M932.3483,562.5686 C932.9283,560.3596 931.6073,558.0986 929.3973,557.5186 C927.1883,556.9386 924.9273,558.2596 924.3473,560.4696 C923.7673,562.6786 925.0893,564.9396 927.2983,565.5196 C929.5073,566.0986 931.7683,564.7776 932.3483,562.5686" id="Fill-28" fill="#FFFFFF"></path>
                            <path d="M1088.6823,493.9021 C1089.2623,491.6931 1091.5233,490.3711 1093.7323,490.9511 C1095.9423,491.5311 1097.2633,493.7921 1096.6833,496.0011 C1096.1033,498.2111 1093.8423,499.5321 1091.6333,498.9521 C1089.4233,498.3721 1088.1023,496.1111 1088.6823,493.9021" id="Fill-30" fill="#FD5F59"></path>
                            <path d="M742.4618,572.6576 C743.0418,570.4486 745.3028,569.1266 747.5118,569.7066 C749.7208,570.2866 751.0418,572.5476 750.4628,574.7566 C749.8828,576.9666 747.6218,578.2876 745.4128,577.7076 C743.2028,577.1276 741.8818,574.8666 742.4618,572.6576" id="Fill-32" fill="#FD5F59"></path>
                            <path d="M1126.527,424.059 C1126.95,422.449 1128.597,421.486 1130.208,421.908 C1131.818,422.331 1132.781,423.979 1132.358,425.589 C1131.936,427.199 1130.288,428.162 1128.678,427.739 C1127.067,427.317 1126.105,425.669 1126.527,424.059" id="Fill-34" fill="#FD5F59"></path>
                            <path d="M806.5247,449.7792 C807.1047,447.5702 809.3657,446.2492 811.5747,446.8282 C813.7837,447.4082 815.1057,449.6692 814.5257,451.8782 C813.9457,454.0882 811.6847,455.4092 809.4757,454.8292 C807.2657,454.2492 805.9447,451.9882 806.5247,449.7792" id="Fill-36" fill="#FD5F59"></path>
                            <path d="M915.5605,458.4469 C915.9825,456.8369 917.6305,455.8739 919.2415,456.2959 C920.8515,456.7189 921.8145,458.3669 921.3915,459.9769 C920.9695,461.5869 919.3215,462.5499 917.7115,462.1269 C916.1005,461.7049 915.1385,460.0569 915.5605,458.4469" id="Fill-38" fill="#FD5F59"></path>
                            <path d="M342.3991,491.1776 C342.9791,488.9686 341.6581,486.7076 339.4481,486.1276 C337.2391,485.5476 334.9781,486.8686 334.3981,489.0786 C333.8181,491.2876 335.1401,493.5486 337.3491,494.1286 C339.5581,494.7076 341.8191,493.3866 342.3991,491.1776" id="Fill-42" fill="#FD5F59"></path>
                            <path d="M505.6174,540.4252 C506.1974,538.2162 508.4584,536.8942 510.6674,537.4742 C512.8764,538.0542 514.1984,540.3152 513.6184,542.5242 C513.0384,544.7342 510.7774,546.0552 508.5684,545.4752 C506.3594,544.8952 505.0374,542.6342 505.6174,540.4252" id="Fill-44" fill="#FFFFFF"></path>
                            <path d="M917.9688,379.3051 C918.3908,377.6951 920.0388,376.7321 921.6498,377.1551 C923.2598,377.5771 924.2228,379.2251 923.7998,380.8351 C923.3778,382.4451 921.7298,383.4081 920.1198,382.9861 C918.5088,382.5631 917.5468,380.9151 917.9688,379.3051" id="Fill-48" fill="#FD5F59"></path>
                            <path d="M726.666,478.6829 C727.088,477.0729 728.736,476.1099 730.347,476.5329 C731.957,476.9549 732.92,478.6029 732.497,480.2129 C732.075,481.8229 730.427,482.7859 728.817,482.3639 C727.206,481.9409 726.244,480.2929 726.666,478.6829" id="Fill-50" fill="#FFFFFF"></path>
                            <path d="M738.8662,362.224 C739.2882,360.614 740.9362,359.651 742.5472,360.074 C744.1572,360.496 745.1202,362.144 744.6972,363.754 C744.2752,365.364 742.6272,366.327 741.0162,365.905 C739.4062,365.482 738.4442,363.834 738.8662,362.224" id="Fill-52" fill="#FFFFFF"></path>
                            <path d="M438.0853,404.3386 C438.5073,402.7286 440.1553,401.7656 441.7663,402.1876 C443.3763,402.6106 444.3393,404.2586 443.9163,405.8686 C443.4943,407.4786 441.8463,408.4416 440.2363,408.0186 C438.6253,407.5966 437.6633,405.9486 438.0853,404.3386" id="Fill-54" fill="#FD5F59"></path>
                            <g id="Group-58" transform="translate(764.000000, 332.000000)">
                                <mask id="mask-8" fill="white">
                                    <use xlink:href="#path-7"></use>
                                </mask>
                                <g id="Clip-57"></g>
                                <path d="M1453.9805,469.8849 C1495.6395,778.3979 1204.9685,1072.3519 804.6995,1126.4009 C404.4795,1180.4439 46.2045,974.1189 4.5455,665.6059 C-10.3465,555.3209 17.2195,446.8709 77.1385,350.5759 C147.8025,236.9019 263.5635,140.1849 407.5475,77.3879 C458.4505,55.1339 512.8705,37.1829 570.0505,24.1849 C574.1045,23.2399 578.2135,22.3369 582.2795,21.4889 C605.6955,16.4849 629.5725,12.3149 653.8195,9.0409 C800.6205,-10.7821 941.7465,4.4079 1063.7085,46.8729 C1067.8345,48.3079 1071.9185,49.7969 1076.0015,51.2869 C1280.2375,126.1469 1428.1115,278.3059 1453.9805,469.8849" id="Fill-56" fill="#5EB8E7" mask="url(#mask-8)"></path>
                            </g>
                            <path d="M1840.0017,383.2867 C1785.7497,410.2237 1689.0047,424.3827 1579.8217,417.5727 C1476.2047,411.0567 1386.1207,387.1817 1334.0507,356.1847 C1338.1047,355.2397 1342.2127,354.3367 1346.2797,353.4887 C1369.6957,348.4857 1393.5727,344.3147 1417.8197,341.0407 C1564.6207,321.2177 1705.7467,336.4077 1827.7087,378.8727 C1831.8347,380.3077 1835.9177,381.7967 1840.0017,383.2867" id="Fill-59" fill="#7FC4E6"></path>
                            <g id="Group-63" transform="translate(834.000000, 407.000000)">
                                <mask id="mask-10" fill="white">
                                    <use xlink:href="#path-9"></use>
                                </mask>
                                <g id="Clip-62"></g>
                                <path d="M577.6906,155.5758 L561.6006,225.8918 C561.3476,226.9718 560.4696,227.8368 559.3446,227.9888 L294.2246,274.3418 C293.8826,274.3878 293.4846,274.3918 293.1226,274.2908 L175.2046,246.6588 C174.7876,246.5168 174.3636,246.3248 174.0236,246.0228 L142.8146,218.3798 L132.8646,209.5688 C131.9636,208.7948 130.7436,208.6108 129.6786,209.2028 L90.5996,229.8108 C89.5776,230.3468 88.9896,231.5218 89.1416,232.6458 L95.4716,279.5268 C95.7096,281.2868 94.2736,282.8238 92.5166,282.7128 L48.4016,279.6608 L3.4766,276.5188 C1.3646,276.3558 0.1476,273.9818 1.2986,272.1828 C72.5966,159.5188 187.7096,63.5368 330.5236,0.5488 C332.2176,-0.1782 334.2046,0.8978 334.4556,2.7558 L339.5446,40.4458 C339.6766,41.4238 340.2846,42.2368 341.1816,42.6138 L357.7076,49.9888 L465.0066,97.7698 C465.4856,98.0038 465.9946,98.0848 466.4836,98.0188 L513.4616,91.6748 C514.2926,91.5628 515.1766,91.8418 515.8066,92.4538 L576.9426,152.9888 C577.6286,153.6428 577.9136,154.6498 577.6906,155.5758" id="Fill-61" fill="#51B862" mask="url(#mask-10)"></path>
                            </g>
                            <g id="Group-66" transform="translate(882.000000, 417.000000)">
                                <mask id="mask-12" fill="white">
                                    <use xlink:href="#path-11"></use>
                                </mask>
                                <g id="Clip-65"></g>
                                <path d="M529.6906,145.5758 L513.6006,215.8918 C513.3476,216.9718 512.4696,217.8368 511.3446,217.9888 L246.2246,264.3418 C245.8826,264.3878 245.4846,264.3918 245.1226,264.2908 L127.2046,236.6588 C126.7876,236.5168 126.3636,236.3248 126.0236,236.0228 L94.8146,208.3798 L84.8646,199.5688 C83.9636,198.7948 82.7436,198.6108 81.6786,199.2028 L42.5996,219.8108 C41.5776,220.3468 40.9896,221.5218 41.1416,222.6458 L47.4716,269.5268 C47.7096,271.2868 46.2736,272.8238 44.5166,272.7128 L0.4016,269.6608 C2.2696,266.1728 4.1876,262.6788 6.1596,259.2268 C66.8216,152.5778 164.9246,61.4808 287.4456,0.0878 L291.5446,30.4458 C291.6766,31.4238 292.2846,32.2368 293.1816,32.6138 L309.7076,39.9888 L417.0066,87.7698 C417.4856,88.0038 417.9946,88.0848 418.4836,88.0188 L465.4616,81.6748 C466.2926,81.5628 467.1766,81.8418 467.8066,82.4538 L528.9426,142.9888 C529.6286,143.6428 529.9136,144.6498 529.6906,145.5758" id="Fill-64" fill="#00AC53" mask="url(#mask-12)"></path>
                            </g>
                            <g id="Group-69" transform="translate(1728.000000, 422.000000)">
                                <mask id="mask-14" fill="white">
                                    <use xlink:href="#path-13"></use>
                                </mask>
                                <g id="Clip-68"></g>
                                <path d="M388.8171,161.9368 C389.2791,163.5168 388.2131,165.2038 386.5571,165.4768 L335.9021,173.7108 L220.2651,192.4618 C218.9941,192.6338 217.7021,191.9118 217.2441,190.7298 L189.6141,122.1358 C189.3071,121.3308 188.6271,120.7258 187.7991,120.4888 L67.6771,86.4858 C66.0201,86.0118 65.1701,84.1358 65.9561,82.5868 L73.0441,67.9908 C73.8951,66.1828 72.7181,64.1018 70.7591,63.9688 L23.0721,59.9048 C22.3191,59.8578 21.6241,59.5028 21.1471,58.9208 L0.8341,34.1868 C-0.6589,32.3478 0.6181,29.6368 2.9551,29.6198 L40.9501,29.3678 L160.7031,25.9898 C161.1981,25.9728 161.6741,25.8088 162.1371,25.5468 L168.1871,21.6938 L201.2901,0.6978 C202.1171,0.1878 203.1011,0.1048 204.0051,0.5308 L362.1531,76.5378 C362.8971,76.8848 363.4231,77.4608 363.6261,78.2298 L388.8171,161.9368 Z" id="Fill-67" fill="#008E46" mask="url(#mask-14)"></path>
                            </g>
                            <g id="Group-72" transform="translate(1728.000000, 443.000000)">
                                <mask id="mask-16" fill="white">
                                    <use xlink:href="#path-15"></use>
                                </mask>
                                <g id="Clip-71"></g>
                                <path d="M335.9023,152.7111 L220.2653,171.4621 C218.9943,171.6331 217.7023,170.9121 217.2443,169.7291 L189.6143,101.1351 C189.3063,100.3311 188.6273,99.7261 187.7993,99.4891 L67.6773,65.4851 C66.0203,65.0121 65.1693,63.1361 65.9563,61.5861 L73.0443,46.9901 C73.8953,45.1831 72.7183,43.1021 70.7593,42.9691 L23.0723,38.9051 C22.3193,38.8571 21.6243,38.5031 21.1473,37.9201 L0.8343,13.1871 C-0.6587,11.3481 0.6173,8.6371 2.9543,8.6201 L40.9493,8.3671 L160.7033,4.9891 C161.1983,4.9721 161.6743,4.8081 162.1363,4.5471 L168.1863,0.6931 C235.3763,41.5461 292.4943,92.9681 335.9023,152.7111" id="Fill-70" fill="#00AC53" mask="url(#mask-16)"></path>
                            </g>
                            <path d="M1395.0897,516.4943 L1404.3277,527.1543 C1408.1377,531.5503 1415.3147,529.8853 1416.7997,524.2593 C1417.1227,523.0333 1417.1187,521.7433 1416.7867,520.5183 L1412.5457,504.8663 C1411.0897,499.4973 1404.3747,497.7073 1400.4397,501.6393 L1395.4437,506.6313 C1392.7557,509.3163 1392.6017,513.6233 1395.0897,516.4943" id="Fill-73" fill="#00AC53"></path>
                        </g>
                        <g id="Group-78" stroke-width="1" fill="none" transform="translate(990.000000, 792.550000)">
                            <mask id="mask-18" fill="white">
                                <use xlink:href="#path-17"></use>
                            </mask>
                            <g id="Clip-77"></g>
                            <path d="M-0.5669,501.6158 C-0.5669,501.6158 1.0801,497.7008 4.1681,490.3618 C5.7131,486.6918 7.6171,482.1658 9.8561,476.8448 C10.1361,476.1798 10.4211,475.5028 10.7111,474.8128 C11.0271,474.1018 11.3481,473.3788 11.6741,472.6428 C12.3071,471.2278 12.9611,469.7648 13.6371,468.2538 C15.0251,465.2278 16.4991,462.0118 18.0581,458.6148 C24.3801,445.0878 32.3961,428.8158 42.3591,410.5668 C52.3071,392.3128 64.1811,372.0748 78.1201,350.6268 C92.0281,329.1848 108.0081,306.4758 126.0811,283.4828 C144.1571,260.3928 164.2161,236.8728 186.3261,213.8018 C208.4371,190.7428 232.5241,168.0988 258.2921,146.6278 C261.4661,143.8878 264.7911,141.3158 268.0601,138.6668 C271.3511,136.0448 274.6101,133.3698 277.9431,130.7798 C281.3001,128.2208 284.6621,125.6578 288.0291,123.0908 L293.0891,119.2498 L298.2441,115.5238 C301.6811,113.0378 305.1221,110.5508 308.5661,108.0608 C312.0731,105.6598 315.5821,103.2578 319.0931,100.8548 L324.3601,97.2488 L329.7181,93.7748 L340.4451,86.8378 L351.3501,80.1818 L356.8121,76.8528 L362.3191,73.6598 L365.0711,72.0638 L367.8781,70.4908 L373.4341,67.3988 L378.9851,64.3078 L384.6231,61.3348 C392.1111,57.3078 399.7151,53.5878 407.2931,49.8688 C411.1201,48.0888 414.9421,46.3108 418.7571,44.5368 C422.5791,42.7778 426.4591,41.1618 430.2951,39.4728 C461.1311,26.3168 492.6211,15.9208 523.8931,9.3658 C555.1291,2.7638 586.0861,-0.3082 615.3581,0.8288 C644.6101,1.9028 672.1521,6.8688 696.3011,15.2498 C708.3801,19.3928 719.7121,24.1338 730.0011,29.5908 C731.2931,30.2588 732.6001,30.8808 733.8571,31.5758 C735.1051,32.2868 736.3451,32.9948 737.5761,33.6978 C738.8071,34.3998 740.0291,35.0978 741.2441,35.7908 C742.4551,36.4878 743.6761,37.1498 744.8231,37.9168 C747.1461,39.3998 749.4361,40.8628 751.6921,42.3028 C752.2561,42.6628 752.8181,43.0208 753.3771,43.3788 C753.9281,43.7498 754.4601,44.1428 754.9991,44.5218 C756.0731,45.2848 757.1391,46.0428 758.1961,46.7938 C762.4551,49.7698 766.4731,52.7638 770.2171,55.8468 C774.0061,58.8788 777.5071,61.9688 780.8451,64.9708 C787.4961,70.9998 793.2291,76.9428 798.1971,82.4888 C808.1071,93.6168 814.8781,103.2018 819.3341,109.8078 C821.5261,113.1398 823.1861,115.7078 824.2501,117.4728 C825.3341,119.2248 825.8931,120.1298 825.8931,120.1298 C826.0211,120.3378 825.9571,120.6098 825.7491,120.7378 C825.5421,120.8668 825.2701,120.8028 825.1411,120.5948 L825.1371,120.5868 C825.1371,120.5868 824.5781,119.6858 823.4951,117.9408 C822.4331,116.1828 820.7741,113.6268 818.5851,110.3098 C814.1351,103.7328 807.3741,94.1928 797.4871,83.1228 C787.5961,72.0888 774.5371,59.5028 757.5491,47.7108 C756.4931,46.9678 755.4291,46.2188 754.3571,45.4638 C753.8191,45.0898 753.2871,44.7018 752.7371,44.3348 C752.1791,43.9818 751.6181,43.6278 751.0551,43.2718 C748.8031,41.8498 746.5171,40.4058 744.1991,38.9408 C743.0551,38.1838 741.8361,37.5308 740.6271,36.8438 C739.4161,36.1598 738.1961,35.4718 736.9681,34.7788 C735.7401,34.0858 734.5041,33.3888 733.2601,32.6858 C732.0061,32.0008 730.7031,31.3888 729.4141,30.7298 C719.1551,25.3528 707.8621,20.6938 695.8331,16.6328 C671.7851,8.4168 644.3831,3.6138 615.2961,2.6878 C586.1871,1.6628 555.4201,4.9718 524.4141,11.7748 C493.3701,18.5278 462.1331,29.1048 431.5691,42.4208 C427.7661,44.1298 423.9221,45.7638 420.1341,47.5428 C416.3531,49.3358 412.5661,51.1328 408.7731,52.9308 C401.2661,56.6878 393.7261,60.4478 386.3391,64.4938 L380.7691,67.4848 L375.2411,70.6168 L369.7091,73.7518 L366.9781,75.3088 L364.2381,76.9258 L358.7561,80.1598 L353.3691,83.5008 L342.5761,90.2008 L331.9621,97.1808 L326.6611,100.6748 L321.4501,104.3008 C317.9771,106.7168 314.5061,109.1318 311.0371,111.5448 C307.6321,114.0468 304.2291,116.5468 300.8291,119.0438 L295.7331,122.7878 L290.7301,126.6458 C287.4031,129.2228 284.0791,131.7958 280.7601,134.3658 C277.4661,136.9668 274.2461,139.6518 270.9941,142.2838 C267.7631,144.9418 264.4771,147.5218 261.3431,150.2708 C235.8861,171.8128 212.1141,194.5038 190.3131,217.5888 C168.5161,240.6788 148.7461,264.2248 131.0051,287.2438 C113.1651,310.3008 97.5151,332.9098 83.8531,354.3238 C70.1831,375.7128 58.5521,395.8858 48.8251,414.0608 C39.0831,432.2318 31.2621,448.4188 25.1001,461.8678 C23.5851,465.2378 22.1521,468.4268 20.8041,471.4268 C20.1401,472.9428 19.4961,474.4108 18.8741,475.8298 C18.5771,476.5128 18.2851,477.1848 17.9971,477.8448 C17.7121,478.5368 17.4321,479.2168 17.1581,479.8838 C14.9591,485.2218 13.0891,489.7618 11.5731,493.4438 C8.5401,500.8058 6.9231,504.7328 6.9231,504.7328 C6.0701,506.8048 3.7001,507.7928 1.6281,506.9398 C-0.4429,506.0868 -1.4319,503.7168 -0.5789,501.6448 L-0.5669,501.6158 Z" id="Fill-76" fill="#F04F74" mask="url(#mask-18)"></path>
                        </g>
                        <g id="Group-83" stroke-width="1" fill="none" transform="translate(1483.000000, 775.550000)">
                            <path d="M55.2778,24.7067 C57.3008,39.6877 46.7958,53.4717 31.8148,55.4947 C16.8338,57.5177 3.0498,47.0137 1.0268,32.0327 C-0.9962,17.0517 9.5088,3.2667 24.4898,1.2437 C39.4708,-0.7793 53.2548,9.7257 55.2778,24.7067" id="Fill-79" fill="#AEDDF7"></path>
                            <path d="M41.9784,26.5026 C43.0094,34.1386 37.6554,41.1646 30.0194,42.1956 C22.3834,43.2266 15.3574,37.8726 14.3264,30.2366 C13.2954,22.6006 18.6494,15.5746 26.2854,14.5436 C33.9214,13.5126 40.9474,18.8666 41.9784,26.5026" id="Fill-81" fill="#48A4DB"></path>
                        </g>
                        <g id="Group-86" stroke-width="1" fill="none" transform="translate(1059.000000, 864.550000)">
                            <mask id="mask-20" fill="white">
                                <use xlink:href="#path-19"></use>
                            </mask>
                            <g id="Clip-85"></g>
                            <path d="M0.1455,505.2037 C0.1455,505.2037 1.0135,502.0937 2.6415,496.2617 C3.4555,493.3457 4.4595,489.7497 5.6395,485.5217 C5.9345,484.4647 6.2405,483.3687 6.5575,482.2327 C6.7205,481.6547 6.8855,481.0667 7.0545,480.4687 C7.2285,479.8847 7.4055,479.2907 7.5855,478.6887 C8.3145,476.2767 9.0885,473.7137 9.9065,471.0057 C13.2235,460.1667 17.4725,447.0917 22.7575,432.2297 C28.0625,417.3777 34.3995,400.7467 41.8955,382.8467 C49.4005,364.9527 58.0205,345.7707 67.8355,325.8227 C70.2945,320.8547 72.7985,315.7687 75.4465,310.7337 C78.0865,305.6857 80.6835,300.5447 83.4475,295.4047 C86.2355,290.2747 89.0545,285.0907 91.9005,279.8557 C94.8385,274.6757 97.8045,269.4467 100.7945,264.1737 C112.9555,243.1957 126.2695,221.9497 140.6685,200.9537 C155.0805,179.9677 170.5855,159.2407 187.0155,139.2707 C203.4455,119.3017 220.7865,100.0847 238.8265,82.1167 C256.9005,64.2167 275.6615,47.5257 294.7855,32.6387 C304.3355,25.1737 314.0425,18.2467 323.7065,11.7157 C333.3935,5.2127 343.1495,-0.7233 352.8225,-6.1883 C362.5105,-11.6303 372.2195,-16.4053 381.7555,-20.6873 C391.3035,-24.9543 400.7905,-28.4653 410.0035,-31.4893 C419.2315,-34.4883 428.2785,-36.6873 436.9405,-38.4453 C441.2975,-39.1993 445.5305,-40.0063 449.6975,-40.4543 C453.8425,-41.0673 457.9075,-41.3003 461.8355,-41.6233 C477.5845,-42.5493 491.3805,-41.1823 502.4685,-38.9383 C513.5735,-36.6663 521.9665,-33.5663 527.5815,-31.2823 C528.2945,-31.0223 528.9465,-30.7313 529.5505,-30.4403 C530.1575,-30.1583 530.7245,-29.8963 531.2495,-29.6523 C532.2985,-29.1663 533.1825,-28.7563 533.8945,-28.4273 C535.3165,-27.7673 536.0515,-27.4273 536.0515,-27.4273 L535.7335,-26.7963 C535.7335,-26.7963 535.0035,-27.1373 533.5905,-27.7973 C532.8845,-28.1273 532.0065,-28.5383 530.9635,-29.0253 C530.4415,-29.2693 529.8795,-29.5313 529.2755,-29.8143 C528.6765,-30.1053 528.0285,-30.3963 527.3195,-30.6573 C521.7405,-32.9473 513.3995,-36.0573 502.3485,-38.3543 C491.3185,-40.6323 477.5675,-42.0343 461.8695,-41.0633 C457.9535,-40.7353 453.9025,-40.4973 449.7705,-39.8783 C445.6175,-39.4263 441.3975,-38.6143 437.0545,-37.8563 C428.4195,-36.0893 419.4005,-33.8833 410.2005,-30.8773 C401.0145,-27.8463 391.5555,-24.3293 382.0345,-20.0573 C372.5255,-15.7693 362.8455,-10.9903 353.1835,-5.5433 C343.5415,-0.0673 333.7995,5.8537 324.1575,12.3867 C314.5415,18.9537 304.8875,25.9147 295.3905,33.4127 C276.3645,48.3757 257.7475,65.0997 239.7735,83.0737 C221.8655,101.0867 204.6455,120.3557 188.3485,140.3617 C172.0495,160.3707 156.6785,181.1277 142.4015,202.1367 C128.1375,223.1557 114.9575,244.4167 102.9285,265.4027 C99.9705,270.6767 97.0385,275.9077 94.1325,281.0887 C91.3225,286.3177 88.5395,291.4967 85.7865,296.6207 C83.0555,301.7587 80.4785,306.9237 77.8645,311.9807 C75.2355,317.0397 72.7945,322.0627 70.3535,327.0537 C60.6575,346.9927 52.1585,366.1617 44.8065,384.0547 C37.4515,401.9477 31.2465,418.5617 26.0575,433.3927 C20.8905,448.2307 16.7405,461.2937 13.5135,472.0897 C12.7155,474.7967 11.9595,477.3587 11.2495,479.7697 C11.0725,480.3737 10.8995,480.9687 10.7285,481.5537 C10.5705,482.1297 10.4155,482.6967 10.2635,483.2537 C9.9535,484.3917 9.6545,485.4897 9.3665,486.5487 C8.2145,490.7847 7.2335,494.3867 6.4385,497.3077 C4.8495,503.1497 4.0015,506.2657 4.0015,506.2657 L0.1455,505.2037 Z" id="Fill-84" fill="#221F1F" mask="url(#mask-20)"></path>
                        </g>
                        <g id="Group-181" stroke-width="1" fill="none" transform="translate(17.000000, 59.550000)">
                            <path d="M375.098,322.2037 C375.098,325.6487 377.89,328.4417 381.335,328.4417 C384.78,328.4417 387.573,325.6487 387.573,322.2037 C387.573,318.7597 384.78,315.9667 381.335,315.9667 C377.89,315.9667 375.098,318.7597 375.098,322.2037" id="Fill-89" fill="#FD5F59"></path>
                            <path d="M857.1492,365.8429 C857.1492,369.2879 859.9422,372.0809 863.3862,372.0809 C866.8312,372.0809 869.6242,369.2879 869.6242,365.8429 C869.6242,362.3979 866.8312,359.6049 863.3862,359.6049 C859.9422,359.6049 857.1492,362.3979 857.1492,365.8429" id="Fill-91" fill="#FD5F59"></path>
                            <path d="M991.0524,525.8522 C991.0524,529.2972 993.8444,532.0902 997.2894,532.0902 C1000.7344,532.0902 1003.5274,529.2972 1003.5274,525.8522 C1003.5274,522.4072 1000.7344,519.6152 997.2894,519.6152 C993.8444,519.6152 991.0524,522.4072 991.0524,525.8522" id="Fill-93" fill="#FFFFFF"></path>
                            <path d="M321.5367,424.028 C321.5367,427.473 324.3297,430.266 327.7737,430.266 C331.2187,430.266 334.0117,427.473 334.0117,424.028 C334.0117,420.584 331.2187,417.791 327.7737,417.791 C324.3297,417.791 321.5367,420.584 321.5367,424.028" id="Fill-97" fill="#FD5F59"></path>
                            <path d="M348.3173,584.0375 C348.3173,587.4825 351.1093,590.2755 354.5543,590.2755 C357.9993,590.2755 360.7923,587.4825 360.7923,584.0375 C360.7923,580.5935 357.9993,577.8005 354.5543,577.8005 C351.1093,577.8005 348.3173,580.5935 348.3173,584.0375" id="Fill-103" fill="#FD5F59"></path>
                            <path d="M386.9771,754.5344 C386.9771,757.9794 389.7701,760.7714 393.2141,760.7714 C396.6591,760.7714 399.4521,757.9794 399.4521,754.5344 C399.4521,751.0894 396.6591,748.2964 393.2141,748.2964 C389.7701,748.2964 386.9771,751.0894 386.9771,754.5344" id="Fill-109" fill="#FD5F59"></path>
                            <path d="M937.4911,700.4083 C937.4911,703.8533 940.2841,706.6453 943.7281,706.6453 C947.1731,706.6453 949.9661,703.8533 949.9661,700.4083 C949.9661,696.9633 947.1731,694.1703 943.7281,694.1703 C940.2841,694.1703 937.4911,696.9633 937.4911,700.4083" id="Fill-113" fill="#FD5F59"></path>
                            <path d="M455.4398,496.76 C455.4398,500.205 458.2328,502.997 461.6768,502.997 C465.1218,502.997 467.9148,500.205 467.9148,496.76 C467.9148,493.315 465.1218,490.522 461.6768,490.522 C458.2328,490.522 455.4398,493.315 455.4398,496.76" id="Fill-115" fill="#FFFFFF"></path>
                            <path d="M562.5623,336.75 C562.5623,340.195 565.3543,342.988 568.7993,342.988 C572.2443,342.988 575.0373,340.195 575.0373,336.75 C575.0373,333.306 572.2443,330.513 568.7993,330.513 C565.3543,330.513 562.5623,333.306 562.5623,336.75" id="Fill-119" fill="#FD5F59"></path>
                            <path d="M728.5771,409.3584 C728.5771,412.8034 725.7851,415.5964 722.3401,415.5964 C718.8951,415.5964 716.1021,412.8034 716.1021,409.3584 C716.1021,405.9134 718.8951,403.1204 722.3401,403.1204 C725.7851,403.1204 728.5771,405.9134 728.5771,409.3584" id="Fill-133" fill="#FD5F59"></path>
                            <path d="M682.1598,613.1305 C682.1598,616.5755 679.3668,619.3675 675.9228,619.3675 C672.4778,619.3675 669.6848,616.5755 669.6848,613.1305 C669.6848,609.6855 672.4778,606.8925 675.9228,606.8925 C679.3668,606.8925 682.1598,609.6855 682.1598,613.1305" id="Fill-141" fill="#FD5F59"></path>
                            <path d="M439.4426,394.9357 C439.4426,397.4467 437.4076,399.4817 434.8966,399.4817 C432.3856,399.4817 430.3506,397.4467 430.3506,394.9357 C430.3506,392.4247 432.3856,390.3897 434.8966,390.3897 C437.4076,390.3897 439.4426,392.4247 439.4426,394.9357" id="Fill-143" fill="#FFFFFF"></path>
                            <path d="M519.7844,642.2228 C519.7844,644.7338 517.7494,646.7688 515.2384,646.7688 C512.7274,646.7688 510.6924,644.7338 510.6924,642.2228 C510.6924,639.7128 512.7274,637.6768 515.2384,637.6768 C517.7494,637.6768 519.7844,639.7128 519.7844,642.2228" id="Fill-145" fill="#FD5F59"></path>
                            <path d="M1450.4847,559.6824 C1450.4847,563.1274 1453.2767,565.9204 1456.7217,565.9204 C1460.1667,565.9204 1462.9597,563.1274 1462.9597,559.6824 C1462.9597,556.2384 1460.1667,553.4454 1456.7217,553.4454 C1453.2767,553.4454 1450.4847,556.2384 1450.4847,559.6824" id="Fill-147" fill="#FD5F59"></path>
                            <path d="M1343.3621,375.0837 C1343.3621,378.5287 1346.1541,381.3217 1349.5991,381.3217 C1353.0441,381.3217 1355.8371,378.5287 1355.8371,375.0837 C1355.8371,371.6397 1353.0441,368.8467 1349.5991,368.8467 C1346.1541,368.8467 1343.3621,371.6397 1343.3621,375.0837" id="Fill-149" fill="#FD5F59"></path>
                            <path d="M1086.4146,365.7192 C1086.4146,369.1642 1083.6216,371.9572 1080.1766,371.9572 C1076.7326,371.9572 1073.9396,369.1642 1073.9396,365.7192 C1073.9396,362.2742 1076.7326,359.4822 1080.1766,359.4822 C1083.6216,359.4822 1086.4146,362.2742 1086.4146,365.7192" id="Fill-151" fill="#FFFFFF"></path>
                            <path d="M546.5651,758.5936 C546.5651,761.1046 544.5301,763.1396 542.0191,763.1396 C539.5081,763.1396 537.4731,761.1046 537.4731,758.5936 C537.4731,756.0826 539.5081,754.0476 542.0191,754.0476 C544.5301,754.0476 546.5651,756.0826 546.5651,758.5936" id="Fill-157" fill="#FD5F59"></path>
                            <path d="M787.5907,540.3989 C787.5907,542.9099 785.5557,544.9449 783.0447,544.9449 C780.5337,544.9449 778.4987,542.9099 778.4987,540.3989 C778.4987,537.8879 780.5337,535.8529 783.0447,535.8529 C785.5557,535.8529 787.5907,537.8879 787.5907,540.3989" id="Fill-161" fill="#FFFFFF"></path>
                            <path d="M814.3713,714.9547 C814.3713,717.4657 812.3363,719.5007 809.8253,719.5007 C807.3143,719.5007 805.2793,717.4657 805.2793,714.9547 C805.2793,712.4437 807.3143,710.4087 809.8253,710.4087 C812.3363,710.4087 814.3713,712.4437 814.3713,714.9547" id="Fill-171" fill="#FFFFFF"></path>
                            <path d="M1237.0187,538.3875 C1237.0187,540.8985 1234.9837,542.9335 1232.4727,542.9335 C1229.9617,542.9335 1227.9267,540.8985 1227.9267,538.3875 C1227.9267,535.8775 1229.9617,533.8415 1232.4727,533.8415 C1234.9837,533.8415 1237.0187,535.8775 1237.0187,538.3875" id="Fill-173" fill="#FD5F59"></path>
                        </g>
                        <g id="Group-200" stroke-width="1" fill="none" transform="translate(0.000000, 2.550000)">
                            <g id="Group-184">
                                <mask id="mask-22" fill="white">
                                    <use xlink:href="#path-21"></use>
                                </mask>
                                <g id="Clip-183"></g>
                                <path d="M685.4977,85.6969 C685.4977,-239.7361 421.6817,-503.5521 96.2487,-503.5521 C-229.1843,-503.5521 -493.0003,-239.7361 -493.0003,85.6969 C-493.0003,411.1299 -229.1843,674.9459 96.2487,674.9459 C421.6817,674.9459 685.4977,411.1299 685.4977,85.6969" id="Fill-182" fill="#8B2459" mask="url(#mask-22)"></path>
                            </g>
                            <g id="Group-187">
                                <mask id="mask-24" fill="white">
                                    <use xlink:href="#path-23"></use>
                                </mask>
                                <g id="Clip-186"></g>
                                <path d="M567.8328,85.6969 C567.8328,-174.7521 356.6978,-385.8871 96.2488,-385.8871 C-164.1992,-385.8871 -375.3352,-174.7521 -375.3352,85.6969 C-375.3352,346.1459 -164.1992,557.2809 96.2488,557.2809 C356.6978,557.2809 567.8328,346.1459 567.8328,85.6969" id="Fill-185" fill="#8B2459" mask="url(#mask-24)"></path>
                            </g>
                            <g id="Group-193">
                                <mask id="mask-26" fill="white">
                                    <use xlink:href="#path-25"></use>
                                </mask>
                                <g id="Clip-192"></g>
                                <path d="M455.088,85.6969 C455.088,-112.4841 294.43,-273.1421 96.249,-273.1421 C-101.932,-273.1421 -262.59,-112.4841 -262.59,85.6969 C-262.59,283.8779 -101.932,444.5359 96.249,444.5359 C294.43,444.5359 455.088,283.8779 455.088,85.6969" id="Fill-191" fill="#CF3251" mask="url(#mask-26)"></path>
                            </g>
                        </g>
                        <g id="Group-229" stroke-width="1" fill="none" transform="translate(134.000000, 0.550000)">
                            <path d="M1198.46,683.5483 C1198.46,687.9133 1194.921,691.4523 1190.556,691.4523 C1186.191,691.4523 1182.653,687.9133 1182.653,683.5483 C1182.653,679.1833 1186.191,675.6443 1190.556,675.6443 C1194.921,675.6443 1198.46,679.1833 1198.46,683.5483" id="Fill-211" fill="#F7ED9F"></path>
                            <path d="M400.0503,719.9562 C400.0503,724.3212 396.5113,727.8602 392.1463,727.8602 C387.7813,727.8602 384.2423,724.3212 384.2423,719.9562 C384.2423,715.5912 387.7813,712.0522 392.1463,712.0522 C396.5113,712.0522 400.0503,715.5912 400.0503,719.9562" id="Fill-213" fill="#F7ED9F"></path>
                            <path d="M752.3082,778.4272 C752.3082,787.2462 745.1592,794.3952 736.3402,794.3952 C727.5212,794.3952 720.3722,787.2462 720.3722,778.4272 C720.3722,769.6082 727.5212,762.4592 736.3402,762.4592 C745.1592,762.4592 752.3082,769.6082 752.3082,778.4272" id="Fill-219" fill="#6D5D7B"></path>
                        </g>
                    </g>
                </g>
            </g>
        </g>
    </g>
</svg>