<?xml version="1.0" encoding="UTF-8" standalone="no"?>
<svg width="88px" height="122px" viewBox="0 0 88 122" version="1.1" xmlns="http://www.w3.org/2000/svg" xmlns:xlink="http://www.w3.org/1999/xlink">
    <!-- Generator: Sketch 41.2 (35397) - http://www.bohemiancoding.com/sketch -->
    <title>Page 1</title>
    <desc>Created with Sketch.</desc>
    <defs></defs>
    <g id="Page-1" stroke="none" stroke-width="1" fill="none" fill-rule="evenodd">
        <g id="content-archive-copy-4" transform="translate(-1077.000000, -632.000000)">
            <g id="Page-1" transform="translate(1077.000000, 632.000000)">
                <path d="M42.9649702,121.680785 C42.9649702,121.680785 28.0787404,113.746681 27.960034,113.708253 L32.918366,86.9749566 C33.1730043,86.8440024 33.4317617,86.6910361 33.6942638,86.5164306 C34.5338213,88.0181125 35.5654809,88.8732318 36.7660255,89.0623878 C36.7780085,89.063507 36.7892426,89.0646263 36.8004766,89.0664917 C37.0955574,89.1101431 37.3951319,89.1112624 37.6977021,89.0709688 C37.9793021,89.0332869 38.2638979,88.9586691 38.5507404,88.8482349 C39.1858383,88.6042349 39.8295489,88.1833908 40.4762553,87.586822 C41.5431149,88.9388954 42.6946043,89.6223939 43.9097532,89.6223939 C45.1252766,89.6223939 46.2778894,88.9388954 47.3436255,87.586822 C48.1992851,88.3766508 49.0512,88.8575621 49.8813957,89.0291829 L45.2836766,111.706632 L45.0574979,112.822914 L44.8320681,113.937703 L43.2926298,121.529311 C43.2675404,121.652804 43.1600681,121.708767 43.0713191,121.708767 C43.0349957,121.708767 43.0005447,121.699813 42.9649702,121.680785" id="Fill-1" fill="#FED940"></path>
                <path d="M51.7068153,88.8868869 C52.632126,88.5324526 53.4413515,87.7385199 54.1255047,86.5162813 C54.6314111,86.8531804 55.1215898,87.1057615 55.5964153,87.2781284 L58.1495387,104.472667 C58.0297089,104.510349 46.9147472,110.631988 46.9147472,110.631988 L51.7068153,88.8868869 Z" id="Fill-3" fill="#FED940"></path>
                <path d="M9.5063966,114.905457 C9.47606468,114.867776 9.44273702,114.806589 9.46033702,114.720406 L16.4340562,80.3246135 C16.6186689,80.5566746 16.8283711,80.760008 17.0661583,80.932748 C18.0416477,81.6386318 19.375503,81.7684667 21.0445072,81.2965095 C21.3792817,82.9839896 22.0937668,84.1140752 23.176354,84.6632618 C24.2454604,85.2061058 25.5942945,85.1262648 27.1636902,84.4028459 C27.7572221,86.0164544 28.6409668,87.0215554 29.7976987,87.3957633 C30.3871115,87.5867847 31.0252051,87.5994697 31.7022434,87.4371761 L25.6972732,112.886302 L9.70336681,114.987537 C9.69512851,114.988656 9.68763915,114.988656 9.67940085,114.988656 C9.59252426,114.988656 9.53111149,114.936424 9.5063966,114.905457" id="Fill-5" fill="#FED940"></path>
                <path d="M70.7538723,80.9328972 C71.2481702,80.5754783 71.625634,80.0878514 71.8885106,79.4748667 L77.0190979,106.032439 C77.0348255,106.118995 77.0026213,106.180182 76.9722894,106.217491 C76.9442043,106.250695 76.8753021,106.308151 76.7741957,106.297705 L60.4121872,104.041264 L56.766366,87.5391786 C57.2044936,87.5712642 57.6257702,87.5246281 58.0223319,87.3955394 C59.1779404,87.0213315 60.0613106,86.0166037 60.6570894,84.4029951 C62.2268596,85.126041 63.5734468,85.2070012 64.6436766,84.663411 C65.7273872,84.1138514 66.4414979,82.9841388 66.7755234,81.2966587 C67.4360851,81.48283 68.0430979,81.575356 68.5965617,81.575356 C69.4436085,81.575356 70.1644596,81.3600838 70.7538723,80.9328972" id="Fill-7" fill="#FED940"></path>
                <g id="Group-11" transform="translate(0.000000, 0.082080)" fill="#FED940">
                    <path d="M41.3285072,2.41310031 C41.9441328,1.44456208 42.8911626,0.290971865 43.9100902,0.290971865 C44.9290179,0.290971865 45.8764221,1.44456208 46.4924221,2.41310031 L47.1204051,3.40029297 L47.895554,2.52316147 C48.8845243,1.40389541 49.8053413,0.813669113 50.5576477,0.813669113 C50.6325413,0.813669113 50.7063115,0.818892355 50.7793328,0.830458104 C51.7862774,0.989393884 52.5400817,2.27580367 52.9958094,3.32754067 L53.4608987,4.40091682 L54.3652391,3.65585872 C55.3897838,2.8089474 56.3064817,2.36198716 57.0172221,2.36198716 C57.1816136,2.36198716 57.3328987,2.38474557 57.4789413,2.43287401 C58.4480647,2.74664159 58.9914179,4.13490459 59.277137,5.24596269 L59.5680987,6.37754067 L60.5776647,5.78097187 C61.9961498,4.9456263 63.114686,4.68894128 63.8445243,5.05979144 C64.7522349,5.52018287 65.0701583,6.97709419 65.1783796,8.11837248 L65.2869753,9.28203609 L66.3789243,8.85074557 C67.2394519,8.51086177 67.9857668,8.33737554 68.5927796,8.33737554 C69.0638604,8.33737554 69.432337,8.43810948 69.7188051,8.64629297 C70.5441328,9.24248869 70.6295115,10.7307394 70.5568647,11.8750024 L70.4823455,13.0409046 L71.6278434,12.7849657 C73.2268221,12.4286661 74.3906689,12.5391003 74.9583626,13.1043297 C75.6788391,13.8232716 75.5298009,15.3051798 75.2785328,16.4233266 L75.0220221,17.5646049 L76.1941072,17.4907333 C76.4112987,17.4769291 76.6217498,17.4698404 76.8220902,17.4698404 C77.7286774,17.4698404 78.9176136,17.6183297 79.4340051,18.3253327 C80.0324051,19.1461278 79.6530689,20.5873694 79.2284221,21.6529107 L78.795537,22.739718 L79.9650009,22.849033 C81.1090009,22.9557364 82.5716732,23.273981 83.0333923,24.1779749 C83.4966094,25.0830881 82.8948391,26.4474734 82.3087966,27.4328006 L81.7107711,28.439767 L82.8476562,28.7296569 C83.9620732,29.0132043 85.3562179,29.5549291 85.6703966,30.5201095 C85.9853243,31.485663 85.1779711,32.7399872 84.4436391,33.6223419 L83.694703,34.5233511 L84.7724221,34.9867272 C85.8276732,35.4407761 87.1199626,36.193296 87.278737,37.1950391 C87.4382604,38.1979015 86.4432987,39.3108251 85.5805243,40.0670758 L84.6990264,40.8412349 L85.6913668,41.4672777 C86.6623626,42.0802624 87.8198434,43.0238037 87.8198434,44.0393511 C87.8198434,45.0541523 86.6623626,45.9980667 85.6913668,46.6121706 L84.6990264,47.2378404 L85.5805243,48.0097609 C86.4432987,48.767504 87.4382604,49.8804275 87.278737,50.8825437 C87.1199626,51.885033 85.8276732,52.6364336 84.7724221,53.0916018 L83.694703,53.5553511 L84.4436391,54.4563602 C85.1779711,55.3383419 85.9853243,56.5926661 85.6703966,57.5582196 C85.3562179,58.5234 83.9620732,59.0647517 82.8476562,59.3497914 L81.7107711,59.6396813 L82.3087966,60.6459015 C82.8948391,61.6316018 83.4966094,62.9959872 83.0333923,63.9003541 C82.5716732,64.8054673 81.1090009,65.1225927 79.9650009,65.2296691 L78.795537,65.3389841 L79.2284221,66.4257914 C79.6530689,67.4905865 80.0324051,68.9318281 79.4340051,69.7533694 C78.9176136,70.4607456 77.7294264,70.6084887 76.8232136,70.6084887 C76.6228732,70.6084887 76.4112987,70.6021462 76.1941072,70.5875957 L75.0220221,70.5140972 L75.2785328,71.6546294 C75.5298009,72.7727761 75.6788391,74.2561768 74.9583626,74.9732532 C74.5588051,75.3732043 73.8607966,75.5433327 72.9276221,75.4866232 C72.6426519,75.468715 72.3359626,75.4302869 72.007554,75.3698465 C71.884354,75.3459688 71.7581583,75.3220911 71.6278434,75.2918709 L71.0728817,75.1683786 L70.4823455,75.0366783 L70.5568647,76.204819 C70.6295115,77.3475896 70.5441328,78.8347211 69.7188051,79.4324092 C69.432337,79.6391003 69.062737,79.7420728 68.5927796,79.7420728 C67.9857668,79.7420728 67.2394519,79.5682135 66.3789243,79.2275835 L65.2869753,78.7974122 L65.1783796,79.9610758 C65.0701583,81.1012349 64.7522349,82.5570269 63.8445243,83.0185376 C63.1135626,83.3893878 61.9950264,83.133822 60.5776647,82.2962379 L59.5680987,81.7007884 L59.277137,82.8334856 C58.9914179,83.9434245 58.4480647,85.3328067 57.4789413,85.645455 C57.3328987,85.6932104 57.1816136,85.7163419 57.0172221,85.7163419 C56.8292391,85.7163419 56.6270264,85.683137 56.4117072,85.6215774 C56.0353668,85.5126355 55.6200817,85.3122869 55.1767115,85.0220239 C54.9138349,84.8515223 54.6442179,84.6541584 54.3652391,84.4235896 L53.4608987,83.6774122 L52.9958094,84.7507884 C52.801086,85.2007333 52.5516902,85.6924642 52.2513668,86.1215162 C51.9371881,86.5695957 51.5679626,86.9497731 51.1478094,87.1378098 C51.0276051,87.1900422 50.9055285,87.2284703 50.7793328,87.2478709 C50.6052051,87.2758526 50.4217157,87.2687639 50.2299881,87.2292165 C49.5394689,87.0889352 48.74672,86.5196018 47.895554,85.5562869 L47.1204051,84.6791554 L46.4924221,85.6652287 C45.8764221,86.6341401 44.9290179,87.786611 43.9100902,87.786611 C42.8911626,87.786611 41.9441328,86.6341401 41.3285072,85.6652287 L40.6994009,84.6791554 L39.923503,85.5562869 C39.318737,86.2420239 38.7416817,86.7285315 38.2110604,87.0027517 C37.9137328,87.1575835 37.629886,87.2441401 37.3636391,87.2613021 C37.2531711,87.2687639 37.1456987,87.2646599 37.0404732,87.2478709 C36.820286,87.2135468 36.6117072,87.1210208 36.4158604,86.9926783 C35.7182264,86.533033 35.1797413,85.5719566 34.8239966,84.7507884 L34.3589072,83.6774122 L33.4545668,84.4235896 C33.4399626,84.4359015 33.4261072,84.4456018 33.411503,84.4567945 C32.953903,84.8310024 32.5180221,85.1227578 32.1120987,85.3328067 C31.6271626,85.5831492 31.1837923,85.7163419 30.8022094,85.7163419 C30.6381923,85.7163419 30.4880306,85.6932104 30.3408647,85.645455 C29.3721157,85.3328067 28.8287626,83.9434245 28.5437923,82.8334856 L28.2528306,81.7007884 L27.2421413,82.2962379 C25.8247796,83.133822 24.7062434,83.3893878 23.9752817,83.0185376 C23.0679455,82.5570269 22.7488987,81.1012349 22.6414264,79.9610758 L22.5320817,78.7974122 L21.4408817,79.2275835 C20.5792306,79.5682135 19.8347881,79.7420728 19.2274009,79.7420728 C18.7559455,79.7420728 18.3878434,79.6391003 18.1010009,79.4324092 C17.2767966,78.8347211 17.1902945,77.3475896 17.2633157,76.204819 L17.2685583,76.129455 L17.3374604,75.0366783 L16.5574434,75.21203 L16.192337,75.2918709 C15.9942434,75.3366416 15.8043881,75.3743235 15.6186519,75.4034245 C14.3136306,75.616085 13.359486,75.4698343 12.8610689,74.9732532 C12.1409668,74.2561768 12.2888817,72.7727761 12.5405243,71.6546294 L12.7981583,70.5140972 L11.6268221,70.5875957 C11.4088817,70.6021462 11.1969328,70.6084887 10.9977157,70.6084887 C10.0903796,70.6084887 8.90219234,70.4607456 8.38692426,69.7533694 C7.78852426,68.9318281 8.16673702,67.4898404 8.59138383,66.4257914 L9.02426894,65.3389841 L7.85517957,65.2296691 C6.71005617,65.1225927 5.24850723,64.8054673 4.78641362,63.9003541 C4.32469447,62.9959872 4.92534128,61.6316018 5.51063489,60.6459015 L6.10903489,59.6396813 L4.97214979,59.3497914 C3.85810723,59.0647517 2.46471149,58.5234 2.14978383,57.5582196 C1.8344817,56.5926661 2.6429583,55.3383419 3.37729021,54.4563602 L4.12510298,53.5553511 L3.0477583,53.0916018 C1.99213277,52.6364336 0.700966809,51.885033 0.541443404,50.8825437 C0.381545532,49.8804275 1.3768817,48.767504 2.24040511,48.0097609 L3.12077957,47.2378404 L2.12881362,46.6121706 C1.15894128,45.9980667 -3.74468073e-05,45.0541523 -3.74468073e-05,44.0393511 C-3.74468073e-05,43.0238037 1.15894128,42.0802624 2.12881362,41.4672777 L3.12077957,40.8412349 L2.24040511,40.0670758 C1.3768817,39.3108251 0.381545532,38.1979015 0.541443404,37.1950391 C0.700966809,36.193296 1.99213277,35.4407761 3.0477583,34.9867272 L4.12510298,34.5233511 L3.37729021,33.6223419 C2.6429583,32.7399872 1.8344817,31.485663 2.14978383,30.5201095 C2.46471149,29.5549291 3.85810723,29.0132043 4.97214979,28.7296569 L6.10903489,28.439767 L5.51063489,27.4328006 C4.92534128,26.4474734 4.32469447,25.0830881 4.78529021,24.1779749 C5.24850723,23.273981 6.71117957,22.9557364 7.85517957,22.849033 L9.02426894,22.739718 L8.59138383,21.6529107 C8.16673702,20.5873694 7.78852426,19.1461278 8.38692426,18.3253327 C8.90219234,17.6183297 10.091503,17.4698404 10.9988391,17.4698404 C11.1980562,17.4698404 11.4100051,17.4769291 11.6268221,17.4907333 L12.7981583,17.5646049 L12.5405243,16.4233266 C12.2888817,15.3051798 12.1409668,13.8232716 12.8610689,13.1043297 C13.4302604,12.5391003 14.5929838,12.4297853 16.192337,12.7849657 L17.3374604,13.0409046 L17.2633157,11.8750024 C17.1902945,10.7307394 17.2767966,9.24360795 18.1010009,8.64629297 C18.3878434,8.43810948 18.7559455,8.33737554 19.2274009,8.33737554 C19.8347881,8.33737554 20.5792306,8.51086177 21.4408817,8.85074557 L22.5320817,9.28203609 L22.6414264,8.11837248 C22.7488987,6.97709419 23.0679455,5.52018287 23.9752817,5.05979144 C24.7054945,4.68782202 25.8247796,4.9456263 27.2421413,5.78097187 L28.2528306,6.37865994 L28.5437923,5.24484343 C28.8287626,4.13490459 29.3721157,2.74664159 30.3408647,2.43287401 C30.4880306,2.38474557 30.6381923,2.36198716 30.8022094,2.36198716 C31.5122009,2.36198716 32.4300221,2.8089474 33.4545668,3.65585872 L34.3589072,4.40091682 L34.8239966,3.32754067 C35.2800987,2.27580367 36.0350264,0.989393884 37.0404732,0.830458104 C37.846703,0.701369419 38.8390434,1.29383425 39.923503,2.52316147 L40.6994009,3.40029297 L41.3285072,2.41310031 Z" id="Fill-9"></path>
                </g>
                <path d="M55.9711455,45.799882 C56.5676732,45.799882 57.0305157,46.3139982 56.9784647,46.9057168 C56.4160136,53.2956067 51.0270434,58.3121572 44.4682349,58.3121572 C37.9191626,58.3121572 32.5301923,53.2956067 31.9677413,46.9057168 C31.9156902,46.3139982 32.3789072,45.799882 32.9750604,45.799882 L55.9711455,45.799882 Z" id="Fill-12" fill="#EF8122"></path>
                <path d="M18.4453617,43.7803156 C18.4453617,44.2612269 18.0540426,44.6511046 17.5713532,44.6511046 C17.0886638,44.6511046 16.6973447,44.2612269 16.6973447,43.7803156 C16.6973447,43.2994043 17.0886638,42.9095266 17.5713532,42.9095266 C18.0540426,42.9095266 18.4453617,43.2994043 18.4453617,43.7803156" id="Fill-14" fill="#EF8122"></path>
                <path d="M72.2491983,43.7803156 C72.2491983,44.2612269 71.8578791,44.6511046 71.3751898,44.6511046 C70.8925004,44.6511046 70.5011813,44.2612269 70.5011813,43.7803156 C70.5011813,43.2994043 70.8925004,42.9095266 71.3751898,42.9095266 C71.8578791,42.9095266 72.2491983,43.2994043 72.2491983,43.7803156" id="Fill-16" fill="#EF8122"></path>
                <path d="M28.2484494,41.2273443 C28.2484494,43.026378 26.773794,44.4855278 24.9681089,44.4855278 C23.1624238,44.4855278 21.6978791,43.026378 21.6978791,41.2273443 C21.6978791,40.7975462 21.7780153,40.3875217 21.9382877,40.0177908 C22.1891813,40.1879193 22.480143,40.2875339 22.8010621,40.2875339 C23.6338791,40.2875339 24.3060494,39.6182128 24.3060494,38.7884636 C24.3060494,38.5287939 24.2461345,38.2888979 24.1154451,38.079222 C24.3861855,37.999008 24.6771472,37.9587144 24.9681089,37.9587144 C26.773794,37.9587144 28.2484494,39.4283107 28.2484494,41.2273443" id="Fill-18" fill="#EF8122"></path>
                <path d="M67.2487013,41.2273443 C67.2487013,43.026378 65.774046,44.4855278 63.9683609,44.4855278 C62.1626757,44.4855278 60.6981311,43.026378 60.6981311,41.2273443 C60.6981311,40.7975462 60.7782672,40.3875217 60.9385396,40.0177908 C61.1894332,40.1879193 61.4807694,40.2875339 61.801314,40.2875339 C62.6341311,40.2875339 63.3063013,39.6182128 63.3063013,38.7884636 C63.3063013,38.5287939 63.2463864,38.2888979 63.115697,38.079222 C63.3864374,37.999008 63.6773991,37.9587144 63.9683609,37.9587144 C65.774046,37.9587144 67.2487013,39.4283107 67.2487013,41.2273443" id="Fill-20" fill="#EF8122"></path>
                <path d="M43.909903,8.34237492 C23.8155711,8.34237492 7.52583489,24.5721058 7.52583489,44.5924177 C7.52583489,64.6131028 23.8155711,80.8428336 43.909903,80.8428336 C64.0042349,80.8428336 80.2943455,64.6131028 80.2943455,44.5924177 C80.2943455,24.5721058 64.0042349,8.34237492 43.909903,8.34237492 M43.909903,10.2548275 C62.9137838,10.2548275 78.3744477,25.6589131 78.3744477,44.5924177 C78.3744477,63.5262954 62.9137838,78.930008 43.909903,78.930008 C24.9060221,78.930008 9.4453583,63.5262954 9.4453583,44.5924177 C9.4453583,25.6589131 24.9060221,10.2548275 43.909903,10.2548275" id="Fill-22" fill="#EF8122"></path>
                <path d="M43.909903,11.388644 C25.5044221,11.388644 10.5833668,26.2547358 10.5833668,44.5924177 C10.5833668,62.9304728 25.5044221,77.7965645 43.909903,77.7965645 C62.3157583,77.7965645 77.2364391,62.9304728 77.2364391,44.5924177 C77.2364391,26.2547358 62.3157583,11.388644 43.909903,11.388644 M43.909903,12.1538489 C61.8626519,12.1538489 76.4687796,26.7058 76.4687796,44.5924177 C76.4687796,62.4794086 61.8626519,77.0313596 43.909903,77.0313596 C25.957154,77.0313596 11.3514009,62.4794086 11.3514009,44.5924177 C11.3514009,26.7058 25.957154,12.1538489 43.909903,12.1538489" id="Fill-24" fill="#EF8122"></path>
                <path d="M54.0673498,45.799882 L53.5378519,48.1932459 C53.4539711,48.5715578 53.1180732,48.8401817 52.7297498,48.8401817 L36.2168306,48.8401817 C35.8285072,48.8401817 35.4922349,48.5715578 35.4087285,48.1932459 L34.8788562,45.799882 L54.0673498,45.799882 Z" id="Fill-26" fill="#EDC316"></path>
            </g>
        </g>
    </g>
</svg>