<?xml version="1.0" encoding="UTF-8" standalone="no"?>
<svg width="193px" height="112px" viewBox="0 0 193 112" version="1.1" xmlns="http://www.w3.org/2000/svg" xmlns:xlink="http://www.w3.org/1999/xlink">
    <!-- Generator: Sketch 41.2 (35397) - http://www.bohemiancoding.com/sketch -->
    <title>Group 5</title>
    <desc>Created with Sketch.</desc>
    <defs>
        <polygon id="path-1" points="155.574061 0.124636442 0.24341591 0.124636442 0.24341591 111.960695 155.574061 111.960695 155.574061 0.124636442"></polygon>
        <polygon id="path-3" points="151.805959 48.9840633 151.805959 0.125603393 0.363420367 0.125603393 0.363420367 48.9840633"></polygon>
    </defs>
    <g id="Page-1" stroke="none" stroke-width="1" fill="none" fill-rule="evenodd">
        <g id="content-archive-copy-4" transform="translate(-349.000000, -257.000000)">
            <g id="Group-5" transform="translate(349.000000, 257.000000)">
                <g id="Page-1">
                    <g id="Group-3" transform="translate(8.482523, 0.054810)">
                        <mask id="mask-2" fill="white">
                            <use xlink:href="#path-1"></use>
                        </mask>
                        <g id="Clip-2"></g>
                        <path d="M143.562879,61.3160593 C141.970286,66.3205293 148.77539,76.0083721 145.325123,80.5142963 C142.15266,84.6484237 130.690651,81.0445293 126.194914,84.5280122 C125.382713,85.1554194 124.771971,86.1208237 124.267261,87.2911388 C122.235697,92.0568983 122.110579,100.164604 118.034727,102.1778 C113.3036,104.505755 104.288799,96.5733849 98.8939149,98.151409 C93.7937981,99.6491588 90.6446616,111.219223 85.0864886,111.924792 C79.5283156,112.647261 73.5417752,102.228499 68.2423191,102.055276 C62.6120447,101.88839 55.9087312,111.823393 50.7322717,110.750252 C45.1889431,109.605287 43.1849471,97.800737 38.379598,95.7220547 C33.1352784,93.4807112 22.9583718,99.8350572 18.8422276,96.6325344 C14.3655763,93.1448266 18.5029267,82.0585207 15.699453,77.6159709 L15.3028951,77.0878504 C11.8653527,72.8480989 0.935622252,71.187688 0.276106113,65.9445075 C-0.432184531,60.477404 10.5866124,55.9926045 12.2449456,50.7705489 C12.4188373,50.2572157 12.4888182,49.6847331 12.4909388,49.0700008 C12.5375927,43.8183704 7.38870139,35.6156026 10.4827015,31.5849868 C13.655165,27.4381845 25.1298976,31.0547538 29.6129108,27.5564835 C33.7481406,24.3370608 32.7026697,12.4247745 37.7858214,9.91725829 C42.5169485,7.57874064 51.5211463,15.5237857 56.9160307,13.9436491 C62.0140269,12.4353369 65.1631634,0.86316017 70.7213364,0.157591162 C76.2795094,-0.550090329 82.2660498,9.85810879 87.576109,10.0292198 C93.1957803,10.2087808 99.909697,0.261102783 105.075553,1.33213119 C110.621002,2.48977136 112.622878,14.2943211 117.430348,16.3624411 C122.672547,18.6185719 132.849453,12.247326 136.967718,15.4561863 C141.442249,18.9481191 137.315501,30.0238626 140.118975,34.4706373 C142.301104,37.9372204 149.464595,39.6926929 153.224473,42.6522803 C154.484127,43.6451469 155.359948,44.7795498 155.542322,46.1505506 C156.24001,51.6070918 145.221213,56.0897787 143.562879,61.3160593" id="Fill-1" fill="#FFD940" mask="url(#mask-2)"></path>
                    </g>
                    <path d="M9.00928735,33.0481885 C8.96687473,30.5681346 6.91622487,28.5950764 4.4287251,28.6352135 C1.94122532,28.6795756 -0.0394437305,30.7202333 0.000848252269,33.1981748 C0.0432608657,35.6761162 2.09391073,37.6533994 4.5814105,37.6090373 C7.06891028,37.5689002 9.05169996,35.52613 9.00928735,33.0481885" id="Fill-4" fill="#FFD940"></path>
                    <path d="M22.2591998,11.1715356 C23.9938757,11.1419608 25.3786476,9.7181479 25.3489587,7.98802509 C25.3192699,6.26001477 23.8899648,4.88267646 22.1531683,4.91225121 C20.4184924,4.93971348 19.0337206,6.36563887 19.0634094,8.0936492 C19.0930983,9.82165952 20.524524,11.2011103 22.2591998,11.1715356" id="Fill-6" fill="#FFD940"></path>
                    <path d="M5.77362907,69.5235713 C3.71025542,69.557371 2.06464602,71.2515816 2.09857611,73.3091392 C2.1325062,75.3666967 3.83537263,77.0059828 5.89874628,76.9679581 C7.96424055,76.9341584 9.60984995,75.2378353 9.57379923,73.1823902 C9.53986914,71.1269452 7.83912334,69.4855466 5.77362907,69.5235713" id="Fill-8" fill="#FFD940"></path>
                    <path d="M147.694292,92.5052637 C145.728467,92.5390634 144.159201,94.1508872 144.193131,96.113383 C144.227061,98.0716539 145.847223,99.6327781 147.815168,99.5968659 C149.780993,99.5672912 151.348139,97.9512424 151.316329,95.9908591 C151.282399,94.0347007 149.660117,92.4693515 147.694292,92.5052637" id="Fill-10" fill="#FFD940"></path>
                    <path d="M152.045402,61.3708693 C150.452808,66.3753393 157.257912,76.063182 153.807646,80.5691063 C150.635183,84.7032337 139.173174,81.0993393 134.677437,84.5828222 C133.865235,85.2102294 133.254494,86.1756337 132.749784,87.3459487 L43.3673214,81.5873226 L45.5748979,35.2162289 L161.706995,42.7070903 C162.96665,43.6999568 163.84247,44.8343597 164.024845,46.2053606 C164.722532,51.6619017 153.703735,56.1445887 152.045402,61.3708693" id="Fill-12" fill="#DBBD39"></path>
                    <g id="Group-16" transform="translate(41.000000, 31.000000)">
                        <mask id="mask-4" fill="white">
                            <use xlink:href="#path-3"></use>
                        </mask>
                        <g id="Clip-15"></g>
                        <path d="M3.54482197,2.54484985 L147.838895,0.126057891 C149.626586,0.0964831426 151.100425,1.51395861 151.130114,3.29478098 L151.806595,43.2904039 C151.836284,45.0691138 150.41122,46.5351763 148.625649,46.5668635 L4.32945531,48.983543 C2.54176366,49.0152302 1.07004597,47.5956423 1.04035714,45.8169324 L0.363875957,5.82130953 C0.334187128,4.04048715 1.75925094,2.5744246 3.54482197,2.54484985" id="Fill-14" fill="#FEFEFE" mask="url(#mask-4)"></path>
                    </g>
                </g>
                <path d="M78.928,50.128 C78.928,51.6 79.504,52.176 80.496,52.176 C81.424,52.176 82,51.696 82,50.64 C82,49.328 80.848,49.104 80.848,47.888 C80.848,46.768 81.264,46.032 82.032,44.976 C82.096,44.88 82.128,44.784 82.128,44.688 C82.128,44.4 81.904,44.208 81.648,44.208 C81.424,44.208 81.328,44.304 81.232,44.4 C79.824,45.872 78.928,47.92 78.928,50.128 Z M83.344,50.128 C83.344,51.6 83.92,52.176 84.912,52.176 C85.84,52.176 86.416,51.696 86.416,50.64 C86.416,49.328 85.264,49.104 85.264,47.888 C85.264,46.768 85.68,46.032 86.448,44.976 C86.512,44.88 86.544,44.784 86.544,44.688 C86.544,44.4 86.32,44.208 86.064,44.208 C85.84,44.208 85.744,44.304 85.648,44.4 C84.24,45.872 83.344,47.92 83.344,50.128 Z M95.728,51.024 C93.648,51.024 92.08,52.048 91.472,53.264 L91.472,44.24 C91.472,43.664 91.024,43.216 90.448,43.216 C89.872,43.216 89.424,43.664 89.424,44.24 L89.424,65.232 C89.424,65.808 89.872,66.256 90.448,66.256 C91.024,66.256 91.472,65.808 91.472,65.232 L91.472,57.328 C91.472,54.768 92.56,52.848 95.728,52.848 C98.832,52.848 99.568,54.576 99.568,57.104 L99.568,65.232 C99.568,65.808 100.016,66.256 100.592,66.256 C101.168,66.256 101.616,65.808 101.616,65.232 L101.616,56.688 C101.616,53.968 100.656,51.024 95.728,51.024 Z M104.496,58.704 C104.496,64.08 107.152,66.416 111.408,66.416 C114.256,66.416 115.92,65.104 116.4,64.624 C116.592,64.432 116.752,64.24 116.752,63.888 C116.752,63.376 116.336,62.96 115.824,62.96 C115.568,62.96 115.44,63.024 115.248,63.152 C114.352,63.824 113.264,64.528 111.408,64.528 C108.4,64.528 106.576,62.48 106.576,59.312 L115.92,59.312 C117.2,59.312 117.2,58.192 117.2,57.264 C117.2,55.088 116.208,51.024 111.088,51.024 C106.928,51.024 104.496,53.776 104.496,58.704 Z M115.184,57.52 L106.576,57.52 C106.768,54.672 108.304,52.88 111.088,52.88 C114.384,52.88 115.184,55.216 115.184,57.52 Z M121.392,43.216 C120.848,43.216 120.368,43.696 120.368,44.24 L120.368,62.512 C120.368,64.976 121.552,66.256 123.696,66.256 C124.208,66.256 124.656,65.84 124.656,65.296 C124.656,64.752 124.208,64.336 123.696,64.336 C122.832,64.336 122.416,63.792 122.416,62.512 L122.416,44.24 C122.416,43.696 121.968,43.216 121.392,43.216 Z M128.4,43.216 C127.856,43.216 127.376,43.696 127.376,44.24 L127.376,62.512 C127.376,64.976 128.56,66.256 130.704,66.256 C131.216,66.256 131.664,65.84 131.664,65.296 C131.664,64.752 131.216,64.336 130.704,64.336 C129.84,64.336 129.424,63.792 129.424,62.512 L129.424,44.24 C129.424,43.696 128.976,43.216 128.4,43.216 Z M140.144,51.024 C136.016,51.024 133.424,53.456 133.424,58.704 C133.424,63.952 136.016,66.416 140.144,66.416 C144.304,66.416 146.864,63.952 146.864,58.704 C146.864,53.456 144.304,51.024 140.144,51.024 Z M140.144,64.56 C137.2,64.56 135.504,62.8 135.504,58.704 C135.504,54.672 137.2,52.88 140.144,52.88 C143.088,52.88 144.784,54.672 144.784,58.704 C144.784,62.8 143.088,64.56 140.144,64.56 Z M155.12,46.256 C155.12,44.784 154.544,44.208 153.552,44.208 C152.624,44.208 152.048,44.688 152.048,45.744 C152.048,47.056 153.2,47.28 153.2,48.496 C153.2,49.616 152.784,50.352 152.016,51.408 C151.952,51.504 151.92,51.6 151.92,51.696 C151.92,51.984 152.144,52.176 152.4,52.176 C152.624,52.176 152.72,52.08 152.816,51.984 C154.224,50.512 155.12,48.464 155.12,46.256 Z M150.704,46.256 C150.704,44.784 150.128,44.208 149.136,44.208 C148.208,44.208 147.632,44.688 147.632,45.744 C147.632,47.056 148.784,47.28 148.784,48.496 C148.784,49.616 148.368,50.352 147.6,51.408 C147.536,51.504 147.504,51.6 147.504,51.696 C147.504,51.984 147.728,52.176 147.984,52.176 C148.208,52.176 148.304,52.08 148.4,51.984 C149.808,50.512 150.704,48.464 150.704,46.256 Z" id="“hello”" fill="#000000" transform="translate(117.024000, 54.816000) rotate(-1.000000) translate(-117.024000, -54.816000) "></path>
            </g>
        </g>
    </g>
</svg>