<?xml version="1.0" encoding="UTF-8" standalone="no"?>
<svg width="34px" height="34px" viewBox="0 0 34 34" version="1.1" xmlns="http://www.w3.org/2000/svg" xmlns:xlink="http://www.w3.org/1999/xlink">
    <!-- Generator: Sketch 41.2 (35397) - http://www.bohemiancoding.com/sketch -->
    <title>Group 13</title>
    <desc>Created with Sketch.</desc>
    <defs></defs>
    <g id="Page-1" stroke="none" stroke-width="1" fill="none" fill-rule="evenodd">
        <g id="content-archive-copy-4" transform="translate(-967.000000, -390.000000)">
            <g id="Group-13" transform="translate(967.000000, 390.000000)">
                <ellipse id="Oval-5-Copy-17" fill="#FFFFFF" cx="17" cy="17" rx="17" ry="17"></ellipse>
                <path d="M21.6361765,15.5039942 L21.6361765,15.5039942 L20.6666667,15.5039942 L20.6666667,12.7000726 C20.6666667,12.5962237 20.7734314,10 17.8616667,10 L16.4597059,10 C13.5479412,10 13.6568627,12.7000726 13.6568627,12.8039216 L13.6568627,15.4001452 L12.5784314,15.4001452 C12.0392157,15.4001452 11.5,15.815541 11.5,16.3347858 L11.5,22.3580247 C11.5,22.8772694 12.0392157,23.2926652 12.5784314,23.2926652 L21.5283333,23.2926652 C22.067549,23.2926652 22.5,22.8772694 22.5,22.3580247 L22.5,16.3347858 C22.5,15.91939 22.067549,15.5039942 21.6361765,15.5039942 L21.6361765,15.5039942 Z M18.8352697,15.4001452 L15.5999756,15.4001452 L15.5999756,12.7000726 C15.5999756,12.2846768 15.923505,11.869281 16.4627207,11.869281 L17.8646815,11.869281 C18.4038972,11.869281 18.728505,12.2846768 18.728505,12.7000726 L18.728505,15.4001452 L18.8352697,15.4001452 Z" id="Fill-4-Copy-22" fill="#233C41"></path>
            </g>
        </g>
    </g>
</svg>