<?xml version="1.0" encoding="UTF-8" standalone="no"?>
<svg width="82px" height="82px" viewBox="0 0 82 82" version="1.1" xmlns="http://www.w3.org/2000/svg" xmlns:xlink="http://www.w3.org/1999/xlink">
    <!-- Generator: Sketch 41.2 (35397) - http://www.bohemiancoding.com/sketch -->
    <title>Group 12</title>
    <desc>Created with Sketch.</desc>
    <defs></defs>
    <g id="Page-1" stroke="none" stroke-width="1" fill="none" fill-rule="evenodd">
        <g id="content-archive-copy-4" transform="translate(-1065.000000, -366.000000)">
            <g id="Group-12" transform="translate(1065.000000, 366.000000)">
                <circle id="Oval-5-Copy-16" fill="#FFFFFF" cx="41" cy="41" r="41"></circle>
                <path d="M50.8117233,38.3008692 L50.8117233,38.3008692 L48.8211138,38.3008692 L48.8211138,32.5438226 C48.8211138,32.3305987 49.0403244,27 43.061853,27 L40.1833297,27 C34.2048582,27 34.4284974,32.5438226 34.4284974,32.7570466 L34.4284974,38.0876452 L32.2142487,38.0876452 C31.1071243,38.0876452 30,38.940541 30,40.0066608 L30,52.3736497 C30,53.4397694 31.1071243,54.2926652 32.2142487,54.2926652 L50.5902985,54.2926652 C51.6974228,54.2926652 52.5853365,53.4397694 52.5853365,52.3736497 L52.5853365,40.0066608 C52.5853365,39.153765 51.6974228,38.3008692 50.8117233,38.3008692 L50.8117233,38.3008692 Z M44.892746,38.2496142 L38.25,38.2496142 L38.25,32.7057916 C38.25,31.8528958 38.9142746,31 40.0213989,31 L42.8999222,31 C44.0070466,31 44.6735354,31.8528958 44.6735354,32.7057916 L44.6735354,38.2496142 L44.892746,38.2496142 Z" id="Fill-4-Copy-23" fill="#233C41"></path>
            </g>
        </g>
    </g>
</svg>