<?xml version="1.0" encoding="UTF-8" standalone="no"?>
<svg width="11px" height="14px" viewBox="0 0 11 14" version="1.1" xmlns="http://www.w3.org/2000/svg" xmlns:xlink="http://www.w3.org/1999/xlink">
    <!-- Generator: Sketch 41.2 (35397) - http://www.bohemiancoding.com/sketch -->
    <title>Fill 4 Copy 22</title>
    <desc>Created with Sketch.</desc>
    <defs></defs>
    <g id="Page-1" stroke="none" stroke-width="1" fill="none" fill-rule="evenodd">
        <g id="content-archive-copy-4" transform="translate(-978.000000, -400.000000)" fill="#233C41">
            <path d="M988.136176,405.503994 L988.136176,405.503994 L987.166667,405.503994 L987.166667,402.700073 C987.166667,402.596224 987.273431,400 984.361667,400 L982.959706,400 C980.047941,400 980.156863,402.700073 980.156863,402.803922 L980.156863,405.400145 L979.078431,405.400145 C978.539216,405.400145 978,405.815541 978,406.334786 L978,412.358025 C978,412.877269 978.539216,413.292665 979.078431,413.292665 L988.028333,413.292665 C988.567549,413.292665 989,412.877269 989,412.358025 L989,406.334786 C989,405.91939 988.567549,405.503994 988.136176,405.503994 L988.136176,405.503994 Z M985.33527,405.400145 L982.099976,405.400145 L982.099976,402.700073 C982.099976,402.284677 982.423505,401.869281 982.962721,401.869281 L984.364681,401.869281 C984.903897,401.869281 985.228505,402.284677 985.228505,402.700073 L985.228505,405.400145 L985.33527,405.400145 Z" id="Fill-4-Copy-22"></path>
        </g>
    </g>
</svg>