<?xml version="1.0" encoding="UTF-8" standalone="no"?>
<svg width="81px" height="81px" viewBox="0 0 81 81" version="1.1" xmlns="http://www.w3.org/2000/svg" xmlns:xlink="http://www.w3.org/1999/xlink">
    <!-- Generator: Sketch 41.2 (35397) - http://www.bohemiancoding.com/sketch -->
    <title>Group 19</title>
    <desc>Created with Sketch.</desc>
    <defs></defs>
    <g id="Page-1" stroke="none" stroke-width="1" fill="none" fill-rule="evenodd">
        <g id="content-archive-copy-4" transform="translate(-1027.000000, -367.000000)">
            <g id="Group-Copy-4" transform="translate(1027.000000, 367.000000)">
                <g id="Group-19">
                    <rect id="Rectangle-2" fill="#FED940" x="0" y="0" width="81" height="81" rx="40.5"></rect>
                    <path d="M32.432,37.904 C31.344,37.904 30.656,38.256 30.144,38.944 C29.744,38.32 29.088,37.904 27.776,37.904 C26.704,37.904 26.032,38.4 25.728,38.864 C25.728,38.384 25.344,38 24.864,38 C24.384,38 24,38.384 24,38.864 L24,44.688 C24,45.168 24.368,45.52 24.864,45.52 C25.36,45.52 25.728,45.168 25.728,44.688 L25.728,41.12 C25.728,40.176 26.128,39.472 27.328,39.472 C28.368,39.472 28.736,40.096 28.736,41.008 L28.736,44.688 C28.736,45.168 29.088,45.52 29.6,45.52 C30.08,45.52 30.464,45.168 30.464,44.688 L30.464,40.992 C30.464,40.096 30.912,39.472 32.064,39.472 C33.104,39.472 33.472,40.096 33.472,41.008 L33.472,44.688 C33.472,45.168 33.824,45.52 34.336,45.52 C34.816,45.52 35.2,45.168 35.2,44.688 L35.2,40.688 C35.2,39.296 34.608,37.904 32.432,37.904 Z M39.584,39.44 C40.512,39.44 41.04,39.92 41.04,40.64 L41.04,40.928 L38.944,40.928 C37.552,40.928 36.352,41.696 36.352,43.184 C36.352,44.624 37.392,45.6 38.96,45.6 C39.92,45.6 40.624,45.36 41.056,44.672 C41.056,45.136 41.44,45.52 41.904,45.52 C42.368,45.52 42.752,45.136 42.752,44.672 L42.752,40.576 C42.752,38.88 41.568,37.904 39.584,37.904 C38.208,37.904 37.408,38.432 36.96,38.928 C36.816,39.088 36.752,39.28 36.752,39.456 C36.752,39.872 37.088,40.208 37.504,40.208 C37.696,40.208 37.824,40.16 37.984,40.048 C38.384,39.76 38.88,39.44 39.584,39.44 Z M39.408,44.16 C38.512,44.16 38.08,43.792 38.08,43.184 C38.08,42.608 38.464,42.272 39.168,42.272 L41.04,42.272 L41.04,42.72 C41.04,43.616 40.256,44.16 39.408,44.16 Z M49.648,45.52 C50.112,45.52 50.48,45.152 50.48,44.688 C50.48,44.528 50.432,44.352 50.304,44.176 L47.952,41.088 L50.048,39.488 C50.256,39.328 50.368,39.072 50.368,38.832 C50.368,38.368 50,38 49.536,38 C49.344,38 49.184,38.048 48.976,38.208 L46.08,40.48 L46.08,34.832 C46.08,34.352 45.696,34 45.216,34 C44.72,34 44.352,34.352 44.352,34.832 L44.352,44.688 C44.352,45.168 44.72,45.52 45.216,45.52 C45.696,45.52 46.08,45.168 46.08,44.688 L46.08,42.384 L46.592,41.984 L48.976,45.184 C49.12,45.376 49.344,45.52 49.648,45.52 Z M51.2,41.728 C51.2,44.4 52.576,45.6 54.8,45.6 C56.256,45.6 57.104,44.976 57.376,44.72 C57.52,44.592 57.648,44.384 57.648,44.128 C57.648,43.712 57.312,43.376 56.896,43.376 C56.688,43.376 56.56,43.44 56.384,43.552 C56,43.808 55.504,44.048 54.8,44.048 C53.744,44.048 52.928,43.52 52.928,42.368 L56.88,42.368 C57.856,42.368 57.856,41.68 57.856,41.088 C57.856,39.984 57.36,37.904 54.656,37.904 C52.48,37.904 51.2,39.28 51.2,41.728 Z M54.656,39.376 C55.696,39.376 56.144,40.144 56.144,40.928 L52.976,40.928 C53.056,39.904 53.728,39.376 54.656,39.376 Z" id="make" fill="#233C41"></path>
                </g>
            </g>
        </g>
    </g>
</svg>