<svg xmlns="http://www.w3.org/2000/svg" viewBox="0 0 45.9 45.9"><defs><style>.cls-1{isolation:isolate;}.cls-2{fill:#fed940;}.cls-3{fill:#f8ca00;}.cls-3,.cls-4{mix-blend-mode:multiply;}.cls-5{fill:#fe8233;}</style></defs><title>Asset 1</title><g class="cls-1"><g id="Layer_2" data-name="Layer 2"><g id="Layer_1-2" data-name="Layer 1"><circle class="cls-2" cx="22.95" cy="22.95" r="22.95" transform="translate(-3.82 4.6) rotate(-10.56)"/><path class="cls-3" d="M23,44.07A20.79,20.79,0,1,1,43.74,23.28,20.81,20.81,0,0,1,23,44.07ZM23,4.41A18.88,18.88,0,1,0,41.83,23.28,18.9,18.9,0,0,0,23,4.41Z"/><g class="cls-4"><path class="cls-5" d="M29.73,32.82a1.75,1.75,0,0,1-.55.09,2,2,0,0,1-.83-.2L23,30l-5.29,2.83a1.65,1.65,0,0,1-.28.13,1.77,1.77,0,0,1-1.58-.23A1.81,1.81,0,0,1,15.17,31l1-5.93L11.8,20.88a1.76,1.76,0,0,1,.65-2.93l.3-.07L18.7,17l2.6-5.41a1.77,1.77,0,0,1,1-.9,1.79,1.79,0,0,1,2.17.88l2.68,5.37,5.95.82a1.76,1.76,0,0,1,1.44,1.18,1.8,1.8,0,0,1-.45,1.8l-4.26,4.23,1.06,5.9a1.78,1.78,0,0,1-1.17,2"/></g></g></g></g></svg>