<?xml version="1.0" encoding="UTF-8" standalone="no"?>
<svg width="34px" height="34px" viewBox="0 0 34 34" version="1.1" xmlns="http://www.w3.org/2000/svg" xmlns:xlink="http://www.w3.org/1999/xlink">
    <!-- Generator: Sketch 41.2 (35397) - http://www.bohemiancoding.com/sketch -->
    <title>Group</title>
    <desc>Created with Sketch.</desc>
    <defs></defs>
    <g id="Page-1" stroke="none" stroke-width="1" fill="none" fill-rule="evenodd">
        <g id="content-archive-copy-4" transform="translate(-523.000000, -346.000000)">
            <g id="Group" transform="translate(523.000000, 346.000000)">
                <ellipse id="Oval-5-Copy-21" fill="#FFFFFF" cx="17" cy="17" rx="17" ry="17"></ellipse>
                <g id="star" transform="translate(7.000000, 5.200012)">
                    <g id="Group-3" transform="translate(0.000000, 2.214815)" fill="#DCDCDC">
                        <path d="M5.924688,20.4446148 C5.252688,20.4446148 4.664688,20.2742444 4.160688,19.8483185 C3.236688,19.166837 2.732688,17.9742444 2.900688,16.7816519 L3.488688,13.3742444 L0.968688,11.0742444 C0.128688,10.2223926 -0.207312,9.0298 0.128688,7.83720741 C0.464688,6.90017037 1.136688,6.1335037 2.060688,5.79276296 C2.312688,5.79276296 2.480688,5.70757778 2.648688,5.70757778 L6.008688,5.19646667 L7.436688,2.1298 C7.772688,1.36313333 8.444688,0.766837037 9.200688,0.511281481 C9.536688,0.426096296 9.872688,0.340911111 10.208688,0.340911111 C11.384688,0.340911111 12.476688,1.02239259 12.980688,2.04461481 L14.492688,5.11128148 L17.852688,5.53720741 C19.028688,5.70757778 20.036688,6.47424444 20.372688,7.66683704 L20.372688,7.75202222 C20.708688,8.85942963 20.372688,10.1363556 19.616688,10.9038741 L17.180688,13.2890593 L17.768688,16.6112815 C18.020688,17.8030222 17.516688,18.9964667 16.592688,19.6779481 C16.340688,19.8483185 16.005528,20.0186889 15.752688,20.1038741 C15.416688,20.1890593 15.080688,20.2742444 14.745528,20.2742444 L14.660688,20.2742444 C14.156688,20.2742444 13.736688,20.1890593 13.316688,19.9326519 L10.292688,18.4001704 L7.352688,20.0186889 C7.184688,20.1038741 7.016688,20.1890593 6.848688,20.2742444 C6.596688,20.4446148 6.260688,20.4446148 5.924688,20.4446148" id="Fill-1"></path>
                    </g>
                    <g id="Group-6" transform="translate(0.000000, 0.511111)" fill="#FE8233">
                        <path d="M5.924688,20.4446148 C5.252688,20.4446148 4.664688,20.2742444 4.160688,19.8483185 C3.236688,19.166837 2.732688,17.9742444 2.900688,16.7816519 L3.488688,13.3742444 L0.968688,11.0742444 C0.128688,10.2223926 -0.207312,9.0298 0.128688,7.83720741 C0.464688,6.90017037 1.136688,6.1335037 2.060688,5.79276296 C2.312688,5.79276296 2.480688,5.70757778 2.648688,5.70757778 L6.008688,5.19646667 L7.436688,2.1298 C7.772688,1.36313333 8.444688,0.766837037 9.200688,0.511281481 C9.536688,0.426096296 9.872688,0.340911111 10.208688,0.340911111 C11.384688,0.340911111 12.476688,1.02239259 12.980688,2.04461481 L14.492688,5.11128148 L17.852688,5.53720741 C19.028688,5.70757778 20.036688,6.47424444 20.372688,7.66683704 L20.372688,7.75202222 C20.708688,8.85942963 20.372688,10.1372074 19.616688,10.9038741 L17.180688,13.2890593 L17.768688,16.6112815 C18.020688,17.8030222 17.516688,18.9964667 16.592688,19.6779481 C16.340688,19.8483185 16.005528,20.0186889 15.752688,20.1038741 C15.416688,20.1890593 15.080688,20.2742444 14.745528,20.2742444 L14.660688,20.2742444 C14.156688,20.2742444 13.736688,20.1890593 13.316688,19.9326519 L10.292688,18.4001704 L7.352688,20.0186889 C7.184688,20.1038741 7.016688,20.1890593 6.848688,20.2742444 C6.596688,20.4446148 6.260688,20.4446148 5.924688,20.4446148" id="Fill-4"></path>
                    </g>
                    <path d="M19.448772,8.5186037 C19.196772,7.75193704 18.524772,7.15564074 17.768772,7.07045556 L13.904772,6.55934444 L12.140772,2.98156667 C11.804772,2.30008519 11.048772,1.78897407 10.208772,1.78897407 C9.956772,1.78897407 9.788772,1.78897407 9.536772,1.87415926 C9.032772,2.04452963 8.528772,2.47045556 8.276772,2.98156667 L6.596772,6.55934444 L2.816772,7.15564074 C2.648772,7.24082593 2.564772,7.24082593 2.396772,7.24082593 C1.808772,7.49638148 1.304772,8.00749259 1.136772,8.68897407 C0.884772,9.45564074 1.136772,10.3074926 1.724772,10.9037889 L4.496772,13.5445296 L3.824772,17.4630481 C3.740772,18.2297148 3.992772,19.0815667 4.664772,19.5926778 C5.000772,19.8482333 5.420772,20.0186037 5.840772,20.0186037 C6.092772,20.0186037 6.260772,20.0186037 6.512772,19.9334185 C6.596772,19.9334185 6.764772,19.8482333 6.848772,19.7630481 L10.292772,17.8889741 L13.736772,19.677863 C14.072772,19.8482333 14.324772,19.9334185 14.744772,19.9334185 C14.996772,19.9334185 15.164772,19.9334185 15.416772,19.8482333 C15.668772,19.7630481 15.836772,19.677863 16.004772,19.5074926 C16.676772,18.9963815 17.012772,18.2297148 16.844772,17.377863 L16.172772,13.4593444 L18.944772,10.6482333 C19.532772,10.1371222 19.700772,9.28527037 19.448772,8.5186037" id="Fill-7" fill="#FEE33E"></path>
                </g>
            </g>
        </g>
    </g>
</svg>