<?xml version="1.0" encoding="UTF-8" standalone="no"?>
<svg width="34px" height="34px" viewBox="0 0 34 34" version="1.1" xmlns="http://www.w3.org/2000/svg" xmlns:xlink="http://www.w3.org/1999/xlink">
    <!-- Generator: Sketch 41.2 (35397) - http://www.bohemiancoding.com/sketch -->
    <title>Group 6</title>
    <desc>Created with Sketch.</desc>
    <defs></defs>
    <g id="Page-1" stroke="none" stroke-width="1" fill="none" fill-rule="evenodd">
        <g id="content-archive-copy-4" transform="translate(-680.000000, -942.000000)">
            <g id="Group-6" transform="translate(680.000000, 942.000000)">
                <ellipse id="Oval-5-Copy-37" fill="#FFE986" cx="17" cy="17" rx="16.75" ry="16.75"></ellipse>
                <g id="Page-1-Copy-2" transform="translate(9.000000, 11.000000)" fill="#233C41">
                    <path d="M16.0009,2.2297 C15.9579,2.4037 15.8679,2.5507 15.7319,2.6747 C15.7319,2.6747 7.4999,10.9257 7.4669,10.9587 L6.5039,11.9217 C6.4599,11.9667 6.4139,12.0027 6.3659,12.0357 C6.1909,12.1997 5.9759,12.2847 5.7189,12.2847 C5.4379,12.2847 5.1999,12.1877 5.0059,11.9927 L4.0409,11.0277 C3.9289,10.9157 0.2849,7.1147 0.2849,7.1147 C0.0939,6.9247 -9.99999993e-05,6.6887 -9.99999993e-05,6.4097 C-9.99999993e-05,6.1287 0.0939,5.8937 0.2849,5.7047 L1.2479,4.7397 C1.4429,4.5467 1.6799,4.4487 1.9609,4.4487 C2.2419,4.4487 2.4739,4.5467 2.6579,4.7397 L5.7889,7.8707 L13.3589,0.3017 C13.6349,0.0247 13.9539,-0.0613 14.3139,0.0417 C14.4879,0.0847 14.6389,0.1707 14.7699,0.3017 L15.7339,1.2667 C16.0139,1.5457 16.1039,1.8687 16.0009,2.2297" id="Fill-1"></path>
                </g>
            </g>
        </g>
    </g>
</svg>