<?xml version="1.0" encoding="utf-8"?>
<!-- Generator: Adobe Illustrator 20.1.0, SVG Export Plug-In . SVG Version: 6.00 Build 0)  -->
<svg version="1.1" id="Layer_1" xmlns="http://www.w3.org/2000/svg" xmlns:xlink="http://www.w3.org/1999/xlink" x="0px" y="0px"
	 viewBox="0 0 562.3 562.3" style="enable-background:new 0 0 562.3 562.3;" xml:space="preserve">
<style type="text/css">
	.st0{fill:#304A5C;}
	.st1{fill:#38576B;}
	.st2{opacity:0.5;fill:none;stroke:#7AB9E6;stroke-width:3;stroke-miterlimit:10;}
	.st3{fill:#FFB66F;}
	.st4{fill:#FFFFFF;}
	.st5{fill:#57473E;}
	.st6{opacity:8.000000e-02;}
	.st7{fill:#515451;}
	.st8{fill:#626662;}
	.st9{fill:#5D5C58;}
	.st10{fill:#6B6A65;}
	.st11{fill:#FFCE9E;}
	.st12{opacity:0.4;}
	.st13{fill:#FF6139;}
	.st14{fill:#CECDCC;}
	.st15{fill:#E8E6E3;}
	.st16{fill:none;}
	.st17{fill:#FF9F05;}
	.st18{fill:#F09605;}
	.st19{fill:none;stroke:#FFB570;stroke-width:13.2524;stroke-linecap:round;stroke-miterlimit:10;}
	.st20{fill:#7AB9E6;}
	.st21{fill:#EBEBEB;}
	.st22{fill:#7F58A8;}
	.st23{fill:none;stroke:#A270D6;stroke-width:2.2954;stroke-miterlimit:10;}
	.st24{fill:none;stroke:#FF802A;stroke-width:2.2954;stroke-miterlimit:10;}
	.st25{fill:#83E700;}
	.st26{fill:#E76FCA;}
	.st27{fill:#2AE7D1;}
	.st28{fill:#337BE7;}
	.st29{fill:#375A70;}
	.st30{fill:#068888;}
	.st31{fill:#09C6AB;}
	.st32{fill:#F7E74A;}
	.st33{fill:#CFC13E;}
	.st34{fill:#079E89;}
	.st35{fill:#045959;}
	.st36{opacity:0.15;fill:#96C4E6;}
	.st37{opacity:0.5;}
	.st38{opacity:0.15;}
	.st39{fill:#96C4E6;}
	.st40{fill:#FFB570;}
	.st41{fill:#A270D6;}
	.st42{fill:#FF802A;}
	.st43{fill:#B3672C;}
	.st44{fill:#494C49;}
	.st45{fill:#5C5C58;}
	.st46{opacity:0.12;fill:#221F1F;}
	.st47{opacity:0.2;fill:#FFFFFF;}
	.st48{opacity:5.000000e-02;fill:#FFFFFF;}
	.st49{fill:#986D46;}
	.st50{fill:#FF8A36;}
	.st51{fill:#ED7726;}
	.st52{opacity:6.000000e-02;}
	.st53{fill:#D0B799;}
	.st54{fill:#AA967F;}
	.st55{fill:#FFA05C;}
	.st56{fill:#915424;}
	.st57{fill:#A67653;}
	.st58{fill:#563219;}
	.st59{opacity:0.2;}
	.st60{opacity:0.35;}
	.st61{opacity:0.12;}
	.st62{fill:#FCDEC8;}
	.st63{fill:#DD7A31;}
	.st64{fill:#F8964E;}
	.st65{fill:#E1AB7E;}
	.st66{fill:#634B32;}
	.st67{fill:#735E4C;}
	.st68{opacity:0.4;fill:none;stroke:#000000;stroke-width:2.9903;stroke-linecap:round;stroke-miterlimit:10;}
	.st69{opacity:0.15;fill:none;stroke:#000000;stroke-width:1.9935;stroke-linecap:round;stroke-miterlimit:10;}
	.st70{opacity:0.4;fill:none;stroke:#000000;stroke-width:5;stroke-linecap:round;stroke-miterlimit:10;}
	.st71{fill:#8B5022;}
	.st72{fill:#71492D;}
	.st73{fill:#EE6F75;}
	.st74{fill:#D56369;}
	.st75{opacity:0.15;fill:none;stroke:#000000;stroke-linecap:round;stroke-miterlimit:10;}
	.st76{opacity:0.4;fill:none;stroke:#000000;stroke-width:3;stroke-linecap:round;stroke-miterlimit:10;}
	.st77{opacity:0.15;fill:none;stroke:#000000;stroke-width:2;stroke-linecap:round;stroke-miterlimit:10;}
	.st78{fill:none;stroke:#986D46;stroke-width:4;stroke-linecap:round;stroke-miterlimit:10;}
	.st79{opacity:0.4;fill:none;stroke:#000000;stroke-width:4;stroke-linecap:round;stroke-miterlimit:10;}
	.st80{fill:#C69DE8;}
	.st81{fill:#F5BE33;}
	.st82{fill:#ED4C87;}
	.st83{fill:none;stroke:#F75A52;stroke-width:3.0116;stroke-miterlimit:10;}
	.st84{fill:#F75A52;}
	.st85{fill:#96DE44;}
	.st86{fill:#2F5C8F;}
	.st87{fill:none;stroke:#4D96E8;stroke-width:9.0349;stroke-miterlimit:10;}
	.st88{fill:none;stroke:#407DC2;stroke-width:6.0233;stroke-miterlimit:10;}
	.st89{fill:#7C8088;}
	.st90{fill:#E6E6E6;}
	.st91{fill:#80739A;}
	.st92{fill:#6DC320;}
	.st93{fill:#7FE425;}
	.st94{fill:#46523B;}
	.st95{fill:#FF5F45;}
	.st96{fill:none;stroke:#B4BCCD;stroke-width:4.0712;stroke-miterlimit:10;}
	.st97{fill:none;stroke:#FF802A;stroke-width:4.0712;stroke-miterlimit:10;}
	.st98{fill:#F2F2F2;}
	.st99{fill:#68BD61;}
	.st100{fill:#A0A0A0;}
	.st101{fill:#D1D1D1;}
	.st102{fill:#70CACC;}
	.st103{fill:none;stroke:#EDECED;stroke-width:2.8233;stroke-miterlimit:10;}
	.st104{fill:#FFD000;}
	.st105{clip-path:url(#SVGID_2_);}
	.st106{clip-path:url(#SVGID_4_);}
	.st107{fill:#BFBFBF;}
</style>
<g>
	<path class="st0" d="M27,281.1c0,8.6-12.4,17.8-11.6,26.2c0.8,8.6,14.8,15.1,16.4,23.4c1.7,8.4-8.7,19.8-6.2,27.9
		c2.5,8.2,17.4,11.9,20.7,19.8c3.3,7.9-4.6,21.1-0.6,28.6c4,7.5,19.4,8.3,24.1,15.3c4.8,7.1-0.4,21.6,5,28.2
		c5.4,6.6,20.6,4.3,26.7,10.3c6,6,3.7,21.3,10.3,26.7c6.6,5.4,21.1,0.2,28.2,5c7.1,4.7,7.8,20.1,15.3,24.1c7.5,4,20.7-3.9,28.6-0.6
		c7.8,3.3,11.6,18.2,19.8,20.7c8.1,2.5,19.5-7.9,27.9-6.2c8.3,1.6,14.9,15.6,23.4,16.4c8.4,0.8,17.5-11.6,26.2-11.6
		c8.6,0,17.8,12.4,26.2,11.6c8.6-0.8,15.1-14.8,23.4-16.4c8.4-1.7,19.8,8.7,27.9,6.2c8.2-2.5,11.9-17.4,19.8-20.7
		c7.9-3.3,21.1,4.6,28.6,0.6c7.5-4,8.3-19.4,15.3-24.1c7.1-4.8,21.6,0.4,28.2-5c6.6-5.4,4.3-20.6,10.3-26.7c6-6,21.3-3.7,26.7-10.3
		c5.4-6.6,0.2-21.1,5-28.2c4.7-7.1,20.1-7.8,24.1-15.3c4-7.5-3.9-20.7-0.6-28.6c3.3-7.8,18.2-11.6,20.7-19.8
		c2.5-8.1-7.9-19.5-6.2-27.9c1.6-8.3,15.6-14.9,16.4-23.4c0.8-8.4-11.6-17.5-11.6-26.2c0-8.6,12.4-17.8,11.6-26.2
		c-0.8-8.6-14.8-15.1-16.4-23.4c-1.7-8.4,8.7-19.8,6.2-27.9c-2.5-8.2-17.4-11.9-20.7-19.8c-3.3-7.9,4.6-21.1,0.6-28.6
		c-4-7.5-19.4-8.3-24.1-15.3c-4.8-7.1,0.4-21.6-5-28.2c-5.4-6.6-20.6-4.3-26.7-10.3c-6-6-3.7-21.3-10.3-26.7
		c-6.6-5.4-21.1-0.2-28.2-5c-7.1-4.7-7.8-20.1-15.3-24.1c-7.5-4-20.7,3.9-28.6,0.6c-7.8-3.3-11.6-18.2-19.8-20.7
		c-8.1-2.5-19.5,7.9-27.9,6.2c-8.3-1.6-14.9-15.6-23.4-16.4c-8.4-0.8-17.5,11.6-26.2,11.6c-8.6,0-17.8-12.4-26.2-11.6
		c-8.6,0.8-15.1,14.8-23.4,16.4c-8.4,1.7-19.8-8.7-27.9-6.2c-8.2,2.5-11.9,17.4-19.8,20.7c-7.9,3.3-21.1-4.6-28.6-0.6
		c-7.5,4-8.3,19.4-15.3,24.1c-7.1,4.8-21.6-0.4-28.2,5c-6.6,5.4-4.3,20.6-10.3,26.7c-6,6-21.3,3.7-26.7,10.3
		c-5.4,6.6-0.2,21.1-5,28.2c-4.7,7.1-20.1,7.8-24.1,15.3c-4,7.5,3.9,20.7,0.6,28.6c-3.3,7.8-18.2,11.6-20.7,19.8
		c-2.5,8.1,7.9,19.5,6.2,27.9c-1.6,8.3-15.6,14.9-16.4,23.4C14.6,263.4,27,272.5,27,281.1z"/>
	<path class="st1" d="M121.1,281.1c0,5.4-4.3,10.9-3.8,16.1c0.5,5.3,5.8,9.9,6.8,15.1c1,5.2-2.1,11.5-0.6,16.6
		c1.5,5.1,7.6,8.6,9.7,13.5c2,4.9,0.2,11.7,2.7,16.3c2.5,4.7,9.2,6.9,12.1,11.3c3,4.4,2.5,11.4,5.8,15.5c3.4,4.1,10.3,5,14.1,8.7
		c3.8,3.8,4.6,10.7,8.7,14.1c4.1,3.4,11.1,2.9,15.5,5.8c4.4,2.9,6.6,9.6,11.3,12.1c4.7,2.5,11.4,0.7,16.3,2.7
		c4.9,2,8.4,8.1,13.5,9.7c5.1,1.5,11.3-1.6,16.6-0.6c5.2,1,9.8,6.3,15.1,6.8c5.2,0.5,10.8-3.8,16.1-3.8c5.4,0,10.9,4.3,16.1,3.8
		c5.3-0.5,9.9-5.8,15.1-6.8c5.2-1,11.5,2.1,16.6,0.6c5.1-1.5,8.6-7.6,13.5-9.7c4.9-2,11.7-0.2,16.3-2.7c4.7-2.5,6.9-9.2,11.3-12.1
		c4.4-3,11.4-2.5,15.5-5.8c4.1-3.4,5-10.3,8.7-14.1c3.8-3.8,10.7-4.6,14.1-8.7c3.4-4.1,2.9-11.1,5.8-15.5c2.9-4.4,9.6-6.6,12.1-11.3
		c2.5-4.7,0.7-11.4,2.7-16.3c2-4.9,8.1-8.4,9.7-13.5c1.5-5.1-1.6-11.3-0.6-16.6c1-5.2,6.3-9.8,6.8-15.1c0.5-5.2-3.8-10.8-3.8-16.1
		c0-5.4,4.3-10.9,3.8-16.1c-0.5-5.3-5.8-9.9-6.8-15.1c-1-5.2,2.1-11.5,0.6-16.6c-1.5-5.1-7.6-8.6-9.7-13.5c-2-4.9-0.2-11.7-2.7-16.3
		c-2.5-4.7-9.2-6.9-12.1-11.3c-3-4.4-2.5-11.4-5.8-15.5c-3.4-4.1-10.3-5-14.1-8.7s-4.6-10.7-8.7-14.1c-4.1-3.4-11.1-2.9-15.5-5.8
		c-4.4-2.9-6.6-9.6-11.3-12.1c-4.7-2.5-11.4-0.7-16.3-2.7c-4.9-2-8.4-8.1-13.5-9.7c-5.1-1.5-11.3,1.6-16.6,0.6
		c-5.2-1-9.8-6.3-15.1-6.8c-5.2-0.5-10.8,3.8-16.1,3.8c-5.4,0-10.9-4.3-16.1-3.8c-5.3,0.5-9.9,5.8-15.1,6.8
		c-5.2,1-11.5-2.1-16.6-0.6c-5.1,1.5-8.6,7.6-13.5,9.7c-4.9,2-11.7,0.2-16.3,2.7c-4.7,2.5-6.9,9.2-11.3,12.1
		c-4.4,3-11.4,2.5-15.5,5.8c-4.1,3.4-5,10.3-8.7,14.1c-3.8,3.8-10.7,4.6-14.1,8.7c-3.4,4.1-2.9,11.1-5.8,15.5
		c-2.9,4.4-9.6,6.6-12.1,11.3c-2.5,4.7-0.7,11.4-2.7,16.3c-2,4.9-8.1,8.4-9.7,13.5c-1.5,5.1,1.6,11.3,0.6,16.6
		c-1,5.2-6.3,9.8-6.8,15.1C116.8,270.2,121.1,275.8,121.1,281.1z"/>
</g>
</svg>
