<?xml version="1.0" encoding="utf-8"?>
<!-- Generator: Adobe Illustrator 20.1.0, SVG Export Plug-In . SVG Version: 6.00 Build 0)  -->
<svg version="1.1" id="Layer_1" xmlns="http://www.w3.org/2000/svg" xmlns:xlink="http://www.w3.org/1999/xlink" x="0px" y="0px"
	 viewBox="0 0 650.4 683.8" style="enable-background:new 0 0 650.4 683.8;" xml:space="preserve">
<style type="text/css">
	.st0{fill:#304A5C;}
	.st1{fill:#38576B;}
	.st2{opacity:0.5;fill:none;stroke:#7AB9E6;stroke-width:3;stroke-miterlimit:10;}
	.st3{fill:#FFB66F;}
	.st4{fill:#FFFFFF;}
	.st5{fill:#57473E;}
	.st6{opacity:8.000000e-02;}
	.st7{fill:#515451;}
	.st8{fill:#626662;}
	.st9{fill:#5D5C58;}
	.st10{fill:#6B6A65;}
	.st11{fill:#FFCE9E;}
	.st12{opacity:0.4;}
	.st13{fill:#FF6139;}
	.st14{fill:#CECDCC;}
	.st15{fill:#E8E6E3;}
	.st16{fill:none;}
	.st17{fill:#FF9F05;}
	.st18{fill:#F09605;}
	.st19{fill:none;stroke:#FFB570;stroke-width:13.2524;stroke-linecap:round;stroke-miterlimit:10;}
	.st20{fill:#7AB9E6;}
	.st21{fill:#EBEBEB;}
	.st22{fill:#7F58A8;}
	.st23{fill:none;stroke:#A270D6;stroke-width:2.2954;stroke-miterlimit:10;}
	.st24{fill:none;stroke:#FF802A;stroke-width:2.2954;stroke-miterlimit:10;}
	.st25{fill:#83E700;}
	.st26{fill:#E76FCA;}
	.st27{fill:#2AE7D1;}
	.st28{fill:#337BE7;}
	.st29{fill:#375A70;}
	.st30{fill:#068888;}
	.st31{fill:#09C6AB;}
	.st32{fill:#F7E74A;}
	.st33{fill:#CFC13E;}
	.st34{fill:#079E89;}
	.st35{fill:#045959;}
	.st36{opacity:0.15;fill:#96C4E6;}
	.st37{opacity:0.5;}
	.st38{fill:#F2A55A;}
	.st39{opacity:0.15;}
	.st40{fill:#96C4E6;}
	.st41{fill:#FFB570;}
	.st42{fill:#A270D6;}
	.st43{fill:#FF802A;}
	.st44{fill:#B3672C;}
	.st45{fill:#494C49;}
	.st46{fill:#5C5C58;}
	.st47{opacity:0.12;fill:#221F1F;}
	.st48{opacity:0.2;fill:#FFFFFF;}
	.st49{opacity:5.000000e-02;fill:#FFFFFF;}
	.st50{fill:#986D46;}
	.st51{fill:#FF8A36;}
	.st52{fill:#ED7726;}
	.st53{opacity:6.000000e-02;}
	.st54{fill:#D0B799;}
	.st55{fill:#AA967F;}
	.st56{fill:#FFA05C;}
	.st57{fill:#915424;}
	.st58{fill:#A67653;}
	.st59{fill:#563219;}
	.st60{opacity:0.2;}
	.st61{opacity:0.35;}
	.st62{opacity:0.12;}
	.st63{fill:#FCDEC8;}
	.st64{fill:#DD7A31;}
	.st65{fill:#F8964E;}
	.st66{fill:#E1AB7E;}
	.st67{fill:#634B32;}
	.st68{fill:#735E4C;}
	.st69{opacity:0.4;fill:none;stroke:#000000;stroke-width:2.9903;stroke-linecap:round;stroke-miterlimit:10;}
	.st70{opacity:0.15;fill:none;stroke:#000000;stroke-width:1.9935;stroke-linecap:round;stroke-miterlimit:10;}
	.st71{opacity:0.4;fill:none;stroke:#000000;stroke-width:5;stroke-linecap:round;stroke-miterlimit:10;}
	.st72{fill:#8B5022;}
	.st73{fill:#71492D;}
	.st74{fill:#EE6F75;}
	.st75{fill:#D56369;}
	.st76{opacity:0.15;fill:none;stroke:#000000;stroke-linecap:round;stroke-miterlimit:10;}
	.st77{opacity:0.4;fill:none;stroke:#000000;stroke-width:3;stroke-linecap:round;stroke-miterlimit:10;}
	.st78{opacity:0.15;fill:none;stroke:#000000;stroke-width:2;stroke-linecap:round;stroke-miterlimit:10;}
	.st79{fill:none;stroke:#986D46;stroke-width:4;stroke-linecap:round;stroke-miterlimit:10;}
	.st80{opacity:0.4;fill:none;stroke:#000000;stroke-width:4;stroke-linecap:round;stroke-miterlimit:10;}
	.st81{fill:#C69DE8;}
	.st82{fill:#F5BE33;}
	.st83{fill:#ED4C87;}
	.st84{fill:none;stroke:#F75A52;stroke-width:3.0116;stroke-miterlimit:10;}
	.st85{fill:#F75A52;}
	.st86{fill:#96DE44;}
	.st87{fill:#2F5C8F;}
	.st88{fill:none;stroke:#4D96E8;stroke-width:9.0349;stroke-miterlimit:10;}
	.st89{fill:none;stroke:#407DC2;stroke-width:6.0233;stroke-miterlimit:10;}
	.st90{fill:#7C8088;}
	.st91{fill:#E6E6E6;}
	.st92{fill:#80739A;}
	.st93{fill:#6DC320;}
	.st94{fill:#7FE425;}
	.st95{fill:#46523B;}
	.st96{fill:#FF5F45;}
	.st97{fill:none;stroke:#B4BCCD;stroke-width:4.0712;stroke-miterlimit:10;}
	.st98{fill:none;stroke:#FF802A;stroke-width:4.0712;stroke-miterlimit:10;}
	.st99{fill:#F2F2F2;}
	.st100{fill:#68BD61;}
	.st101{fill:#A0A0A0;}
	.st102{fill:#D1D1D1;}
	.st103{fill:#70CACC;}
	.st104{fill:none;stroke:#EDECED;stroke-width:2.8233;stroke-miterlimit:10;}
	.st105{fill:#FFD000;}
	.st106{clip-path:url(#SVGID_2_);}
	.st107{clip-path:url(#SVGID_4_);}
	.st108{fill:#BFBFBF;}
</style>
<g>
		<g class="st37">
			<path class="st20" d="M329.3,669.6c-34.9,0-67.7-32.8-92.2-92.3c-24.3-59.1-37.7-137.7-37.7-221.2h3
				c0,171.2,56.9,310.5,126.9,310.5V669.6z"/>
		</g>
		<g class="st37">
			<path class="st20" d="M519.1,339c-35.2-33.3-78.9-65.4-126.3-92.8c-82.2-47.5-167.6-76.6-234.2-79.9l0.1-3
				c67.1,3.3,153,32.6,235.6,80.3c47.7,27.5,91.5,59.7,126.9,93.2L519.1,339z"/>
		</g>
		<g class="st37">
			<path class="st20" d="M156.7,323.5l-2-2.3c32.3-28.1,69.2-54.2,109.7-77.6c87.3-50.4,179.9-80.5,247.7-80.6l0,3
				c-67.3,0.1-159.3,30-246.2,80.2C225.5,269.6,188.8,295.6,156.7,323.5z"/>
		</g>
	<g class="judoka">
		<g>
			<g>
				<g>
					<g>
						<g>
							<circle class="st3" cx="329.9" cy="224.4" r="70.5"/>
							<g>
								<path class="st38" d="M400.3,224.2c0,0.2,0,0.5,0,0.7c-0.1,10.7-2.6,20.8-7,29.9c0,0,0,0.1,0,0.1
									c-12.4-22.5-39-27.5-63.4-36c-20.3-7-42.9-30.8-53.7-43.2c-0.1-0.1-0.2-0.2-0.2-0.3c0.1-0.2,0.3-0.3,0.4-0.5
									c0.1-0.2,0.3-0.3,0.5-0.5c0.2-0.1,0.4-0.3,0.6-0.4c39.9-29.7,82.2-21.3,106.1,4.5C393.9,190.8,400.3,206.8,400.3,224.2z"/>
							</g>
						</g>
						<g>
							<g>
								<g>
									<path class="st4" d="M304.2,228.4c0,5.7-4.6,8.8-10.4,8.8s-10.4-3.1-10.4-8.8c0-5.7,4.6-10.4,10.4-10.4
										S304.2,222.7,304.2,228.4z"/>
								</g>
								<g>
									<circle class="st5" cx="293.8" cy="228.4" r="4.8"/>
								</g>
								<g>
									<circle class="st4" cx="290.1" cy="225.4" r="1.8"/>
								</g>
							</g>
							<g>
								<g>
									<path class="st4" d="M376.4,228.4c0,5.7-4.6,8.8-10.4,8.8s-10.4-3.1-10.4-8.8c0-5.7,4.6-10.4,10.4-10.4
										S376.4,222.7,376.4,228.4z"/>
								</g>
								<g>
									<circle class="st5" cx="366" cy="228.4" r="4.8"/>
								</g>
								<g>
									<circle class="st4" cx="362.4" cy="225.4" r="1.8"/>
								</g>
							</g>
						</g>
						<g>
							<path class="st7" d="M267.2,174.9c-2.5,2.5-24.7,25.9-11.6,57.5c0.6,1.4,2.4,1.9,3.6,0.9c5.9-5,20.8-18.6,22.2-28.3
								c1.3-9.6,6.7-27,8.8-33.8c0.5-1.5-0.6-3-2.2-2.9c-3.9,0.1-11.2,1.1-20.2,6.3C267.6,174.6,267.4,174.7,267.2,174.9z"/>
						</g>
						<g class="st39">
							<path class="st40" d="M290.2,171.2c-0.1,0.5-0.3,1-0.5,1.5c-0.5-0.3-1.1-0.5-1.7-0.4c-4.1,0.6-11.8,2.6-20.8,9.3
								c-0.2,0.1-0.3,0.3-0.5,0.5c-2,2.6-18.3,24.5-9.9,51.6c-0.5-0.2-1-0.7-1.2-1.3c-13.1-31.6,9.2-55.1,11.6-57.5
								c0.1-0.1,0.3-0.3,0.5-0.4c9.1-5.2,16.4-6.2,20.2-6.3C289.5,168.2,290.6,169.7,290.2,171.2z"/>
						</g>
						<g>
							<path class="st9" d="M389.5,168.1c-10.4-11.7-24.2-20.3-39.8-24.2c-6.2-1.5-12.6-2.4-19.3-2.4c-20.7,0-39.6,8-53.7,21
								c-2.8,2.6-5.3,5.3-7.7,8.2c0.1,0.2,0.2,0.4,0.4,0.5c7.5,7.7,37.9,37.4,62.9,43.7c26.9,6.7,55.8,9.2,69.2,35
								c0.4,0.8,1.1,1.2,1.9,1.2c1.5-3.6,2.8-7.4,3.7-11.3c1.5-6.1,2.3-12.6,2.3-19.2C409.5,200.5,401.9,182.1,389.5,168.1z"/>
						</g>
						<g class="st39">
							<path class="st40" d="M409.5,220.7c0,6.6-0.8,13-2.4,19.2c-0.9,3.5-2,6.9-3.3,10.2c0.5-2.7,1-5.4,1.2-8.2
								c2.3-21.8-3.2-42.6-14.2-59.3c-9.2-13.9-22.1-24.8-37.4-31c-6.1-2.4-12.5-4.1-19.2-4.9c-20.9-2.5-40.8,3.8-56.5,16.2
								c-3.1,2.4-6,5.1-8.7,7.9c2.4-2.9,4.9-5.6,7.7-8.2c14.1-13,32.9-21,53.6-21c6.7,0,13.1,0.8,19.3,2.4
								c15.6,3.9,29.4,12.5,39.8,24.2C401.9,182.1,409.5,200.5,409.5,220.7z"/>
						</g>
						<g>
							<g>
								<g>
									<circle class="st11" cx="286.8" cy="242.7" r="2.4"/>
								</g>
								<g>
									<circle class="st11" cx="373" cy="242.7" r="2.4"/>
								</g>
							</g>
						</g>
					</g>
					<g>
						<g class="st12">
							<path d="M359.3,246.7c-1.6,8.9-7.1,16.5-14.7,20.8c-4.3,2.4-9.3,3.8-14.6,3.8c-5.3,0-10.3-1.4-14.6-3.8
								c-7.6-4.3-13.2-11.9-14.7-20.8c-0.5-2.7,1.6-5.2,4.3-5.2h50.1C357.7,241.6,359.7,244,359.3,246.7z"/>
						</g>
						<g>
							<path class="st4" d="M353.2,241.6l-0.6,5.9c-0.1,0.9-0.9,1.7-1.8,1.7h-40.5c-0.9,0-1.7-0.7-1.8-1.7l-0.6-5.9H353.2z"/>
						</g>
						<g>
							<path class="st13" d="M344.5,267.5c-4.3,2.4-9.3,3.8-14.6,3.8c-5.3,0-10.3-1.4-14.6-3.8c3.3-2.2,8.7-3.7,14.6-3.7
								C335.9,263.9,341.2,265.3,344.5,267.5z"/>
						</g>
					</g>
				</g>
				<g>
					<rect x="282.6" y="298.1" class="st3" width="93.4" height="49"/>
				</g>
				<g>
					<g>
						<path class="st14" d="M262.6,303.7v194.7h131.7V395.7l-105-97.6h-21.1C265.1,298.1,262.6,300.6,262.6,303.7z"/>
					</g>
					<g>
						<path class="st15" d="M396.1,303.7v194.7h-60L262.6,425v-29.3l107.6-97.6h20.1C393.5,298.1,396.1,300.6,396.1,303.7z"/>
					</g>
					<g>
						<polygon class="st14" points="396.1,436.9 396.1,498.4 336,498.4 274.5,436.9 						"/>
					</g>
				</g>
				<g>
					<line class="st16" x1="370.3" y1="298.1" x2="262.6" y2="395.7"/>
				</g>
				<g>
					<path class="st3" d="M359.7,298.9H299l0,0c4.4,0,8-3.6,8-8h44.7C351.7,295.3,355.3,298.9,359.7,298.9L359.7,298.9z"/>
				</g>
			</g>
			<g>
				<path class="st14" d="M335.4,452.9v71.5l-118-8c-21-3.2-35.5-22.8-32.3-43.9l0,0c3.2-21,22.8-35.5,43.9-32.3L335.4,452.9z"/>
			</g>
			<g>
				<path class="st17" d="M306.5,433.1v144.5c0,0.8-0.7,1.5-1.5,1.5h-23.4c-0.8,0-1.5-0.7-1.5-1.5V433.1H306.5z"/>
			</g>
			<g>
				<rect x="280.1" y="433.1" class="st18" width="26.4" height="19.1"/>
			</g>
			<g>
				<g>
					<path class="st14" d="M334.7,452.9v71.5l118-8c21-3.2,35.5-22.8,32.3-43.9l0,0c-3.2-21-22.8-35.5-43.9-32.3L334.7,452.9z"/>
				</g>
				<g>
					<path class="st15" d="M327.8,496.2l24.9,64.6c0.8,2,3,3,5.1,2.2l117.6-51.7c19.9-7.6,29.8-29.9,22.1-49.8l0,0
						c-7.6-19.9-29.9-29.8-49.8-22.1l-117.6,51.7C328.1,491.9,327.1,494.2,327.8,496.2z"/>
				</g>
			</g>
			<g>
				<path class="st3" d="M295.8,548.8h80c6.5,0,11.7-5.3,11.7-11.7l0,0c0-5.7-4.1-10.5-9.7-11.5l-33.9-6.1l-2.6-4.8
					c-4.3-8-13.3-12.3-22.2-10.7l-18.7,3.4L295.8,548.8z"/>
			</g>
			<g>
				<path class="st15" d="M328.1,499l-25.4,61.3c-1.1,2.7-4.3,3.8-6.9,2.5L195.1,509c0,0-0.1,0-0.1-0.1
					c-19.6-8.2-28.9-30.7-20.8-50.3l0,0c8.1-19.6,30.6-29,50.2-20.9c0.1,0,0.2,0.1,0.2,0.1l101.3,54.9
					C328.1,493.9,329.1,496.6,328.1,499z"/>
			</g>
		</g>
		<g>
			<g>
				<g>
					<path class="st3" d="M145.8,411.9H99c-4,0-7.2,3.2-7.2,7.2l0,0c0,4,3.2,7.2,7.2,7.2h0.9c1.1,0,1.9,0.9,1.9,1.9v11.3
						c0,4.4,3.6,8,8,8h38.8L145.8,411.9z"/>
				</g>
			</g>
			<g>
				<path class="st14" d="M145.3,454.5c-3.3,0-6-2.7-6-6v-39.6c0-3,2.2-5.5,5.1-5.9l61.8-6.2l38.9-84.1c3.6-8.8,12.2-14.6,21.8-14.6
					c3.1,0,6.1,0.6,9,1.8c5.8,2.4,10.4,6.9,12.8,12.8c2.4,5.8,2.4,12.2,0.1,18.1L248,419.5c-5.1,12.4-16.6,21.4-30,23.3l-71.8,11.6
					C145.9,454.5,145.6,454.5,145.3,454.5z"/>
			</g>
			<g>
				<path class="st41" d="M128.5,423c-10,0-18.2-8.2-18.2-18.2c0-7.3,4.4-13.9,11.1-16.7c3.4-1.4,7.3,0.2,8.7,3.5
					c1.4,3.4-0.2,7.3-3.5,8.7c-1.8,0.8-3,2.6-3,4.5c0,2.7,2.2,4.9,4.9,4.9s4.9-2.2,4.9-4.9c0-0.6-0.1-1.2-0.3-1.7
					c-1.3-3.4,0.4-7.2,3.8-8.5c3.4-1.3,7.2,0.4,8.5,3.8c0.8,2.1,1.2,4.2,1.2,6.4C146.7,414.9,138.5,423,128.5,423z"/>
			</g>
		</g>
		<g>
			<g>
				<g>
					<path class="st3" d="M512.8,411.9h46.8c4,0,7.2,3.2,7.2,7.2l0,0c0,4-3.2,7.2-7.2,7.2h-0.9c-1.1,0-1.9,0.9-1.9,1.9v11.3
						c0,4.4-3.6,8-8,8h-38.8L512.8,411.9z"/>
				</g>
			</g>
			<g>
				<path class="st15" d="M513.4,454.5c3.3,0,6-2.7,6-6v-39.6c0-3-2.2-5.5-5.1-5.9l-61.8-6.2l-38.9-84.1
					c-3.6-8.8-12.2-14.6-21.8-14.6c-3.1,0-6.1,0.6-9,1.8c-5.8,2.4-10.4,6.9-12.8,12.8c-2.4,5.8-2.4,12.2-0.1,18.1l40.9,88.8
					c5.1,12.4,16.6,21.4,30,23.3l71.8,11.6C512.8,454.5,513.1,454.5,513.4,454.5z"/>
			</g>
			<g>
				<path class="st41" d="M530.2,423c-10,0-18.2-8.2-18.2-18.2c0-2.2,0.4-4.4,1.2-6.4c1.3-3.4,5.1-5.1,8.5-3.8
					c3.4,1.3,5.1,5.1,3.8,8.5c-0.2,0.6-0.3,1.1-0.3,1.7c0,2.7,2.2,4.9,4.9,4.9s4.9-2.2,4.9-4.9c0-2-1.2-3.8-3-4.5
					c-3.4-1.4-4.9-5.3-3.5-8.7c1.4-3.4,5.3-4.9,8.7-3.5c6.7,2.9,11.1,9.4,11.1,16.7C548.3,414.9,540.2,423,530.2,423z"/>
			</g>
		</g>
		<g>
			<path class="st17" d="M397.7,446.3H261c-0.8,0-1.5-0.7-1.5-1.5v-24.7c0-0.8,0.7-1.5,1.5-1.5h136.7c0.8,0,1.5,0.7,1.5,1.5v24.7
				C399.2,445.6,398.5,446.3,397.7,446.3z"/>
		</g>
	</g>
	<g>
		<g class="st37">
			<path class="st20" d="M329.3,669.6v-3c70,0,126.9-139.3,126.9-310.5S399.3,45.6,329.3,45.6S202.5,184.9,202.5,356.1h-3
				c0-83.5,13.4-162.1,37.7-221.2c24.5-59.5,57.2-92.3,92.2-92.3s67.7,32.8,92.2,92.3c24.3,59.1,37.7,137.7,37.7,221.2
				s-13.4,162.1-37.7,221.2C397,636.9,364.3,669.6,329.3,669.6z"/>
		</g>
		<g class="st37">
			<path class="st20" d="M512.6,549.2c-11.7,0-24.3-0.9-37.8-2.7c-63.3-8.5-138.1-36.2-210.4-77.9C192.1,426.8,130.7,376,91.7,325.4
				c-39.3-51-51.3-95.7-33.9-126c15.1-26.1,49.9-38.5,100.8-36l-0.1,3c-49-2.4-83.8,9.8-98.1,34.5c-16.8,29.1-4.9,72.7,33.6,122.6
				c38.8,50.3,99.8,100.9,171.8,142.5c90.6,52.3,181.5,80.3,246.5,80.3c41.4,0,72.2-11.3,85.8-34.9c11.2-19.4,9.6-45.8-4.8-76.5
				c-14-30-39.7-63.2-74.4-95.9l2.1-2.2c34.9,33,60.8,66.5,75,96.8c14.7,31.5,16.4,58.9,4.6,79.2
				C587.1,536.8,556.3,549.2,512.6,549.2z"/>
		</g>
		<g class="st37">
			<path class="st20" d="M146.1,549.2c-43.7,0-74.5-12.5-88.3-36.4c-12.7-21.9-9.8-51.8,8.2-86.5c17.4-33.5,48.1-69.8,88.6-105.1
				l2,2.3c-40.3,35.1-70.7,71.1-87.9,104.3c-17.5,33.7-20.4,62.6-8.3,83.6c16.8,29.1,60.5,40.6,123,32.2c63-8.4,137.3-36,209.3-77.6
				C541,380.4,633.2,261.5,598.2,200.9c-13.2-22.8-42.9-34.8-85.9-34.8c-0.1,0-0.1,0-0.2,0l0-3c0.1,0,0.1,0,0.2,0
				c44.2,0,74.8,12.6,88.5,36.3c17.5,30.3,5.4,75-33.9,126c-39,50.6-100.4,101.5-172.7,143.3S247.2,538,183.9,546.5
				C170.4,548.3,157.8,549.2,146.1,549.2z"/>
		</g>
	</g>
	<g>
		<circle class="st20" cx="59.2" cy="208" r="14.1"/>
	</g>
	<g>
		<circle class="st20" cx="602.4" cy="208" r="14.1"/>
	</g>
	<g>
		<g>
			<path class="st21" d="M636.2,484.8v51.5c0,1.9-1.5,3.4-3.4,3.4h-51.5c-1.9,0-3.4-1.5-3.4-3.4v-51.5c0-1.9,1.5-3.4,3.4-3.4h51.5
				C634.7,481.4,636.2,482.9,636.2,484.8z"/>
		</g>
		<g>
			<path class="st22" d="M636.2,487.7v48.5c0,1.9-1.5,3.4-3.4,3.4h-51.5c-1.9,0-3.4-1.5-3.4-3.4v-48.5H636.2z"/>
		</g>
		<g>
			<g>
				<rect x="583.8" y="492.5" class="st42" width="19.5" height="2.3"/>
			</g>
			<g>
				<rect x="583.8" y="497.3" class="st42" width="8.4" height="2.3"/>
			</g>
			<g>
				<rect x="594.8" y="497.3" class="st43" width="4.2" height="2.3"/>
			</g>
			<g>
				<rect x="601.3" y="497.3" class="st43" width="4.2" height="2.3"/>
			</g>
			<g>
				<rect x="583.8" y="502.1" class="st42" width="31.7" height="2.3"/>
			</g>
			<g>
				<rect x="583.8" y="507" class="st42" width="16.3" height="2.3"/>
			</g>
			<g>
				<rect x="602.4" y="507" class="st43" width="3.6" height="2.3"/>
			</g>
			<g>
				<rect x="583.8" y="511.8" class="st42" width="13.1" height="2.3"/>
			</g>
			<g>
				<rect x="583.8" y="516.6" class="st43" width="3.9" height="2.3"/>
			</g>
			<g>
				<rect x="590" y="516.6" class="st43" width="3.9" height="2.3"/>
			</g>
			<g>
				<rect x="596.2" y="516.6" class="st43" width="3.9" height="2.3"/>
			</g>
			<g>
				<rect x="583.8" y="521.5" class="st42" width="29.1" height="2.3"/>
			</g>
			<g>
				<rect x="583.8" y="526.3" class="st42" width="7.1" height="2.3"/>
			</g>
		</g>
	</g>
	<g>
		<g>
			<path class="st4" d="M69.8,539.6H17.6c-1.9,0-3.4-1.5-3.4-3.4V484c0-1.9,1.5-3.4,3.4-3.4h52.2c1.9,0,3.4,1.5,3.4,3.4v52.2
				C73.3,538.1,71.7,539.6,69.8,539.6z"/>
		</g>
		<g>
			<g>
				<path class="st25" d="M31.5,499.9v26.8H40v1.5c0,0.9-0.7,1.6-1.6,1.6H28.2c-0.9,0-1.6-0.7-1.6-1.6V492c0-0.9,0.7-1.6,1.6-1.6
					h28.4c0.9,0,1.6,0.7,1.6,1.6v7.9H31.5z"/>
			</g>
			<g>
				<path class="st26" d="M59.2,512H31.5v-12h27.7c0.9,0,1.6,0.7,1.6,1.6v8.8C60.9,511.2,60.1,512,59.2,512z"/>
			</g>
			<g>
				<rect x="31.5" y="512" class="st27" width="23.3" height="5"/>
			</g>
			<g>
				<path class="st28" d="M31.5,516.9h24.2c0.9,0,1.6,0.7,1.6,1.6v1.7c0,0.9-0.7,1.6-1.6,1.6H31.5V516.9z"/>
			</g>
			<g>
				<path class="st27" d="M31.5,521.9h23.3v3.3c0,0.9-0.7,1.6-1.6,1.6H31.5V521.9z"/>
			</g>
		</g>
	</g>
	<g>
		<g>
			<path class="st29" d="M355.5,73.3h-52.2c-1.9,0-3.4-1.5-3.4-3.4V17.6c0-1.9,1.5-3.4,3.4-3.4h52.2c1.9,0,3.4,1.5,3.4,3.4v52.2
				C358.9,71.7,357.3,73.3,355.5,73.3z"/>
		</g>
		<g>
			<g>
				<g>
					<path class="st30" d="M331.1,60.5c-4.3,0-8.6-1.6-11.9-4.9c-2.1-2.1-2.1-5.5,0-7.5c2.1-2.1,5.5-2.1,7.5,0
						c2.4,2.4,6.3,2.4,8.7,0c2.1-2.1,5.5-2.1,7.5,0c2.1,2.1,2.1,5.5,0,7.5C339.7,58.9,335.4,60.5,331.1,60.5z"/>
				</g>
				<g>
					<path class="st31" d="M322.9,57.1c-1.4,0-2.7-0.5-3.8-1.6c-6.5-6.5-6.5-17.2,0-23.7c2.1-2.1,5.5-2.1,7.5,0
						c2.1,2.1,2.1,5.5,0,7.5c-2.4,2.4-2.4,6.3,0,8.7c2.1,2.1,2.1,5.5,0,7.5C325.6,56.6,324.2,57.1,322.9,57.1z"/>
				</g>
				<g>
					<path class="st32" d="M322.9,40.9c-1.4,0-2.7-0.5-3.8-1.6c-2.1-2.1-2.1-5.5,0-7.5c6.5-6.5,17.2-6.5,23.7,0
						c2.1,2.1,2.1,5.5,0,7.5c-2.1,2.1-5.5,2.1-7.5,0c-2.4-2.4-6.3-2.4-8.7,0C325.6,40.4,324.2,40.9,322.9,40.9z"/>
				</g>
			</g>
			<g>
				<g>
					<circle class="st33" cx="322.6" cy="35.8" r="1.1"/>
				</g>
				<g>
					<circle class="st34" cx="322.8" cy="52" r="1.1"/>
				</g>
				<g>
					<circle class="st35" cx="339.4" cy="51.8" r="1.1"/>
				</g>
			</g>
		</g>
	</g>
</g>
</svg>
