<svg xmlns="http://www.w3.org/2000/svg" viewBox="0 0 109.34 121.33"><defs><style>.cls-1{fill:#fff;}.cls-2{fill:#d9d9d9;}.cls-3{fill:#f2ac6a;}.cls-4{fill:#df9e62;}.cls-5{fill:#4a4d4a;}.cls-6{fill:#5d5c58;}.cls-7{fill:#916740;}.cls-8{fill:#825c39;}.cls-9{fill:#f5bc88;}.cls-10{fill:#ce925b;}</style></defs><title>judokaAsset 1</title><g id="Layer_2" data-name="Layer 2"><g id="Layer_1-2" data-name="Layer 1"><path class="cls-1" d="M95.53,18.32a54.62,54.62,0,0,0-77.89-3.81,55.09,55.09,0,0,0-5.3,5.65L9.46,23.71l.27.59C5.06,30-4.8,45.12,3.19,64.44a8.73,8.73,0,0,0,3,3.81,49.49,49.49,0,0,0,39.88,37.42L53.5,119.3a1.39,1.39,0,0,0,.13.17l0,.06a1.37,1.37,0,0,0,.24.22l.06,0a1.37,1.37,0,0,0,.26.13l.1,0,.24,0h.34l.24,0,.1,0a1.37,1.37,0,0,0,.26-.13l.06,0a1.36,1.36,0,0,0,.24-.22l0-.06a1.39,1.39,0,0,0,.13-.17l7.48-13.79A49.85,49.85,0,0,0,98.06,80.19l5.06.3,2-4.79a52.65,52.65,0,0,0,2.59-7.83A54.66,54.66,0,0,0,95.53,18.32Z"/><path class="cls-2" d="M109.16,55.91a54.2,54.2,0,0,1-1.62,13.25A53.55,53.55,0,0,1,105,77l-2,4.79-5.06-.3a49.82,49.82,0,0,1-34.57,25.33L55.83,120.6l-.13.17,0,0a1.29,1.29,0,0,1-.24.23l-.06.05a1.66,1.66,0,0,1-.27.13l-.1,0-.24,0h-.34l-.24,0-.11,0a1.58,1.58,0,0,1-.26-.13l-.06-.05a1,1,0,0,1-.24-.23.1.1,0,0,1,0,0,1,1,0,0,1-.13-.17L45.93,107A49.51,49.51,0,0,1,6.05,69.55a8.79,8.79,0,0,1-3-3.81A38,38,0,0,1,0,50.08,38.47,38.47,0,0,0,3,63.74a8.79,8.79,0,0,0,3,3.81A49.51,49.51,0,0,0,45.93,105l7.4,13.63a1,1,0,0,0,.13.17.1.1,0,0,0,0,0,1,1,0,0,0,.24.23l.06.05a1.58,1.58,0,0,0,.26.13l.11,0,.24,0h.34l.24,0,.1,0a1.66,1.66,0,0,0,.27-.13l.06-.05a1.29,1.29,0,0,0,.24-.23l0,0,.13-.17,7.48-13.79A49.82,49.82,0,0,0,97.88,79.48l5.06.3L105,75a54.58,54.58,0,0,0,4.2-20.33C109.16,55.07,109.16,55.49,109.16,55.91Z"/><circle class="cls-3" cx="54.4" cy="58.02" r="39.67"/><path class="cls-4" d="M94,57.91c0,.14,0,.28,0,.41a39.06,39.06,0,0,1-3.94,16.81l0,0c-7-12.68-21.92-15.49-35.67-20.28-11.41-4-24.12-17.3-30.23-24.32L24,30.42l.21-.27a1.73,1.73,0,0,1,.28-.27l.33-.25c22.43-16.73,46.24-12,59.69,2.54A39.42,39.42,0,0,1,94,57.91Z"/><path class="cls-5" d="M19.14,30.13C17.75,31.53,5.24,44.71,12.59,62.5a1.28,1.28,0,0,0,2,.51C17.9,60.2,26.34,52.52,27.07,47.06s3.76-15.21,5-19a1.27,1.27,0,0,0-1.23-1.66,24,24,0,0,0-11.39,3.53A1.33,1.33,0,0,0,19.14,30.13Z"/><path class="cls-6" d="M87.94,26.34a44.48,44.48,0,0,0-67.76,1.49,1,1,0,0,0,.21.29c4.22,4.31,21.32,21,35.36,24.57,15.11,3.77,31.4,5.2,38.94,19.69a1.25,1.25,0,0,0,1.05.69,42.62,42.62,0,0,0,2.11-6.38,44.52,44.52,0,0,0-9.92-40.34Z"/><path class="cls-7" d="M40.4,64.31c0,2.22-1.79,2.38-4,2.38s-4-.16-4-2.38a4,4,0,1,1,8,0Z"/><path class="cls-7" d="M76.41,64.31c0,2.22-1.79,2.38-4,2.38s-4-.16-4-2.38a4,4,0,1,1,8,0Z"/><path class="cls-7" d="M70.25,72.34a15.52,15.52,0,0,1-31,0,1,1,0,0,1,.64-1,.33.33,0,0,1,.14,0,71.79,71.79,0,0,1,29-.08l.4.08A1,1,0,0,1,70.25,72.34Z"/><path class="cls-1" d="M69.08,71.23l-1,2.41a66.33,66.33,0,0,1-13.61,1.29,66.3,66.3,0,0,1-13.6-1.29l-1-2.29.14,0A71.8,71.8,0,0,1,69.08,71.23Z"/><path class="cls-8" d="M63.1,84.57a15.52,15.52,0,0,1-16.68,0c1.77-1.38,4.84-2.29,8.34-2.29S61.33,83.19,63.1,84.57Z"/><circle class="cls-9" cx="30.89" cy="69.03" r="1.36"/><circle class="cls-9" cx="77.92" cy="69.03" r="1.36"/><path class="cls-10" d="M47.81,88.11s.17.1.51.26a15.45,15.45,0,0,0,1.43.6,16.54,16.54,0,0,0,2.12.61c.39.09.81.14,1.22.21s.85.1,1.28.1a9.9,9.9,0,0,0,1.28,0l.62,0,.6-.11.58-.11.54-.16a5.6,5.6,0,0,0,1-.35c.29-.13.57-.24.8-.36l.58-.35.51-.3,0,0a.45.45,0,0,1,.48.76l-.54.36-.62.41c-.25.14-.54.28-.86.44a6.44,6.44,0,0,1-1.05.44l-.59.21-.63.15-.66.15-.68.09a11.08,11.08,0,0,1-1.4.1c-.47,0-.94,0-1.4,0s-.91-.09-1.35-.17a18,18,0,0,1-2.34-.54,17,17,0,0,1-1.61-.58c-.38-.16-.62-.28-.61-.27a.81.81,0,0,1,.75-1.44Z"/></g></g></svg>