<?xml version="1.0" encoding="UTF-8" standalone="no"?>
<svg width="13px" height="15px" viewBox="0 0 13 15" version="1.1" xmlns="http://www.w3.org/2000/svg" xmlns:xlink="http://www.w3.org/1999/xlink">
    <!-- Generator: Sketch 41.2 (35397) - http://www.bohemiancoding.com/sketch -->
    <title>Combined Shape</title>
    <desc>Created with Sketch.</desc>
    <defs></defs>
    <g id="Page-1" stroke="none" stroke-width="1" fill="none" fill-rule="evenodd">
        <g id="Desktop-HD" transform="translate(-1104.000000, -34.000000)" fill="#FFFFFF">
            <g id="/nav" transform="translate(33.000000, 31.000000)">
                <g id="/sign-in" transform="translate(916.000000, 2.000000)">
                    <path d="M157,7 L155.998502,7 C155.447489,7 155,7.44661595 155,7.99754465 L155,15.0024554 C155,15.5536886 155.447045,16 155.998502,16 L167.001498,16 C167.552511,16 168,15.553384 168,15.0024554 L168,7.99754465 C168,7.4463114 167.552955,7 167.001498,7 L166,7 L166,5 C166,2.79535615 164.209164,1 162.000057,1 L160.999943,1 C158.799653,1 157,2.790861 157,5 L157,7 Z M159,5 C159,3.8954305 159.8939,3 161.004882,3 L161.995118,3 C163.102384,3 164,3.88772964 164,5 L164,7 L159,7 L159,5 Z" id="Combined-Shape"></path>
                </g>
            </g>
        </g>
    </g>
</svg>