<?xml version="1.0" encoding="UTF-8" standalone="no"?>
<svg width="39px" height="39px" viewBox="0 0 39 39" version="1.1" xmlns="http://www.w3.org/2000/svg" xmlns:xlink="http://www.w3.org/1999/xlink">
    <!-- Generator: Sketch 3.7.2 (28276) - http://www.bohemiancoding.com/sketch -->
    <title>kit-icon</title>
    <desc>Created with Sketch.</desc>
    <defs>
        <rect id="path-1" x="9" y="0" width="30" height="39" rx="3"></rect>
        <mask id="mask-2" maskContentUnits="userSpaceOnUse" maskUnits="objectBoundingBox" x="0" y="0" width="30" height="39" fill="white">
            <use xlink:href="#path-1"></use>
        </mask>
    </defs>
    <g id="Projects---General" stroke="none" stroke-width="1" fill="none" fill-rule="evenodd" opacity="0.3">
        <g id="Projects---Logged-in" transform="translate(-270.000000, -2124.000000)">
            <g id="Make-Art" transform="translate(-2.000000, 2080.000000)">
                <g id="kit-icon" transform="translate(272.000000, 44.000000)">
                    <use id="Rectangle-372" stroke="#5E5B54" mask="url(#mask-2)" stroke-width="6" fill="#5E5B54" xlink:href="#path-1"></use>
                    <rect id="Rectangle-373" fill="#5E5B54" x="7" y="7" width="4" height="4"></rect>
                    <rect id="Rectangle-374" fill="#5E5B54" x="0" y="8" width="8" height="2"></rect>
                    <rect id="Rectangle-373" fill="#5E5B54" x="7" y="12" width="4" height="4"></rect>
                    <rect id="Rectangle-374" fill="#5E5B54" x="0" y="13" width="8" height="2"></rect>
                    <ellipse id="Combined-Shape" fill="#ADACAA" cx="24" cy="20" rx="9" ry="9"></ellipse>
                    <g id="Group-6" transform="translate(17.000000, 13.000000)" fill="#5E5B54">
                        <circle id="Oval-87" cx="5" cy="1" r="1"></circle>
                        <circle id="Oval-87" cx="9" cy="1" r="1"></circle>
                        <circle id="Oval-87" cx="3" cy="4" r="1"></circle>
                        <circle id="Oval-87" cx="7" cy="4" r="1"></circle>
                        <circle id="Oval-87" cx="11" cy="4" r="1"></circle>
                        <circle id="Oval-87" cx="1" cy="7" r="1"></circle>
                        <circle id="Oval-87" cx="5" cy="7" r="1"></circle>
                        <circle id="Oval-87" cx="9" cy="7" r="1"></circle>
                        <circle id="Oval-87" cx="13" cy="7" r="1"></circle>
                        <circle id="Oval-87" cx="3" cy="10" r="1"></circle>
                        <circle id="Oval-87" cx="7" cy="10" r="1"></circle>
                        <circle id="Oval-87" cx="11" cy="10" r="1"></circle>
                        <circle id="Oval-87" cx="5" cy="13" r="1"></circle>
                        <circle id="Oval-87" cx="9" cy="13" r="1"></circle>
                    </g>
                </g>
            </g>
        </g>
    </g>
</svg>