<?xml version="1.0" encoding="UTF-8" standalone="no"?>
<svg width="36px" height="38px" viewBox="0 0 36 38" version="1.1" xmlns="http://www.w3.org/2000/svg" xmlns:xlink="http://www.w3.org/1999/xlink">
    <!-- Generator: Sketch 3.7.2 (28276) - http://www.bohemiancoding.com/sketch -->
    <title>locked-icon</title>
    <desc>Created with Sketch.</desc>
    <defs>
        <filter x="-50%" y="-50%" width="200%" height="200%" filterUnits="objectBoundingBox" id="filter-1">
            <feOffset dx="0" dy="2" in="SourceAlpha" result="shadowOffsetOuter1"></feOffset>
            <feColorMatrix values="0 0 0 0 0   0 0 0 0 0   0 0 0 0 0  0 0 0 0.06 0" type="matrix" in="shadowOffsetOuter1" result="shadowMatrixOuter1"></feColorMatrix>
            <feMerge>
                <feMergeNode in="shadowMatrixOuter1"></feMergeNode>
                <feMergeNode in="SourceGraphic"></feMergeNode>
            </feMerge>
        </filter>
        <circle id="path-2" cx="14" cy="14" r="14"></circle>
        <mask id="mask-3" maskContentUnits="userSpaceOnUse" maskUnits="objectBoundingBox" x="-4" y="-4" width="36" height="36">
            <rect x="-4" y="-4" width="36" height="36" fill="white"></rect>
            <use xlink:href="#path-2" fill="black"></use>
        </mask>
    </defs>
    <g id="Projects---General" stroke="none" stroke-width="1" fill="none" fill-rule="evenodd">
        <g id="Projects---Logged-in" transform="translate(-626.000000, -900.000000)">
            <g id="Make-Apps" transform="translate(0.000000, 721.000000)">
                <g id="Project" filter="url(#filter-1)" transform="translate(503.000000, 100.000000)">
                    <g id="locked-icon" transform="translate(127.000000, 83.000000)">
                        <g id="Oval-26">
                            <use fill="#E57273" fill-rule="evenodd" xlink:href="#path-2"></use>
                            <use stroke="#C63335" mask="url(#mask-3)" stroke-width="8" xlink:href="#path-2"></use>
                        </g>
                        <path d="M14,26.5 C20.9035594,26.5 26.5,20.9035594 26.5,14 C26.5,7.09644063 20.9035594,1.5 14,1.5 C7.09644063,1.5 1.5,7.09644063 1.5,14 C1.5,20.9035594 7.09644063,26.5 14,26.5 Z" id="Oval-26" fill="#E57273"></path>
                        <g id="Lock" transform="translate(7.000000, 5.000000)">
                            <g id="Group-15">
                                <g id="Group-10" opacity="0.200000003" transform="translate(0.549828, 0.761905)" fill="#231F1F">
                                    <path d="M11.9933526,6.89811429 L11.9858474,6.86668571 L10.8283216,6.86668571 L10.8283216,3.5344 C10.8283216,3.4064 11.0029608,0.234114286 7.54481649,0.234114286 L5.8561567,0.234114286 C2.39397113,0.234114286 2.51520825,3.46954286 2.52098144,3.63125714 L2.49298144,3.63125714 L2.49298144,6.86668571 L1.40935258,6.86668571 C0.796527835,6.86668571 0.204775258,7.4084 0.204775258,8.01497143 L0.204775258,15.2624 L0.204775258,15.2912571 C0.204775258,15.8975429 0.796527835,16.4112571 1.40935258,16.4112571 L11.9858474,16.4112571 L12.0112495,16.4112571 C12.6240742,16.4112571 13.1162392,15.8975429 13.1162392,15.2909714 L13.1162392,15.2621143 L13.1162392,8.01497143 C13.1162392,7.40811429 12.6061773,6.89811429 11.9933526,6.89811429 L11.9933526,6.89811429 Z M8.54011546,6.86668571 L4.78089897,6.86668571 L4.78089897,3.53925714 C4.78089897,3.04125714 5.18300206,2.49897143 5.8561567,2.49897143 L7.55549691,2.49897143 C8.22865155,2.49897143 8.54011546,3.02668571 8.54011546,3.5344 L8.54011546,6.86668571 Z" id="Fill-6"></path>
                                </g>
                                <path d="M12.5431808,7.08859048 L12.5356756,7.0571619 L11.3781498,7.0571619 L11.3781498,3.72487619 C11.3781498,3.59687619 11.552789,0.424590476 8.09464467,0.424590476 L6.40598488,0.424590476 C2.94379931,0.424590476 3.06503643,3.66001905 3.07080962,3.82173333 L3.04280962,3.82173333 L3.04280962,7.0571619 L1.95918076,7.0571619 C1.34635601,7.0571619 0.754603436,7.59887619 0.754603436,8.20544762 L0.754603436,15.4528762 L0.754603436,15.4817333 C0.754603436,16.088019 1.34635601,16.6017333 1.95918076,16.6017333 L12.5356756,16.6017333 L12.5610777,16.6017333 C13.1739024,16.6017333 13.6660674,16.088019 13.6660674,15.4814476 L13.6660674,15.4525905 L13.6660674,8.20544762 C13.6660674,7.59859048 13.1560055,7.08859048 12.5431808,7.08859048 L12.5431808,7.08859048 Z M9.08994364,7.0571619 L5.33072715,7.0571619 L5.33072715,3.72973333 C5.33072715,3.23173333 5.73283024,2.68944762 6.40598488,2.68944762 L8.10532509,2.68944762 C8.77847973,2.68944762 9.08994364,3.2171619 9.08994364,3.72487619 L9.08994364,7.0571619 Z" id="Fill-13" fill="#FFFFFF"></path>
                            </g>
                            <path d="M9,10.6467066 C9,11.3353293 8.67560322,11.9221557 8.13941019,12.1676647 L8.13941019,14.3083832 C8.13941019,14.6886228 7.80965147,15 7.4691689,15 C7.12868633,15 6.79892761,14.6886228 6.79892761,14.3083832 L6.79892761,12.1107784 C6.32439678,11.8353293 6,11.2844311 6,10.6467066 C6,9.73652695 6.68766756,9 7.5,9 C8.3150134,9 9,9.73652695 9,10.6467066" id="Fill-18" fill="#E57273"></path>
                        </g>
                    </g>
                </g>
            </g>
        </g>
    </g>
</svg>