<?xml version="1.0" encoding="utf-8"?>
<!-- Generator: Adobe Illustrator 18.1.0, SVG Export Plug-In . SVG Version: 6.00 Build 0)  -->
<svg version="1.1" id="Layer_1" xmlns="http://www.w3.org/2000/svg" xmlns:xlink="http://www.w3.org/1999/xlink" x="0px" y="0px"
	 viewBox="0 0 28 28" enable-background="new 0 0 28 28" xml:space="preserve">
<g>
	<circle opacity="0.5" fill="#435055" cx="13.9" cy="13.6" r="12.9"/>
	<g>
		<g>
			<path fill-rule="evenodd" clip-rule="evenodd" fill="#FBFBFB" d="M15.3,12h-3V9.4c0-0.4,0.3-0.8,0.8-0.8h1.3
				c0.5,0,0.8,0.4,0.8,0.8V12z M18.1,12.1L18.1,12.1l-0.9,0V9.4c0-0.1,0.1-2.6-2.6-2.6h-1.3c-2.7,0-2.6,2.6-2.6,2.7h0V12H9.7
				c-0.5,0-1,0.4-1,0.9v5.8v0c0,0.5,0.5,0.9,1,0.9H18h0c0.5,0,0.9-0.4,0.9-0.9v0v-5.8C18.9,12.5,18.5,12.1,18.1,12.1z"/>
		</g>
	</g>
</g>
</svg>
