<?xml version="1.0" encoding="utf-8"?>
<!-- Generator: Adobe Illustrator 19.2.1, SVG Export Plug-In . SVG Version: 6.00 Build 0)  -->
<svg version="1.1" id="Layer_1" xmlns="http://www.w3.org/2000/svg" xmlns:xlink="http://www.w3.org/1999/xlink" x="0px" y="0px"
	 viewBox="0 0 43 39" style="enable-background:new 0 0 43 39;" xml:space="preserve">
<style type="text/css">
	.st0{opacity:0.3;}
	.st1{fill:#5E5B54;}
	.st2{fill:#B6B5B3;}
</style>
<g id="Projects---General_3_">
	<g id="Projects---Logged-in_3_" transform="translate(-270.000000, -761.000000)">
		<g id="Make-Apps" transform="translate(0.000000, 721.000000)">
			<g id="make-apps-icon-grey" transform="translate(270.000000, 40.000000)">
				<g id="Group-2" transform="translate(0.000000, 28.000000)">
					<g id="Fill-7_2_">
						<path id="path-1_1_" class="st2" d="M21,1.7v5.1c0,1.1-1,2-2.2,2H2.3c-1.2,0-2.2-0.9-2.2-2V1.7c0-1.1,1-2,2.2-2h16.5
							C20.1-0.3,21,0.6,21,1.7"/>
					</g>
				</g>
				<g id="Group">
					<g id="Fill-9_2_">
						<path id="path-3_1_" class="st2" d="M21,14.7v9.8c0,1.2-1,2.2-2.2,2.2H2.3c-1.2,0-2.2-1-2.2-2.2V4.4c0-1.7,1.9-2.8,3.3-1.9
							L20,12.8C20.7,13.2,21,13.9,21,14.7"/>
					</g>
				</g>
				<g id="Group-3" transform="translate(24.000000, 0.000000)">
					<g id="Fill-11">
						<path id="path-5_1_" class="st2" d="M18.9,4.4v30.1c0,1.2-1,2.2-2.2,2.2H0.1c-1.2,0-2.2-1-2.2-2.2V14.7c0-0.8,0.4-1.5,1-1.9
							L15.5,2.6C17,1.6,18.9,2.7,18.9,4.4"/>
					</g>
				</g>
			</g>
		</g>
	</g>
</g>
</svg>
