<?xml version="1.0" encoding="utf-8"?>
<!-- Generator: Adobe Illustrator 19.2.1, SVG Export Plug-In . SVG Version: 6.00 Build 0)  -->
<svg version="1.1" id="Layer_1" xmlns="http://www.w3.org/2000/svg" xmlns:xlink="http://www.w3.org/1999/xlink" x="0px" y="0px"
	 viewBox="0 0 43 39" style="enable-background:new 0 0 43 39;" xml:space="preserve">
<style type="text/css">
	.st0{opacity:0.3;}
	.st1{fill:#5E5B54;}
	.st2{fill:#B6B5B3;}
</style>
<g id="Projects---General" class="st0">
	<g id="Projects---Logged-in" transform="translate(-270.000000, -1222.000000)">
		<g id="Make-Art" transform="translate(-2.000000, 1178.000000)">
			<g id="make-art-icon-grey" transform="translate(272.000000, 44.000000)">
				<g id="Group-26">
					<path id="Fill-18" class="st1" d="M0.4,8.2C0.2,8,0.1,7.7,0.1,7.3L0,1.8c0-0.5,0.2-0.9,0.5-1.2c0.3-0.3,0.8-0.5,1.2-0.5L7.3,0
						c0.6,0,1.1,0.3,1.5,0.8C8.9,1,9,1.3,9,1.7c0,0.9-0.7,1.7-1.7,1.7L3.5,3.5l0.1,3.8C3.5,8.2,2.8,9,1.8,9c-0.4,0-0.7-0.1-1-0.3
						C0.7,8.6,0.5,8.4,0.4,8.2"/>
					<path id="Fill-20" class="st1" d="M42.6,30.8c0.2,0.3,0.3,0.6,0.3,0.9l0.1,5.5c0,0.5-0.2,0.9-0.5,1.2c-0.3,0.3-0.8,0.5-1.2,0.5
						L35.7,39c-0.6,0-1.1-0.3-1.5-0.8C34.1,38,34,37.7,34,37.3c0-0.9,0.7-1.7,1.7-1.7l3.8-0.1l-0.1-3.8c0-0.9,0.7-1.7,1.7-1.7
						c0.4,0,0.7,0.1,1,0.3C42.3,30.4,42.5,30.6,42.6,30.8"/>
					<path id="Combined-Shape" class="st1" d="M12.4,18C7.1,18.5,3,23,3,28.5C3,34.3,7.7,39,13.5,39c5.5,0,10.1-4.2,10.5-9.6h-2.9
						c-0.3,3.4-3.6,6.8-7.6,6.8c-4.2,0-7.6-3.6-7.6-7.8c0-3.8,2.5-6.9,6.5-7.5V18z"/>
					<path id="Combined-Shape_1_" class="st1" d="M23.4,10H15c-1.8,0-3,1.5-3,3.4v13.1c0,1.9,1.2,3.5,3,3.5h12.8
						c1.9,0,3.2-1.6,3.2-3.5v-6h-5.9h2.9v6c0,0.1,0.1,0.5-0.3,0.5H15h-0.2h0c0,0,0.1-0.3,0.1-0.5V13.4c0-0.2-0.1-0.4,0.1-0.4h6.6
						l-1.8,3.1c-0.3,0.5-0.4,1-0.4,1.6c0-0.5,0.1-1.1,0.4-1.6l1.8-3.1h0L23.4,10z"/>
					<path id="Fill-24" class="st1" d="M40.1,21H21.9c-1,0-2-0.6-2.5-1.5c-0.5-0.9-0.5-2.1,0-2.9l9.1-15.1C29.1,0.5,30,0,31,0
						c1,0,1.9,0.5,2.5,1.4l9.1,15.1c0.5,0.9,0.5,2.1,0,3C42.1,20.4,41.2,21,40.1,21z M22.1,18h17.8L31,3.2L22.1,18z"/>
				</g>
			</g>
		</g>
	</g>
</g>
</svg>
