<?xml version="1.0" encoding="utf-8"?>
<!-- Generator: Adobe Illustrator 18.1.0, SVG Export Plug-In . SVG Version: 6.00 Build 0)  -->
<svg version="1.1" id="Layer_1" xmlns="http://www.w3.org/2000/svg" xmlns:xlink="http://www.w3.org/1999/xlink" x="0px" y="0px"
	 viewBox="0 0 100 100" enable-background="new 0 0 100 100" xml:space="preserve">
<path fill="#FFFFFF" d="M50,2C23.5,2,2,23.5,2,50s21.5,48,48,48s48-21.5,48-48S76.5,2,50,2z M65.4,52.2L39.6,67.3
	c-0.6,0.3-1.1,0.4-1.7,0C37.3,67,37,66.5,37,65.8V34.1c0-0.7,0.3-1.2,0.8-1.5c0.6-0.3,1.2-0.3,1.7,0l25.8,15.1
	c0.9,0.5,1.3,1.3,1.3,2.3C66.7,51,66.3,51.7,65.4,52.2z"/>
</svg>
