<?xml version="1.0" encoding="utf-8"?>
<!-- Generator: Adobe Illustrator 18.1.0, SVG Export Plug-In . SVG Version: 6.00 Build 0)  -->
<svg version="1.1" id="Layer_1" xmlns="http://www.w3.org/2000/svg" xmlns:xlink="http://www.w3.org/1999/xlink" x="0px" y="0px"
	 viewBox="0 0 28 28" enable-background="new 0 0 28 28" xml:space="preserve">
<g>
	<g>
		<g>
			<g opacity="0.15">
				<path d="M8.9,26.7c-0.8,0-1.5-0.2-2.1-0.7c0,0,0,0,0,0c-1.1-0.8-1.7-2.2-1.5-3.6l0.7-4L3,15.7c-1-1-1.4-2.4-1-3.8
					c0.4-1.1,1.2-2,2.3-2.4C4.6,9.5,4.8,9.4,5,9.4l4-0.6l1.7-3.6c0.4-0.9,1.2-1.6,2.1-1.9c0.4-0.1,0.8-0.2,1.2-0.2
					c1.4,0,2.7,0.8,3.3,2l1.8,3.6l4,0.5c1.4,0.2,2.6,1.1,3,2.5c0,0,0,0,0,0.1c0.4,1.3,0,2.8-0.9,3.7l-2.9,2.8l0.7,3.9
					c0.3,1.4-0.3,2.8-1.4,3.6c-0.3,0.2-0.7,0.4-1,0.5c-0.4,0.1-0.8,0.2-1.2,0.2c0,0,0,0-0.1,0c-0.6,0-1.1-0.1-1.6-0.4c0,0,0,0,0,0
					l-3.6-1.8l-3.5,1.9c-0.2,0.1-0.4,0.2-0.6,0.3C9.7,26.7,9.3,26.7,8.9,26.7z"/>
			</g>
			<g>
				<g>
					<path fill="#FE8233" d="M8.9,24.7c-0.8,0-1.5-0.2-2.1-0.7c0,0,0,0,0,0c-1.1-0.8-1.7-2.2-1.5-3.6l0.7-4L3,13.7
						c-1-1-1.4-2.4-1-3.8c0.4-1.1,1.2-2,2.3-2.4C4.6,7.5,4.8,7.4,5,7.4l4-0.6l1.7-3.6c0.4-0.9,1.2-1.6,2.1-1.9
						c0.4-0.1,0.8-0.2,1.2-0.2c1.4,0,2.7,0.8,3.3,2l1.8,3.6l4,0.5c1.4,0.2,2.6,1.1,3,2.5c0,0,0,0,0,0.1c0.4,1.3,0,2.8-0.9,3.7
						l-2.9,2.8l0.7,3.9c0.3,1.4-0.3,2.8-1.4,3.6c-0.3,0.2-0.7,0.4-1,0.5c-0.4,0.1-0.8,0.2-1.2,0.2c0,0,0,0-0.1,0
						c-0.6,0-1.1-0.1-1.6-0.4c0,0,0,0,0,0l-3.6-1.8l-3.5,1.9c-0.2,0.1-0.4,0.2-0.6,0.3C9.7,24.7,9.3,24.7,8.9,24.7z"/>
				</g>
			</g>
		</g>
	</g>
</g>
<path fill="#FEE33E" d="M25,10.1c-0.3-0.9-1.1-1.6-2-1.7l-4.6-0.6l-2.1-4.2C15.9,2.8,15,2.2,14,2.2c-0.3,0-0.5,0-0.8,0.1
	c-0.6,0.2-1.2,0.7-1.5,1.3l-2,4.2L5.2,8.5C5,8.6,4.9,8.6,4.7,8.6C4,8.9,3.4,9.5,3.2,10.3c-0.3,0.9,0,1.9,0.7,2.6L7.2,16l-0.8,4.6
	c-0.1,0.9,0.2,1.9,1,2.5c0.4,0.3,0.9,0.5,1.4,0.5c0.3,0,0.5,0,0.8-0.1c0.1,0,0.3-0.1,0.4-0.2l4.1-2.2l4.1,2.1
	c0.4,0.2,0.7,0.3,1.2,0.3c0.3,0,0.5,0,0.8-0.1c0.3-0.1,0.5-0.2,0.7-0.4c0.8-0.6,1.2-1.5,1-2.5l-0.8-4.6l3.3-3.3
	C25.1,12,25.3,11,25,10.1z"/>
</svg>
