<?xml version="1.0" standalone="no"?>
<!DOCTYPE svg PUBLIC "-//W3C//DTD SVG 20010904//EN"
 "http://www.w3.org/TR/2001/REC-SVG-20010904/DTD/svg10.dtd">
<svg version="1.0" xmlns="http://www.w3.org/2000/svg"
 width="196.000000pt" height="196.000000pt" viewBox="0 0 196.000000 196.000000"
 preserveAspectRatio="xMidYMid meet">
<metadata>
Created by potrace 1.11, written by Peter Selinger 2001-2013
</metadata>
<g transform="translate(0.000000,196.000000) scale(0.100000,-0.100000)"
fill="#000000" stroke="none">
<path d="M815 1811 c-192 -41 -311 -105 -441 -237 -138 -139 -204 -275 -242
-500 -5 -28 -7 -83 -5 -122 l3 -71 -49 -65 c-60 -79 -76 -137 -55 -205 20 -68
78 -117 164 -137 19 -4 38 -9 43 -10 4 -1 20 -2 36 -3 22 -1 47 -19 102 -74
41 -39 85 -79 98 -87 13 -8 29 -20 35 -26 27 -25 188 -95 266 -116 88 -22 265
-31 340 -16 19 4 51 10 70 13 19 4 68 19 108 35 274 106 467 338 526 632 9 42
16 93 16 113 0 27 11 51 50 100 90 118 92 208 8 287 -35 33 -114 68 -154 68
-7 0 -16 9 -19 20 -3 11 -11 20 -16 20 -5 0 -9 6 -9 13 0 22 -104 139 -171
193 -99 80 -234 147 -340 168 -13 3 -46 9 -74 14 -74 15 -200 12 -290 -7z"/>
</g>
</svg>
