<svg xmlns="http://www.w3.org/2000/svg" viewBox="0 0 126.54 126.54"><defs><style>.cls-1{isolation:isolate;}.cls-2{fill:#ffb66f;}.cls-3{fill:#fff;}.cls-4{fill:#57473e;}.cls-5{fill:#986d46;}.cls-6{fill:#ff6139;}.cls-7{opacity:0.08;mix-blend-mode:multiply;}.cls-8{fill:#515451;}.cls-9{fill:#626662;}.cls-10{fill:#5d5c58;}.cls-11{fill:#6b6a65;}.cls-12{fill:#ffce9e;}</style></defs><title>Untitled-1</title><g class="cls-1"><g id="Layer_1" data-name="Layer 1"><circle class="cls-2" cx="62.41" cy="67.66" r="47.11"/><path class="cls-3" d="M45.21,70.33c0,3.83-3.11,5.87-6.94,5.87s-6.94-2-6.94-5.87A6.94,6.94,0,0,1,45.21,70.33Z"/><circle class="cls-4" cx="38.27" cy="71" r="3.18"/><circle class="cls-3" cx="35.81" cy="68.99" r="1.19"/><path class="cls-3" d="M93.49,70.33c0,3.83-3.11,5.87-6.94,5.87s-6.94-2-6.94-5.87A6.94,6.94,0,0,1,93.49,70.33Z"/><circle class="cls-4" cx="86.56" cy="71" r="3.18"/><circle class="cls-3" cx="84.1" cy="68.99" r="1.19"/><path class="cls-5" d="M82,82.56a19.92,19.92,0,0,1-39.23,0,2.93,2.93,0,0,1,2.88-3.44H79.14A2.94,2.94,0,0,1,82,82.56Z"/><path class="cls-3" d="M78,79.12L77.6,83a1.23,1.23,0,0,1-1.22,1.11H49.32A1.23,1.23,0,0,1,48.1,83l-0.4-3.92H78Z"/><path class="cls-6" d="M72.19,96.47a19.91,19.91,0,0,1-19.55,0A18.33,18.33,0,0,1,62.41,94,18.33,18.33,0,0,1,72.19,96.47Z"/><path class="cls-7" d="M109.44,67.53c0,0.16,0,.33,0,0.49a46.39,46.39,0,0,1-4.68,20l0,0.06C96.44,73,78.69,69.64,62.36,64c-13.55-4.7-28.65-20.55-35.9-28.88-0.06-.07-0.11-0.13-0.16-0.19l0.25-.32a2.05,2.05,0,0,1,.33-0.32l0.39-.3c26.63-19.87,54.91-14.22,70.88,3A46.81,46.81,0,0,1,109.44,67.53Z"/><path class="cls-8" d="M20.54,34.55C18.89,36.2,4,51.86,12.77,73a1.52,1.52,0,0,0,2.39.6C19.07,70.25,29.09,61.14,30,54.65s4.46-18.07,5.9-22.58a1.5,1.5,0,0,0-1.45-2c-2.59,0-7.45.71-13.53,4.19A1.58,1.58,0,0,0,20.54,34.55Z"/><path class="cls-9" d="M35.85,32.07l-0.33,1a1.56,1.56,0,0,0-1.12-.26c-2.76.39-7.86,1.72-13.89,6.23a1.59,1.59,0,0,0-.32.31C18.84,41.12,8,55.76,13.59,73.83A1.55,1.55,0,0,1,12.76,73C4,51.86,18.89,36.2,20.54,34.55a1.76,1.76,0,0,1,.33-0.25c6.07-3.49,10.93-4.14,13.52-4.19A1.5,1.5,0,0,1,35.85,32.07Z"/><path class="cls-10" d="M102.24,30a52.82,52.82,0,0,0-80.47,1.77,1.22,1.22,0,0,0,.25.35c5,5.11,25.31,25,42,29.18C82,65.81,101.31,67.5,110.27,84.71a1.48,1.48,0,0,0,1.25.82,50.62,50.62,0,0,0,2.5-7.58A52.87,52.87,0,0,0,102.24,30Z"/><path class="cls-11" d="M115.59,65.14A52.44,52.44,0,0,1,114,77.94a50.5,50.5,0,0,1-2.2,6.85c0.35-1.8.63-3.64,0.83-5.51a60.46,60.46,0,0,0-9.48-39.6A54.27,54.27,0,0,0,78.15,19a50.66,50.66,0,0,0-50.57,7.53,55.57,55.57,0,0,0-5.8,5.29A52.83,52.83,0,0,1,115.59,65.14Z"/><circle class="cls-12" cx="33.6" cy="79.85" r="1.61"/><circle class="cls-12" cx="91.22" cy="79.85" r="1.61"/></g></g></svg>