<svg xmlns="http://www.w3.org/2000/svg" viewBox="0 0 105.56 102.46"><defs><style>.cls-1{isolation:isolate;}.cls-2{fill:#f8b571;}.cls-3{fill:#fff;}.cls-4{fill:#58483f;}.cls-5{fill:#986e46;}.cls-6{fill:#ec6242;}.cls-7{fill:#010101;opacity:0.08;mix-blend-mode:multiply;}.cls-8{fill:#525552;}.cls-9{fill:#636764;}.cls-10{fill:#5e5d59;}.cls-11{fill:#6d6b66;}.cls-12{fill:#fcce9f;}</style></defs><title>bg-shapesArtboard 3</title><g class="cls-1"><g id="Layer_1" data-name="Layer 1"><circle class="cls-2" cx="52.38" cy="55.34" r="47.11"/><path class="cls-3" d="M35.17,58c0,3.83-3.11,5.87-6.94,5.87s-6.94-2-6.94-5.87a6.94,6.94,0,0,1,13.87,0Z"/><circle class="cls-4" cx="28.24" cy="58.68" r="3.18"/><circle class="cls-3" cx="25.78" cy="56.67" r="1.19"/><path class="cls-3" d="M83.46,58c0,3.83-3.11,5.87-6.94,5.87s-6.94-2-6.94-5.87a6.94,6.94,0,0,1,13.87,0Z"/><circle class="cls-4" cx="76.52" cy="58.68" r="3.18"/><circle class="cls-3" cx="74.06" cy="56.67" r="1.19"/><path class="cls-5" d="M72,70.25a19.92,19.92,0,0,1-39.23,0,2.93,2.93,0,0,1,2.88-3.44H69.11A2.94,2.94,0,0,1,72,70.25Z"/><path class="cls-3" d="M68,66.81l-.4,3.92a1.23,1.23,0,0,1-1.22,1.11H39.28a1.23,1.23,0,0,1-1.22-1.11l-.4-3.92Z"/><path class="cls-6" d="M62.16,84.15a19.91,19.91,0,0,1-19.55,0,18.33,18.33,0,0,1,9.78-2.45A18.33,18.33,0,0,1,62.16,84.15Z"/><path class="cls-7" d="M99.41,55.22c0,.16,0,.33,0,.49a46.39,46.39,0,0,1-4.68,20l0,.06c-8.28-15.05-26-18.4-42.36-24.08-13.55-4.7-28.65-20.55-35.9-28.88-.06-.07-.11-.13-.16-.19l.25-.32a2.05,2.05,0,0,1,.33-.32l.39-.3c26.63-19.87,54.91-14.22,70.88,3A46.81,46.81,0,0,1,99.41,55.22Z"/><path class="cls-8" d="M10.51,22.23C8.85,23.89-6,39.55,2.73,60.67a1.52,1.52,0,0,0,2.39.6C9,57.94,19.05,48.82,19.93,42.34s4.46-18.07,5.9-22.58a1.5,1.5,0,0,0-1.45-2c-2.59,0-7.45.71-13.53,4.19A1.58,1.58,0,0,0,10.51,22.23Z"/><path class="cls-9" d="M25.82,19.76l-.33,1a1.56,1.56,0,0,0-1.12-.26c-2.76.39-7.86,1.72-13.89,6.23a1.59,1.59,0,0,0-.32.31C8.8,28.8-2.06,43.44,3.56,61.51a1.55,1.55,0,0,1-.83-.84C-6,39.55,8.86,23.89,10.51,22.24a1.76,1.76,0,0,1,.33-.25c6.07-3.49,10.93-4.14,13.52-4.19A1.5,1.5,0,0,1,25.82,19.76Z"/><path class="cls-10" d="M92.21,17.72A52.82,52.82,0,0,0,11.75,19.5a1.22,1.22,0,0,0,.25.35C17,25,37.31,44.84,54,49c17.94,4.48,37.29,6.17,46.24,23.38a1.48,1.48,0,0,0,1.25.82,50.62,50.62,0,0,0,2.5-7.58A52.87,52.87,0,0,0,92.21,17.72Z"/><path class="cls-11" d="M105.56,52.83A52.44,52.44,0,0,1,104,65.63a50.5,50.5,0,0,1-2.2,6.85c.35-1.8.63-3.64.83-5.51a60.46,60.46,0,0,0-9.48-39.6,54.27,54.27,0,0,0-25-20.69A50.66,50.66,0,0,0,17.54,14.2a55.57,55.57,0,0,0-5.8,5.29,52.83,52.83,0,0,1,93.82,33.33Z"/><circle class="cls-12" cx="23.57" cy="67.53" r="1.61"/><circle class="cls-12" cx="81.19" cy="67.53" r="1.61"/></g></g></svg>