<?xml version="1.0" encoding="UTF-8" standalone="no"?>
<svg width="100px" height="85px" viewBox="0 0 100 85" version="1.1" xmlns="http://www.w3.org/2000/svg" xmlns:xlink="http://www.w3.org/1999/xlink">
    <!-- Generator: Sketch 40.3 (33839) - http://www.bohemiancoding.com/sketch -->
    <title>Page 1</title>
    <desc>Created with Sketch.</desc>
    <defs></defs>
    <g id="Page-1" stroke="none" stroke-width="1" fill="none" fill-rule="evenodd">
        <g transform="translate(4.000000, 0.000000)">
            <g id="Group-11" opacity="0.186508862" transform="translate(0.000000, 1.382600)">
                <path d="M45.7615,0.6177 C23.0115,0.6177 4.5705,19.0597 4.5705,41.8087 C4.5705,64.5577 23.0115,82.9997 45.7615,82.9997 C68.5115,82.9997 86.9525,64.5577 86.9525,41.8087 C86.9525,19.0597 68.5115,0.6177 45.7615,0.6177" id="Fill-1" fill="#000000"></path>
                <path d="M86.1907,31.0552 C86.1907,31.0552 86.1757,31.0552 86.1757,31.0402 C86.1607,31.0102 86.1607,30.9792 86.1607,30.9492 L86.1147,30.9042 C86.0847,30.8882 86.0537,30.8732 86.0237,30.8582 C86.0237,30.8732 86.0087,30.9042 85.9937,30.9192 C85.6747,31.4802 84.5507,32.7992 82.6087,34.1342 C80.6967,35.4982 78.1007,37.0002 74.9887,38.4862 C74.7147,38.6222 74.4267,38.7592 74.1387,38.8952 C73.8957,36.9702 73.4557,35.0432 72.8027,33.1332 C72.4997,32.2382 72.1497,31.3732 71.7557,30.5392 C75.5507,30.0542 78.8287,29.8882 81.3947,29.9932 C83.6867,30.0692 85.3567,30.4942 86.0237,30.8582 C86.1297,30.6762 86.0847,30.6462 86.1607,30.9492 L86.1757,30.9642 C86.1907,30.9792 86.1907,30.9942 86.1907,31.0252 L86.1907,31.0552 Z M20.2397,56.1232 C17.5377,56.6082 14.7897,56.9872 12.1937,57.1232 C11.2077,57.1692 10.2217,57.1692 9.3717,57.1092 C9.3677,57.1122 9.3657,57.1162 9.3617,57.1192 C9.3597,57.1162 9.3587,57.1112 9.3577,57.1072 C9.3617,57.1072 9.3667,57.1082 9.3717,57.1092 C9.9477,56.5022 10.6307,55.8652 11.3297,55.2432 C13.3487,53.5302 15.6397,51.8922 17.9927,50.3602 C18.0527,50.3152 18.1287,50.2692 18.1907,50.2232 C18.3417,50.7392 18.4937,51.2402 18.6757,51.7552 C19.1917,53.2722 19.8297,54.6972 20.5727,56.0622 C20.4667,56.0772 20.3457,56.1082 20.2397,56.1232 L20.2397,56.1232 Z M91.4727,30.1152 C91.4577,29.9632 91.4417,29.9182 91.4417,29.8882 C91.4277,29.8572 91.4117,29.8112 91.4117,29.7812 C91.3977,29.7212 91.3817,29.6602 91.3667,29.6302 C91.3517,29.5392 91.3367,29.4932 91.3367,29.4932 L91.2607,29.2202 L91.1237,28.9022 C91.0327,28.7042 90.8967,28.4012 90.6687,28.0832 C90.2287,27.4462 89.3927,26.7182 88.4367,26.2632 C86.5397,25.4142 84.2017,25.1562 81.4397,25.2172 C78.1467,25.2922 74.1847,25.8382 69.6757,26.7632 C62.6787,16.0722 49.0637,11.0532 36.4197,15.4052 C24.1557,19.6212 16.6117,31.3132 17.1427,43.6272 C16.3537,43.9762 15.5787,44.3252 14.8057,44.7032 C12.1027,46.0082 9.4017,47.4182 6.7457,49.2532 C5.4097,50.1782 4.0887,51.1792 2.7987,52.5442 C2.1307,53.2722 1.4777,54.0152 0.8567,55.1822 C0.5517,55.7892 0.2637,56.4562 0.0967,57.3512 C0.0817,57.4722 0.0507,57.5482 0.0367,57.7002 L0.0057,58.2162 C-0.0093,58.5492 0.0057,58.9132 0.0367,59.2462 L0.0817,59.5652 L0.1117,59.7012 L0.1567,59.9752 C0.2637,60.3542 0.3097,60.5052 0.3397,60.5662 L0.3397,60.5812 C0.3397,60.5812 0.3557,60.5812 0.3697,60.6572 L0.4457,60.8392 L0.6287,61.2332 C0.7497,61.4762 0.8867,61.7492 1.0227,61.9462 C1.3117,62.3402 1.6747,62.8102 1.9947,63.0832 C2.6627,63.7052 3.3147,64.0842 3.9217,64.4032 C5.1217,65.0102 6.0927,65.2372 7.0797,65.4642 C8.9617,65.8442 10.6457,65.9342 12.2857,65.9802 C15.2147,66.0412 17.9627,65.8132 20.6647,65.4802 C20.9987,65.4492 21.3167,65.4042 21.6507,65.3582 C23.6247,65.1162 25.5667,64.8122 27.4637,64.4492 C31.3957,63.7362 35.1897,62.8102 38.8787,61.8252 C44.3277,60.2332 49.4737,58.5952 54.3157,56.6992 C59.1567,54.8492 63.6047,52.8022 67.6427,50.7242 C69.8737,49.5872 71.9837,48.4342 73.9417,47.2972 C74.8977,46.7512 75.8237,46.2052 76.7037,45.6592 C77.2957,45.2952 77.8577,44.9462 78.4197,44.5822 C81.5457,42.5652 84.2177,40.6552 86.3427,38.8042 C88.4367,36.9702 90.0767,35.2102 90.9717,33.2692 C91.3977,32.2842 91.6247,31.2672 91.4727,30.1152 L91.4727,30.1152 Z M55.0437,69.4832 C63.5447,66.5722 69.7677,60.0662 72.6207,52.2412 C59.9167,60.9602 46.2107,66.3592 36.3587,69.4532 C42.2027,71.4852 48.7447,71.6522 55.0437,69.4832 L55.0437,69.4832 Z" id="Fill-3" fill="#000000"></path>
                <path d="M86.1907,31.0552 C86.1907,31.0552 86.1757,31.0552 86.1757,31.0402 C86.1607,31.0102 86.1607,30.9792 86.1607,30.9492 L86.1147,30.9042 C86.0847,30.8882 86.0537,30.8732 86.0237,30.8582 C86.0237,30.8732 86.0087,30.9042 85.9937,30.9192 C85.6747,31.4802 84.5507,32.7992 82.6087,34.1342 C80.6967,35.4982 78.1007,37.0002 74.9887,38.4862 C74.7147,38.6222 74.4267,38.7592 74.1387,38.8952 C73.8957,36.9702 73.4557,35.0432 72.8027,33.1332 C72.4997,32.2382 72.1497,31.3732 71.7557,30.5392 C75.5507,30.0542 78.8287,29.8882 81.3947,29.9932 C83.6867,30.0692 85.3567,30.4942 86.0237,30.8582 C86.1297,30.6762 86.0847,30.6462 86.1607,30.9492 L86.1757,30.9642 C86.1907,30.9792 86.1907,30.9942 86.1907,31.0252 L86.1907,31.0552 L86.1907,31.0552 Z M20.2397,56.1232 C17.5377,56.6082 14.7897,56.9872 12.1937,57.1232 C11.2077,57.1692 10.2217,57.1692 9.3717,57.1092 C9.3677,57.1122 9.3657,57.1162 9.3617,57.1192 C9.3597,57.1162 9.3587,57.1112 9.3577,57.1072 C9.3617,57.1072 9.3667,57.1082 9.3717,57.1092 C9.9477,56.5022 10.6307,55.8652 11.3297,55.2432 C13.3487,53.5302 15.6397,51.8922 17.9927,50.3602 C18.0527,50.3152 18.1287,50.2692 18.1907,50.2232 C18.3417,50.7392 18.4937,51.2402 18.6757,51.7552 C19.1917,53.2722 19.8297,54.6972 20.5727,56.0622 C20.4667,56.0772 20.3457,56.1082 20.2397,56.1232 L20.2397,56.1232 Z M91.4727,30.1152 C91.4577,29.9632 91.4417,29.9182 91.4417,29.8882 C91.4277,29.8572 91.4117,29.8112 91.4117,29.7812 C91.3977,29.7212 91.3817,29.6602 91.3667,29.6302 C91.3517,29.5392 91.3367,29.4932 91.3367,29.4932 L91.2607,29.2202 L91.1237,28.9022 C91.0327,28.7042 90.8967,28.4012 90.6687,28.0832 C90.2287,27.4462 89.3927,26.7182 88.4367,26.2632 C86.5397,25.4142 84.2017,25.1562 81.4397,25.2172 C78.1467,25.2922 74.1847,25.8382 69.6757,26.7632 C62.6787,16.0722 49.0637,11.0532 36.4197,15.4052 C24.1557,19.6212 16.6117,31.3132 17.1427,43.6272 C16.3537,43.9762 15.5787,44.3252 14.8057,44.7032 C12.1027,46.0082 9.4017,47.4182 6.7457,49.2532 C5.4097,50.1782 4.0887,51.1792 2.7987,52.5442 C2.1307,53.2722 1.4777,54.0152 0.8567,55.1822 C0.5517,55.7892 0.2637,56.4562 0.0967,57.3512 C0.0817,57.4722 0.0507,57.5482 0.0367,57.7002 L0.0057,58.2162 C-0.0093,58.5492 0.0057,58.9132 0.0367,59.2462 L0.0817,59.5652 L0.1117,59.7012 L0.1567,59.9752 C0.2637,60.3542 0.3097,60.5052 0.3397,60.5662 L0.3397,60.5812 C0.3397,60.5812 0.3557,60.5812 0.3697,60.6572 L0.4457,60.8392 L0.6287,61.2332 C0.7497,61.4762 0.8867,61.7492 1.0227,61.9462 C1.3117,62.3402 1.6747,62.8102 1.9947,63.0832 C2.6627,63.7052 3.3147,64.0842 3.9217,64.4032 C5.1217,65.0102 6.0927,65.2372 7.0797,65.4642 C8.9617,65.8442 10.6457,65.9342 12.2857,65.9802 C15.2147,66.0412 17.9627,65.8132 20.6647,65.4802 C20.9987,65.4492 21.3167,65.4042 21.6507,65.3582 C23.6247,65.1162 25.5667,64.8122 27.4637,64.4492 C31.3957,63.7362 35.1897,62.8102 38.8787,61.8252 C44.3277,60.2332 49.4737,58.5952 54.3157,56.6992 C59.1567,54.8492 63.6047,52.8022 67.6427,50.7242 C69.8737,49.5872 71.9837,48.4342 73.9417,47.2972 C74.8977,46.7512 75.8237,46.2052 76.7037,45.6592 C77.2957,45.2952 77.8577,44.9462 78.4197,44.5822 C81.5457,42.5652 84.2177,40.6552 86.3427,38.8042 C88.4367,36.9702 90.0767,35.2102 90.9717,33.2692 C91.3977,32.2842 91.6247,31.2672 91.4727,30.1152 L91.4727,30.1152 Z M55.0437,69.4832 C63.5447,66.5722 69.7677,60.0662 72.6207,52.2412 C59.9167,60.9602 46.2107,66.3592 36.3587,69.4532 C42.2027,71.4852 48.7447,71.6522 55.0437,69.4832 L55.0437,69.4832 Z" id="Stroke-5" stroke="#000000" stroke-width="8" stroke-linecap="round" stroke-linejoin="round"></path>
                <path d="M45.7615,4.312 C25.0525,4.312 8.2645,21.1 8.2645,41.809 C8.2645,62.518 25.0525,79.305 45.7615,79.305 C66.4705,79.305 83.2585,62.518 83.2585,41.809 C83.2585,21.1 66.4705,4.312 45.7615,4.312" id="Fill-7" fill="#000000"></path>
                <path d="M86.1907,31.0552 C86.1907,31.0552 86.1757,31.0552 86.1757,31.0402 C86.1607,31.0102 86.1607,30.9792 86.1607,30.9492 L86.1147,30.9042 C86.0847,30.8882 86.0537,30.8732 86.0237,30.8582 C86.0237,30.8732 86.0087,30.9042 85.9937,30.9192 C85.6747,31.4802 84.5507,32.7992 82.6087,34.1342 C80.6967,35.4982 78.1007,37.0002 74.9887,38.4862 C74.7147,38.6222 74.4267,38.7592 74.1387,38.8952 C73.8957,36.9702 73.4557,35.0432 72.8027,33.1332 C72.4997,32.2382 72.1497,31.3732 71.7557,30.5392 C75.5507,30.0542 78.8287,29.8882 81.3947,29.9932 C83.6867,30.0692 85.3567,30.4942 86.0237,30.8582 C86.1297,30.6762 86.0847,30.6462 86.1607,30.9492 L86.1757,30.9642 C86.1907,30.9792 86.1907,30.9942 86.1907,31.0252 L86.1907,31.0552 Z M20.2397,56.1232 C17.5377,56.6082 14.7897,56.9872 12.1937,57.1232 C11.2077,57.1692 10.2217,57.1692 9.3717,57.1092 C9.3677,57.1122 9.3657,57.1162 9.3617,57.1192 C9.3597,57.1162 9.3587,57.1112 9.3577,57.1072 C9.3617,57.1072 9.3667,57.1082 9.3717,57.1092 C9.9477,56.5022 10.6307,55.8652 11.3297,55.2432 C13.3487,53.5302 15.6397,51.8922 17.9927,50.3602 C18.0527,50.3152 18.1287,50.2692 18.1907,50.2232 C18.3417,50.7392 18.4937,51.2402 18.6757,51.7552 C19.1917,53.2722 19.8297,54.6972 20.5727,56.0622 C20.4667,56.0772 20.3457,56.1082 20.2397,56.1232 L20.2397,56.1232 Z M91.4727,30.1152 C91.4577,29.9632 91.4417,29.9182 91.4417,29.8882 C91.4277,29.8572 91.4117,29.8112 91.4117,29.7812 C91.3977,29.7212 91.3817,29.6602 91.3667,29.6302 C91.3517,29.5392 91.3367,29.4932 91.3367,29.4932 L91.2607,29.2202 L91.1237,28.9022 C91.0327,28.7042 90.8967,28.4012 90.6687,28.0832 C90.2287,27.4462 89.3927,26.7182 88.4367,26.2632 C86.5397,25.4142 84.2017,25.1562 81.4397,25.2172 C78.1467,25.2922 74.1847,25.8382 69.6757,26.7632 C62.6787,16.0722 49.0637,11.0532 36.4197,15.4052 C24.1557,19.6212 16.6117,31.3132 17.1427,43.6272 C16.3537,43.9762 15.5787,44.3252 14.8057,44.7032 C12.1027,46.0082 9.4017,47.4182 6.7457,49.2532 C5.4097,50.1782 4.0887,51.1792 2.7987,52.5442 C2.1307,53.2722 1.4777,54.0152 0.8567,55.1822 C0.5517,55.7892 0.2637,56.4562 0.0967,57.3512 C0.0817,57.4722 0.0507,57.5482 0.0367,57.7002 L0.0057,58.2162 C-0.0093,58.5492 0.0057,58.9132 0.0367,59.2462 L0.0817,59.5652 L0.1117,59.7012 L0.1567,59.9752 C0.2637,60.3542 0.3097,60.5052 0.3397,60.5662 L0.3397,60.5812 C0.3397,60.5812 0.3557,60.5812 0.3697,60.6572 L0.4457,60.8392 L0.6287,61.2332 C0.7497,61.4762 0.8867,61.7492 1.0227,61.9462 C1.3117,62.3402 1.6747,62.8102 1.9947,63.0832 C2.6627,63.7052 3.3147,64.0842 3.9217,64.4032 C5.1217,65.0102 6.0927,65.2372 7.0797,65.4642 C8.9617,65.8442 10.6457,65.9342 12.2857,65.9802 C15.2147,66.0412 17.9627,65.8132 20.6647,65.4802 C20.9987,65.4492 21.3167,65.4042 21.6507,65.3582 C23.6247,65.1162 25.5667,64.8122 27.4637,64.4492 C31.3957,63.7362 35.1897,62.8102 38.8787,61.8252 C44.3277,60.2332 49.4737,58.5952 54.3157,56.6992 C59.1567,54.8492 63.6047,52.8022 67.6427,50.7242 C69.8737,49.5872 71.9837,48.4342 73.9417,47.2972 C74.8977,46.7512 75.8237,46.2052 76.7037,45.6592 C77.2957,45.2952 77.8577,44.9462 78.4197,44.5822 C81.5457,42.5652 84.2177,40.6552 86.3427,38.8042 C88.4367,36.9702 90.0767,35.2102 90.9717,33.2692 C91.3977,32.2842 91.6247,31.2672 91.4727,30.1152 L91.4727,30.1152 Z M55.0437,69.4832 C63.5447,66.5722 69.7677,60.0662 72.6207,52.2412 C59.9167,60.9602 46.2107,66.3592 36.3587,69.4532 C42.2027,71.4852 48.7447,71.6522 55.0437,69.4832 L55.0437,69.4832 Z" id="Fill-9" fill="#000000"></path>
            </g>
            <path d="M45.7615,0.0003 C23.0115,0.0003 4.5705,18.4423 4.5705,41.1913 C4.5705,63.9403 23.0115,82.3823 45.7615,82.3823 C68.5115,82.3823 86.9525,63.9403 86.9525,41.1913 C86.9525,18.4423 68.5115,0.0003 45.7615,0.0003" id="Fill-12" fill="#FFFFFF"></path>
            <path d="M86.1907,30.4378 C86.1907,30.4378 86.1757,30.4378 86.1757,30.4228 C86.1607,30.3928 86.1607,30.3618 86.1607,30.3318 L86.1147,30.2868 C86.0847,30.2708 86.0537,30.2558 86.0237,30.2408 C86.0237,30.2558 86.0087,30.2868 85.9937,30.3018 C85.6747,30.8628 84.5507,32.1818 82.6087,33.5168 C80.6967,34.8808 78.1007,36.3828 74.9887,37.8688 C74.7147,38.0048 74.4267,38.1418 74.1387,38.2778 C73.8957,36.3528 73.4557,34.4258 72.8027,32.5158 C72.4997,31.6208 72.1497,30.7558 71.7557,29.9218 C75.5507,29.4368 78.8287,29.2708 81.3947,29.3758 C83.6867,29.4518 85.3567,29.8768 86.0237,30.2408 C86.1297,30.0588 86.0847,30.0288 86.1607,30.3318 L86.1757,30.3468 C86.1907,30.3618 86.1907,30.3768 86.1907,30.4078 L86.1907,30.4378 Z M20.2397,55.5058 C17.5377,55.9908 14.7897,56.3698 12.1937,56.5058 C11.2077,56.5518 10.2217,56.5518 9.3717,56.4918 C9.3677,56.4948 9.3657,56.4988 9.3617,56.5018 C9.3597,56.4988 9.3587,56.4938 9.3577,56.4898 C9.3617,56.4898 9.3667,56.4908 9.3717,56.4918 C9.9477,55.8848 10.6307,55.2478 11.3297,54.6258 C13.3487,52.9128 15.6397,51.2748 17.9927,49.7428 C18.0527,49.6978 18.1287,49.6518 18.1907,49.6058 C18.3417,50.1218 18.4937,50.6228 18.6757,51.1378 C19.1917,52.6548 19.8297,54.0798 20.5727,55.4448 C20.4667,55.4598 20.3457,55.4908 20.2397,55.5058 L20.2397,55.5058 Z M91.4727,29.4978 C91.4577,29.3458 91.4417,29.3008 91.4417,29.2708 C91.4277,29.2398 91.4117,29.1938 91.4117,29.1638 C91.3977,29.1038 91.3817,29.0428 91.3667,29.0128 C91.3517,28.9218 91.3367,28.8758 91.3367,28.8758 L91.2607,28.6028 L91.1237,28.2848 C91.0327,28.0868 90.8967,27.7838 90.6687,27.4658 C90.2287,26.8288 89.3927,26.1008 88.4367,25.6458 C86.5397,24.7968 84.2017,24.5388 81.4397,24.5998 C78.1467,24.6748 74.1847,25.2208 69.6757,26.1458 C62.6787,15.4548 49.0637,10.4358 36.4197,14.7878 C24.1557,19.0038 16.6117,30.6958 17.1427,43.0098 C16.3537,43.3588 15.5787,43.7078 14.8057,44.0858 C12.1027,45.3908 9.4017,46.8008 6.7457,48.6358 C5.4097,49.5608 4.0887,50.5618 2.7987,51.9268 C2.1307,52.6548 1.4777,53.3978 0.8567,54.5648 C0.5517,55.1718 0.2637,55.8388 0.0967,56.7338 C0.0817,56.8548 0.0507,56.9308 0.0367,57.0828 L0.0057,57.5988 C-0.0093,57.9318 0.0057,58.2958 0.0367,58.6288 L0.0817,58.9478 L0.1117,59.0838 L0.1567,59.3578 C0.2637,59.7368 0.3097,59.8878 0.3397,59.9488 L0.3397,59.9638 C0.3397,59.9638 0.3557,59.9638 0.3697,60.0398 L0.4457,60.2218 L0.6287,60.6158 C0.7497,60.8588 0.8867,61.1318 1.0227,61.3288 C1.3117,61.7228 1.6747,62.1928 1.9947,62.4658 C2.6627,63.0878 3.3147,63.4668 3.9217,63.7858 C5.1217,64.3928 6.0927,64.6198 7.0797,64.8468 C8.9617,65.2268 10.6457,65.3168 12.2857,65.3628 C15.2147,65.4238 17.9627,65.1958 20.6647,64.8628 C20.9987,64.8318 21.3167,64.7868 21.6507,64.7408 C23.6247,64.4988 25.5667,64.1948 27.4637,63.8318 C31.3957,63.1188 35.1897,62.1928 38.8787,61.2078 C44.3277,59.6158 49.4737,57.9778 54.3157,56.0818 C59.1567,54.2318 63.6047,52.1848 67.6427,50.1068 C69.8737,48.9698 71.9837,47.8168 73.9417,46.6798 C74.8977,46.1338 75.8237,45.5878 76.7037,45.0418 C77.2957,44.6778 77.8577,44.3288 78.4197,43.9648 C81.5457,41.9478 84.2177,40.0378 86.3427,38.1868 C88.4367,36.3528 90.0767,34.5928 90.9717,32.6518 C91.3977,31.6668 91.6247,30.6498 91.4727,29.4978 L91.4727,29.4978 Z M55.0437,68.8658 C63.5447,65.9548 69.7677,59.4488 72.6207,51.6238 C59.9167,60.3428 46.2107,65.7418 36.3587,68.8358 C42.2027,70.8678 48.7447,71.0348 55.0437,68.8658 L55.0437,68.8658 Z" id="Fill-14" fill="#FFFFFF"></path>
            <path d="M86.1907,30.4378 C86.1907,30.4378 86.1757,30.4378 86.1757,30.4228 C86.1607,30.3928 86.1607,30.3618 86.1607,30.3318 L86.1147,30.2868 C86.0847,30.2708 86.0537,30.2558 86.0237,30.2408 C86.0237,30.2558 86.0087,30.2868 85.9937,30.3018 C85.6747,30.8628 84.5507,32.1818 82.6087,33.5168 C80.6967,34.8808 78.1007,36.3828 74.9887,37.8688 C74.7147,38.0048 74.4267,38.1418 74.1387,38.2778 C73.8957,36.3528 73.4557,34.4258 72.8027,32.5158 C72.4997,31.6208 72.1497,30.7558 71.7557,29.9218 C75.5507,29.4368 78.8287,29.2708 81.3947,29.3758 C83.6867,29.4518 85.3567,29.8768 86.0237,30.2408 C86.1297,30.0588 86.0847,30.0288 86.1607,30.3318 L86.1757,30.3468 C86.1907,30.3618 86.1907,30.3768 86.1907,30.4078 L86.1907,30.4378 L86.1907,30.4378 Z M20.2397,55.5058 C17.5377,55.9908 14.7897,56.3698 12.1937,56.5058 C11.2077,56.5518 10.2217,56.5518 9.3717,56.4918 C9.3677,56.4948 9.3657,56.4988 9.3617,56.5018 C9.3597,56.4988 9.3587,56.4938 9.3577,56.4898 C9.3617,56.4898 9.3667,56.4908 9.3717,56.4918 C9.9477,55.8848 10.6307,55.2478 11.3297,54.6258 C13.3487,52.9128 15.6397,51.2748 17.9927,49.7428 C18.0527,49.6978 18.1287,49.6518 18.1907,49.6058 C18.3417,50.1218 18.4937,50.6228 18.6757,51.1378 C19.1917,52.6548 19.8297,54.0798 20.5727,55.4448 C20.4667,55.4598 20.3457,55.4908 20.2397,55.5058 L20.2397,55.5058 Z M91.4727,29.4978 C91.4577,29.3458 91.4417,29.3008 91.4417,29.2708 C91.4277,29.2398 91.4117,29.1938 91.4117,29.1638 C91.3977,29.1038 91.3817,29.0428 91.3667,29.0128 C91.3517,28.9218 91.3367,28.8758 91.3367,28.8758 L91.2607,28.6028 L91.1237,28.2848 C91.0327,28.0868 90.8967,27.7838 90.6687,27.4658 C90.2287,26.8288 89.3927,26.1008 88.4367,25.6458 C86.5397,24.7968 84.2017,24.5388 81.4397,24.5998 C78.1467,24.6748 74.1847,25.2208 69.6757,26.1458 C62.6787,15.4548 49.0637,10.4358 36.4197,14.7878 C24.1557,19.0038 16.6117,30.6958 17.1427,43.0098 C16.3537,43.3588 15.5787,43.7078 14.8057,44.0858 C12.1027,45.3908 9.4017,46.8008 6.7457,48.6358 C5.4097,49.5608 4.0887,50.5618 2.7987,51.9268 C2.1307,52.6548 1.4777,53.3978 0.8567,54.5648 C0.5517,55.1718 0.2637,55.8388 0.0967,56.7338 C0.0817,56.8548 0.0507,56.9308 0.0367,57.0828 L0.0057,57.5988 C-0.0093,57.9318 0.0057,58.2958 0.0367,58.6288 L0.0817,58.9478 L0.1117,59.0838 L0.1567,59.3578 C0.2637,59.7368 0.3097,59.8878 0.3397,59.9488 L0.3397,59.9638 C0.3397,59.9638 0.3557,59.9638 0.3697,60.0398 L0.4457,60.2218 L0.6287,60.6158 C0.7497,60.8588 0.8867,61.1318 1.0227,61.3288 C1.3117,61.7228 1.6747,62.1928 1.9947,62.4658 C2.6627,63.0878 3.3147,63.4668 3.9217,63.7858 C5.1217,64.3928 6.0927,64.6198 7.0797,64.8468 C8.9617,65.2268 10.6457,65.3168 12.2857,65.3628 C15.2147,65.4238 17.9627,65.1958 20.6647,64.8628 C20.9987,64.8318 21.3167,64.7868 21.6507,64.7408 C23.6247,64.4988 25.5667,64.1948 27.4637,63.8318 C31.3957,63.1188 35.1897,62.1928 38.8787,61.2078 C44.3277,59.6158 49.4737,57.9778 54.3157,56.0818 C59.1567,54.2318 63.6047,52.1848 67.6427,50.1068 C69.8737,48.9698 71.9837,47.8168 73.9417,46.6798 C74.8977,46.1338 75.8237,45.5878 76.7037,45.0418 C77.2957,44.6778 77.8577,44.3288 78.4197,43.9648 C81.5457,41.9478 84.2177,40.0378 86.3427,38.1868 C88.4367,36.3528 90.0767,34.5928 90.9717,32.6518 C91.3977,31.6668 91.6247,30.6498 91.4727,29.4978 L91.4727,29.4978 Z M55.0437,68.8658 C63.5447,65.9548 69.7677,59.4488 72.6207,51.6238 C59.9167,60.3428 46.2107,65.7418 36.3587,68.8358 C42.2027,70.8678 48.7447,71.0348 55.0437,68.8658 L55.0437,68.8658 Z" id="Stroke-16" stroke="#FFFFFF" stroke-width="8" stroke-linecap="round" stroke-linejoin="round"></path>
            <path d="M45.7615,3.6946 C25.0525,3.6946 8.2645,20.4826 8.2645,41.1916 C8.2645,61.9006 25.0525,78.6876 45.7615,78.6876 C66.4705,78.6876 83.2585,61.9006 83.2585,41.1916 C83.2585,20.4826 66.4705,3.6946 45.7615,3.6946" id="Fill-18" fill="#60E3F7"></path>
            <path d="M86.1907,30.4378 C86.1907,30.4378 86.1757,30.4378 86.1757,30.4228 C86.1607,30.3928 86.1607,30.3618 86.1607,30.3318 L86.1147,30.2868 C86.0847,30.2708 86.0537,30.2558 86.0237,30.2408 C86.0237,30.2558 86.0087,30.2868 85.9937,30.3018 C85.6747,30.8628 84.5507,32.1818 82.6087,33.5168 C80.6967,34.8808 78.1007,36.3828 74.9887,37.8688 C74.7147,38.0048 74.4267,38.1418 74.1387,38.2778 C73.8957,36.3528 73.4557,34.4258 72.8027,32.5158 C72.4997,31.6208 72.1497,30.7558 71.7557,29.9218 C75.5507,29.4368 78.8287,29.2708 81.3947,29.3758 C83.6867,29.4518 85.3567,29.8768 86.0237,30.2408 C86.1297,30.0588 86.0847,30.0288 86.1607,30.3318 L86.1757,30.3468 C86.1907,30.3618 86.1907,30.3768 86.1907,30.4078 L86.1907,30.4378 Z M20.2397,55.5058 C17.5377,55.9908 14.7897,56.3698 12.1937,56.5058 C11.2077,56.5518 10.2217,56.5518 9.3717,56.4918 C9.3677,56.4948 9.3657,56.4988 9.3617,56.5018 C9.3597,56.4988 9.3587,56.4938 9.3577,56.4898 C9.3617,56.4898 9.3667,56.4908 9.3717,56.4918 C9.9477,55.8848 10.6307,55.2478 11.3297,54.6258 C13.3487,52.9128 15.6397,51.2748 17.9927,49.7428 C18.0527,49.6978 18.1287,49.6518 18.1907,49.6058 C18.3417,50.1218 18.4937,50.6228 18.6757,51.1378 C19.1917,52.6548 19.8297,54.0798 20.5727,55.4448 C20.4667,55.4598 20.3457,55.4908 20.2397,55.5058 L20.2397,55.5058 Z M91.4727,29.4978 C91.4577,29.3458 91.4417,29.3008 91.4417,29.2708 C91.4277,29.2398 91.4117,29.1938 91.4117,29.1638 C91.3977,29.1038 91.3817,29.0428 91.3667,29.0128 C91.3517,28.9218 91.3367,28.8758 91.3367,28.8758 L91.2607,28.6028 L91.1237,28.2848 C91.0327,28.0868 90.8967,27.7838 90.6687,27.4658 C90.2287,26.8288 89.3927,26.1008 88.4367,25.6458 C86.5397,24.7968 84.2017,24.5388 81.4397,24.5998 C78.1467,24.6748 74.1847,25.2208 69.6757,26.1458 C62.6787,15.4548 49.0637,10.4358 36.4197,14.7878 C24.1557,19.0038 16.6117,30.6958 17.1427,43.0098 C16.3537,43.3588 15.5787,43.7078 14.8057,44.0858 C12.1027,45.3908 9.4017,46.8008 6.7457,48.6358 C5.4097,49.5608 4.0887,50.5618 2.7987,51.9268 C2.1307,52.6548 1.4777,53.3978 0.8567,54.5648 C0.5517,55.1718 0.2637,55.8388 0.0967,56.7338 C0.0817,56.8548 0.0507,56.9308 0.0367,57.0828 L0.0057,57.5988 C-0.0093,57.9318 0.0057,58.2958 0.0367,58.6288 L0.0817,58.9478 L0.1117,59.0838 L0.1567,59.3578 C0.2637,59.7368 0.3097,59.8878 0.3397,59.9488 L0.3397,59.9638 C0.3397,59.9638 0.3557,59.9638 0.3697,60.0398 L0.4457,60.2218 L0.6287,60.6158 C0.7497,60.8588 0.8867,61.1318 1.0227,61.3288 C1.3117,61.7228 1.6747,62.1928 1.9947,62.4658 C2.6627,63.0878 3.3147,63.4668 3.9217,63.7858 C5.1217,64.3928 6.0927,64.6198 7.0797,64.8468 C8.9617,65.2268 10.6457,65.3168 12.2857,65.3628 C15.2147,65.4238 17.9627,65.1958 20.6647,64.8628 C20.9987,64.8318 21.3167,64.7868 21.6507,64.7408 C23.6247,64.4988 25.5667,64.1948 27.4637,63.8318 C31.3957,63.1188 35.1897,62.1928 38.8787,61.2078 C44.3277,59.6158 49.4737,57.9778 54.3157,56.0818 C59.1567,54.2318 63.6047,52.1848 67.6427,50.1068 C69.8737,48.9698 71.9837,47.8168 73.9417,46.6798 C74.8977,46.1338 75.8237,45.5878 76.7037,45.0418 C77.2957,44.6778 77.8577,44.3288 78.4197,43.9648 C81.5457,41.9478 84.2177,40.0378 86.3427,38.1868 C88.4367,36.3528 90.0767,34.5928 90.9717,32.6518 C91.3977,31.6668 91.6247,30.6498 91.4727,29.4978 L91.4727,29.4978 Z M55.0437,68.8658 C63.5447,65.9548 69.7677,59.4488 72.6207,51.6238 C59.9167,60.3428 46.2107,65.7418 36.3587,68.8358 C42.2027,70.8678 48.7447,71.0348 55.0437,68.8658 L55.0437,68.8658 Z" id="Fill-20" fill="#2DA0B1"></path>
        </g>
    </g>
</svg>