<svg id="Layer_1" data-name="Layer 1" xmlns="http://www.w3.org/2000/svg" xmlns:xlink="http://www.w3.org/1999/xlink" viewBox="0 0 1313 563"><defs><style>.cls-1{fill:#fff;}.cls-2{mask:url(#mask);}.cls-3{fill:#533b53;}.cls-4{mask:url(#mask-2-2);}.cls-5{fill:#8b2459;}.cls-6{mask:url(#mask-3);}.cls-7{fill:#cf3251;}.cls-8{mask:url(#mask-4-2);}.cls-9{fill:#fe725d;}.cls-10{mask:url(#mask-5);}.cls-11{fill:#fecb5d;}</style><mask id="mask" x="-7.34" y="0.42" width="1327.66" height="562.24" maskUnits="userSpaceOnUse"><g id="mask-2"><polygon id="path-1" class="cls-1" points="1320.32 0.42 -7.34 0.42 -7.34 562.66 1320.32 562.66 1320.32 0.42"/></g></mask><mask id="mask-2-2" x="125.22" y="0.42" width="1062.54" height="429.68" maskUnits="userSpaceOnUse"><g id="mask-4"><polygon id="path-3" class="cls-1" points="1187.76 0.42 125.22 0.42 125.22 430.1 1187.76 430.1 1187.76 0.42"/></g></mask><mask id="mask-3" x="252.23" y="0.42" width="808.51" height="302.66" maskUnits="userSpaceOnUse"><g id="mask-8"><polygon id="path-7" class="cls-1" points="1060.74 0.42 252.23 0.42 252.23 303.09 1060.74 303.09 1060.74 0.42"/></g></mask><mask id="mask-4-2" x="355.11" y="0.42" width="602.76" height="199.79" maskUnits="userSpaceOnUse"><g id="mask-10"><polygon id="path-9" class="cls-1" points="957.87 0.42 355.11 0.42 355.11 200.21 957.87 200.21 957.87 0.42"/></g></mask><mask id="mask-5" x="449.81" y="-1.58" width="413.36" height="105.09" maskUnits="userSpaceOnUse"><g id="mask-12"><polygon id="path-11" class="cls-1" points="863.16 -1.57 449.81 -1.57 449.81 103.51 863.16 103.51 863.16 -1.57"/></g></mask></defs><title>Artboard 1</title><g class="cls-2"><path id="Fill-1" class="cls-3" d="M.4.53c48.94,318.35,324,562.13,656.09,562.13S1263.63,318.88,1312.57.53Z"/></g><g class="cls-4"><path id="Fill-4" class="cls-5" d="M134.94.53C182.39,245.3,397.86,430.1,656.49,430.1S1130.58,245.3,1178,.53Z"/></g><g class="cls-6"><path id="Fill-10" class="cls-7" d="M265.13.53c45.1,174,203.22,302.55,391.36,302.55S1002.74,174.57,1047.84.53Z"/></g><g class="cls-8"><path id="Fill-13" class="cls-9" d="M372.7.53c41.72,116.41,153,199.68,283.79,199.68S898.55,116.94,940.28.54Z"/></g><g class="cls-10"><path id="Fill-16" class="cls-11" d="M477.67.54a206.59,206.59,0,0,0,178.82,103A206.59,206.59,0,0,0,835.31.53Z"/></g></svg>