<?xml version="1.0" encoding="UTF-8" standalone="no"?>
<svg width="1313px" height="563px" viewBox="0 0 1313 563" version="1.1" xmlns="http://www.w3.org/2000/svg" xmlns:xlink="http://www.w3.org/1999/xlink">
    <!-- Generator: Sketch 40.3 (33839) - http://www.bohemiancoding.com/sketch -->
    <title>Page 1</title>
    <desc>Created with Sketch.</desc>
    <defs>
        <polygon id="path-1" points="1328.3156 0.265 0.6586 0.265 0.6586 562.5005 1328.3156 562.5005 1328.3156 0.265"></polygon>
        <polygon id="path-3" points="1062.7581 0.265 0.2161 0.265 0.2161 429.9435 1062.7581 429.9435 1062.7581 0.265"></polygon>
        <polygon id="path-5" points="602.8677 0.265 0.1067 0.265 0.1067 200.0525 602.8677 200.0525 602.8677 0.265"></polygon>
        <polygon id="path-7" points="808.7435 0.265 0.2305 0.265 0.2305 302.9285 808.7435 302.9285 808.7435 0.265"></polygon>
        <polygon id="path-9" points="602.8677 0.265 0.1067 0.265 0.1067 200.0525 602.8677 200.0525 602.8677 0.265"></polygon>
        <polygon id="path-11" points="414.1652 0.265 0.8092 0.265 0.8092 105.3505 414.1652 105.3505"></polygon>
    </defs>
    <g id="Page-1" stroke="none" stroke-width="1" fill="none" fill-rule="evenodd">
        <g transform="translate(-8.000000, 0.000000)">
            <g id="Group-3" transform="translate(0.000000, 0.160000)">
                <mask id="mask-2" fill="white">
                    <use xlink:href="#path-1"></use>
                </mask>
                <g id="Clip-2"></g>
                <path d="M1328.3156,-101.3275 C1328.3156,-467.9495 1031.1096,-765.1555 664.4876,-765.1555 C297.8646,-765.1555 0.6586,-467.9495 0.6586,-101.3275 C0.6586,265.2945 297.8646,562.5005 664.4876,562.5005 C1031.1096,562.5005 1328.3156,265.2945 1328.3156,-101.3275" id="Fill-1" fill="#533B53" mask="url(#mask-2)"></path>
            </g>
            <g id="Group-6" transform="translate(133.000000, 0.160000)">
                <mask id="mask-4" fill="white">
                    <use xlink:href="#path-3"></use>
                </mask>
                <g id="Clip-5"></g>
                <path d="M1062.7581,-101.3275 C1062.7581,-394.7405 824.9001,-632.5985 531.4871,-632.5985 C238.0741,-632.5985 0.2161,-394.7405 0.2161,-101.3275 C0.2161,192.0855 238.0741,429.9435 531.4871,429.9435 C824.9001,429.9435 1062.7581,192.0855 1062.7581,-101.3275" id="Fill-4" fill="#8B2459" mask="url(#mask-4)"></path>
            </g>
            <g id="Group-9" transform="translate(363.000000, 0.160000)">
                <mask id="mask-6" fill="white">
                    <use xlink:href="#path-5"></use>
                </mask>
                <g id="Clip-8"></g>
                <path d="M602.8677,-101.3275 C602.8677,-267.7755 467.9347,-402.7085 301.4877,-402.7085 C135.0397,-402.7085 0.1067,-267.7755 0.1067,-101.3275 C0.1067,65.1205 135.0397,200.0525 301.4877,200.0525 C467.9347,200.0525 602.8677,65.1205 602.8677,-101.3275" id="Fill-7" fill="#FD5F59" mask="url(#mask-6)"></path>
            </g>
            <g id="Group-12" transform="translate(260.000000, 0.160000)">
                <mask id="mask-8" fill="white">
                    <use xlink:href="#path-7"></use>
                </mask>
                <g id="Clip-11"></g>
                <path d="M808.7435,-101.3275 C808.7435,-324.5925 627.7515,-505.5835 404.4875,-505.5835 C181.2225,-505.5835 0.2305,-324.5925 0.2305,-101.3275 C0.2305,121.9375 181.2225,302.9285 404.4875,302.9285 C627.7515,302.9285 808.7435,121.9375 808.7435,-101.3275" id="Fill-10" fill="#CF3251" mask="url(#mask-8)"></path>
            </g>
            <g id="Group-15" transform="translate(363.000000, 0.160000)">
                <mask id="mask-10" fill="white">
                    <use xlink:href="#path-9"></use>
                </mask>
                <g id="Clip-14"></g>
                <path d="M602.8677,-101.3275 C602.8677,-267.7755 467.9347,-402.7085 301.4877,-402.7085 C135.0397,-402.7085 0.1067,-267.7755 0.1067,-101.3275 C0.1067,65.1205 135.0397,200.0525 301.4877,200.0525 C467.9347,200.0525 602.8677,65.1205 602.8677,-101.3275" id="Fill-13" fill="#FE725D" mask="url(#mask-10)"></path>
            </g>
            <g id="Group-18" transform="translate(457.000000, 0.160000)">
                <mask id="mask-12" fill="white">
                    <use xlink:href="#path-11"></use>
                </mask>
                <g id="Clip-17"></g>
                <path d="M414.1652,-101.3275 C414.1652,-215.4725 321.6322,-308.0055 207.4872,-308.0055 C93.3422,-308.0055 0.8092,-215.4725 0.8092,-101.3275 C0.8092,12.8175 93.3422,105.3505 207.4872,105.3505 C321.6322,105.3505 414.1652,12.8175 414.1652,-101.3275" id="Fill-16" fill="#FECB5D" mask="url(#mask-12)"></path>
            </g>
        </g>
    </g>
</svg>