<?xml version="1.0" encoding="UTF-8"?>
<svg width="45px" height="43px" viewBox="0 0 45 43" version="1.1" xmlns="http://www.w3.org/2000/svg" xmlns:xlink="http://www.w3.org/1999/xlink">
    <!-- Generator: Sketch 41 (35326) - http://www.bohemiancoding.com/sketch -->
    <title>Page 1</title>
    <desc>Created with Sketch.</desc>
    <defs>
        <polygon id="path-1" points="6.23851969 7.67063454 6.23851969 0.248149677 0.152153995 0.248149677 0.152153995 7.67063454 6.23851969 7.67063454"></polygon>
        <polygon id="path-3" points="6.23851969 7.67063454 6.23851969 0.248149677 0.152153995 0.248149677 0.152153995 7.67063454 6.23851969 7.67063454"></polygon>
        <polygon id="path-5" points="0 0.285713226 0 27.0702179 42.9877504 27.0702179 42.9877504 0.285713226 0 0.285713226"></polygon>
    </defs>
    <g id="Page-1" stroke="none" stroke-width="1" fill="none" fill-rule="evenodd">
        <g id="kw-share-card-focus" transform="translate(-458.000000, -1000.000000)">
            <g id="Group-19" transform="translate(373.000000, 150.000000)">
                <g id="Group-15" transform="translate(0.000000, 736.000000)">
                    <g id="Group-14" transform="translate(85.000000, 102.000000)">
                        <g id="Page-1" transform="translate(23.000000, 33.500000) rotate(-360.000000) translate(-23.000000, -33.500000) translate(0.000000, 12.000000)">
                            <path d="M40.5430173,22.7330487 C40.5430173,33.4798897 31.7874711,42.1899485 20.9781548,42.1899485 C10.1739859,42.1899485 1.41329237,33.4798897 1.41329237,22.7330487 C1.41329237,11.9913252 10.1739859,3.28126644 20.9781548,3.28126644 C31.7874711,3.28126644 40.5430173,11.9913252 40.5430173,22.7330487" id="Fill-1" fill="#F1AA6B"></path>
                            <path d="M13.9182815,25.6280941 C13.9090164,26.738601 13.0000044,27.6229125 11.8876743,27.613701 C10.7768883,27.6044894 9.881774,26.705337 9.89155386,25.5948301 C9.90081899,24.4894407 10.8103457,23.6000117 11.9211317,23.6092233 C13.0334618,23.6184349 13.9275467,24.5227048 13.9182815,25.6280941" id="Fill-3" fill="#956643"></path>
                            <path d="M32.0413356,25.777987 C32.0320705,26.8884939 31.1230585,27.7728054 30.0112431,27.7635938 C28.8999424,27.7543822 28.0053428,26.8552299 28.014608,25.744723 C28.0238731,24.6393336 28.9333999,23.7499046 30.0452152,23.7591161 C31.1565159,23.7683277 32.0506008,24.6725976 32.0413356,25.777987" id="Fill-5" fill="#956643"></path>
                            <path d="M27.0742489,30.9702465 C27.0196876,31.8821927 26.767985,32.7357989 26.3567162,33.4952423 C26.089057,33.9936911 25.7560271,34.4491524 25.3617444,34.8529266 C24.2324282,36.026891 22.6357378,36.7484646 20.8717603,36.7336238 C19.0038075,36.7182711 17.3355697,35.8764353 16.2175775,34.5571326 C15.476882,33.685615 14.972962,32.6012075 14.8180284,31.4067729 C14.7964098,31.2286824 14.778909,31.0511036 14.7711881,30.8684073 C14.7670702,30.7936912 14.7861152,30.7235809 14.8242052,30.6631939 C14.8772223,30.5700546 14.9667852,30.500456 15.0753931,30.4687272 C18.9842478,29.4626182 22.8848668,29.4948587 26.7767354,30.5654488 C26.8796812,30.5992246 26.9682147,30.6698467 27.0243202,30.7594037 C27.0567481,30.8203024 27.0793962,30.8955303 27.0742489,30.9702465" id="Fill-7" fill="#A17452"></path>
                            <path d="M27.0742489,30.9702465 C27.0196876,31.8821927 26.767985,32.7357989 26.3567162,33.4952423 C23.6291654,31.0633857 17.4735171,31.2138415 14.8180284,31.4067729 C14.7964098,31.2286824 14.778909,31.0511036 14.7711881,30.8684073 C14.7670702,30.7936912 14.7861152,30.7235809 14.8242052,30.6631939 C14.8772223,30.5700546 14.9667852,30.500456 15.0753931,30.4687272 C18.9842478,29.4626182 22.8848668,29.4948587 26.7767354,30.5654488 C26.8796812,30.5992246 26.9682147,30.6698467 27.0243202,30.7594037 C27.0567481,30.8203024 27.0793962,30.8955303 27.0742489,30.9702465" id="Fill-9" fill="#896140"></path>
                            <path d="M9.79684366,27.9523288 C9.79375529,28.3274447 9.48491768,28.6293798 9.10762107,28.6263093 C8.72980973,28.6232387 8.42663414,28.3161861 8.42972252,27.9410702 C8.43281089,27.5654425 8.74113377,27.2640192 9.11894511,27.2670897 C9.49624172,27.2701603 9.79993204,27.5772129 9.79684366,27.9523288" id="Fill-11" fill="#F2B686"></path>
                            <path d="M33.4636358,28.148126 C33.4605474,28.5232419 33.1517098,28.825177 32.7744132,28.8221065 C32.3966018,28.8190359 32.0934263,28.5119833 32.0965146,28.1368674 C32.099603,27.7612397 32.4079259,27.4598164 32.7857372,27.462887 C33.1630338,27.4659575 33.4667242,27.7730101 33.4636358,28.148126" id="Fill-13" fill="#F2B686"></path>
                            <g id="Group-17" transform="translate(38.604701, 14.555214)">
                                <mask id="mask-2" fill="white">
                                    <use xlink:href="#path-1"></use>
                                </mask>
                                <g id="Clip-16"></g>
                                <path d="M5.591299,3.48141356 L5.58821063,3.48141356 C2.9358103,2.76291048 0.96027907,0.248149677 0.96027907,0.248149677 C0.69982602,0.508120879 0.431137301,0.754786468 0.152153995,0.986611181 C1.08226993,3.04846939 1.65825206,5.30172373 1.80392047,7.67063454 C4.27462134,6.79706989 5.57740131,5.274089 6.16058966,4.37442488 C6.50648778,3.6390339 5.591299,3.48141356 5.591299,3.48141356" id="Fill-15" fill="#514336" mask="url(#mask-2)"></path>
                            </g>
                            <path d="M4.76109204,24.8415789 C4.36011788,24.1583869 3.25087614,23.3006866 3.25087614,23.3006866 C3.25087614,23.3006866 7.93748684,19.7163592 9.93463671,15.5337911 C9.8625746,20.2265783 6.48955319,23.7489834 5.30516096,24.8426024 C4.94485042,25.1865013 4.76109204,24.8426024 4.76109204,24.8426024" id="Fill-18" fill="#514336"></path>
                            <path d="M2.38263067,14.1533849 C2.38263067,14.1533849 2.85360803,14.6124286 3.15369524,15.3089262 C3.15369524,15.3089262 1.6867166,15.465523 1.09941041,16.550954 C1.09941041,16.550954 1.6867166,15.0714722 2.38263067,14.1533849" id="Fill-20" fill="#514336"></path>
                            <path d="M9.1254307,1.42291373 C9.1254307,1.42291373 9.36638525,1.14199807 9.59254434,1.15457638" id="Fill-22" fill="#786253"></path>
                            <g id="Group-26" transform="translate(38.604701, 14.555214)">
                                <mask id="mask-4" fill="white">
                                    <use xlink:href="#path-3"></use>
                                </mask>
                                <g id="Clip-25"></g>
                                <path d="M5.591299,3.48141356 L5.58821063,3.48141356 C2.9358103,2.76291048 0.96027907,0.248149677 0.96027907,0.248149677 C0.69982602,0.508120879 0.431137301,0.754786468 0.152153995,0.986611181 C1.08226993,3.04846939 1.65825206,5.30172373 1.80392047,7.67063454 C4.27462134,6.79706989 5.57740131,5.274089 6.16058966,4.37442488 C6.50648778,3.6390339 5.591299,3.48141356 5.591299,3.48141356" id="Fill-24" fill="#DB7A32" mask="url(#mask-4)"></path>
                            </g>
                            <path d="M2.52382093,6.72332609 C2.03122495,7.2084692 2.68132811,7.29086165 2.68132811,7.2903499 C3.48070279,7.45718181 4.87253094,7.81285107 5.45571929,8.36963979 C5.45571929,8.36963979 7.16101762,6.82055942 11.1511995,4.87896347 C11.1511995,4.87896347 10.1135052,3.9608762 9.7161341,1.49933785 L9.71356045,1.4998496 C9.57767191,0.820751602 9.12522481,1.35092909 9.12522481,1.35092909 C8.47048908,2.12470165 7.37051247,3.71369885 7.02667326,5.97258249 C7.02667326,5.97258249 4.36243416,5.18550432 2.58147062,6.67829171" id="Fill-27" fill="#DB7A32"></path>
                            <path d="M9.71706061,1.49524381 C9.66558768,1.23936665 9.57036275,1.15543894 9.47050526,1.14929788 L9.46741688,1.15288016 C8.00301189,4.30426336 8.64899722,5.62356603 8.64899722,5.62356603 C9.86530266,4.73208998 10.680634,4.27253459 10.680634,4.27253459 C10.0964161,3.34728275 9.83030107,2.20965287 9.71345751,1.49831434" id="Fill-29" fill="#DD8549"></path>
                            <path d="M0.619013513,13.3175506 C0.619718058,13.3168518 0.620422604,13.316153 0.621831695,13.3147554 L0.621831695,13.3140566 L0.619013513,13.3175506 Z" id="Fill-31" fill="#F29350"></path>
                            <g id="Group-35" transform="translate(-0.000000, 0.226093)">
                                <mask id="mask-6" fill="white">
                                    <use xlink:href="#path-5"></use>
                                </mask>
                                <g id="Clip-34"></g>
                                <path d="M41.4638167,7.29500686 L41.4638167,7.29551862 C40.2552321,7.54064894 38.6343494,7.52222579 36.9290511,6.50485817 C36.9290511,6.50485817 34.8454267,5.38309267 33.1097594,4.17484068 C33.1097594,4.17484068 23.953239,-3.68212361 12.5164676,2.93895397 C7.41601454,5.89126472 5.30613895,8.10460222 5.30613895,8.10460222 C3.7372439,9.49862103 2.09113945,11.1715459 0.62107243,13.0885777 C0.12487334,13.7185473 0.759534624,13.7011476 0.759534624,13.7006359 C1.30000044,13.5860029 1.99539979,13.541992 2.38247626,13.927343 C2.38247626,13.927343 -1.22320282,18.4266871 0.436799324,26.5666516 C0.436799324,26.5666516 0.708576419,27.6996757 1.26757249,26.5666516 C1.66082571,25.3875696 2.31607617,23.8569124 3.25082466,23.07444 L5.28812342,22.245398 L9.58045144,16.7097514 C9.58045144,16.7097514 9.93407051,15.3152208 9.93458523,15.3075445 C9.93458523,15.3075445 36.9027999,26.2340113 42.7568168,9.53495558 C42.756302,9.53495558 43.7970848,7.25509002 41.4638167,7.29500686" id="Fill-33" fill="#F29350" mask="url(#mask-6)"></path>
                            </g>
                            <path d="M41.4638167,7.52109993 C42.2225277,7.50779431 42.6245313,7.74013078 42.8211579,8.05997724 C38.7233976,14.7777764 32.570323,8.95708259 32.570323,8.95708259 C23.3247545,-0.0549112401 10.6804281,4.27350692 10.6804281,4.27350692 C11.243542,3.91834941 11.8550404,3.54783927 12.5164676,3.16504703 C23.953239,-3.45603055 33.1097594,4.40093375 33.1097594,4.40093375 C34.8454267,5.60918573 36.9290511,6.73095123 36.9290511,6.73095123 C38.6343494,7.74831885 40.2552321,7.76674201 41.4638167,7.52161168" id="Fill-36" fill="#F3A771"></path>
                            <path d="M2.34299651,7.0045351 C2.34299651,7.0045351 5.28776311,6.0127552 6.95394201,6.7445639 C6.95394201,6.7445639 6.98842887,6.20363957 7.02651884,5.97283836 C7.02651884,5.97283836 5.02833952,5.33212194 3.31943809,6.20261606 C3.31943809,6.20261606 2.47476723,6.56442637 2.34299651,7.0045351" id="Fill-38" fill="#DD8549"></path>
                            <path d="M4.76109204,24.8415789 C4.36011788,24.1583869 3.25087614,23.3006866 3.25087614,23.3006866 C3.25087614,23.3006866 7.93748684,19.7163592 9.93463671,15.5337911 C9.8625746,20.2265783 6.48955319,23.7489834 5.30516096,24.8426024 C4.94485042,25.1865013 4.76109204,24.8426024 4.76109204,24.8426024" id="Fill-40" fill="#DB7A32"></path>
                            <path d="M2.38263067,14.1533849 C2.38263067,14.1533849 2.85360803,14.6124286 3.15369524,15.3089262 C3.15369524,15.3089262 1.6867166,15.465523 1.09941041,16.550954 C1.09941041,16.550954 1.6867166,15.0714722 2.38263067,14.1533849" id="Fill-42" fill="#DB7A32"></path>
                            <path d="M39.6482118,17.8771653 C28.2968855,25.3390553 9.93443082,15.5338422 9.93443082,15.5338422 C9.93443082,15.5338422 29.3345799,23.3928536 38.7978789,15.5916705 L38.7968495,15.5916705 C39.1278205,16.330132 39.4129805,17.0931577 39.649756,17.8771653" id="Fill-44" fill="#D79A66"></path>
                            <path d="M2.99294526,23.5779039 C2.99294526,23.5779039 2.20798301,25.9263446 2.21261557,27.8177886 C2.21415976,28.4150059 2.1271705,28.0404017 2.00466491,27.6243454 C1.81421506,26.9754409 1.69428312,26.2548908 1.6536195,25.7426248 C1.6536195,25.7426248 2.30681104,24.1720507 2.99294526,23.5779039" id="Fill-46" fill="#D79A66"></path>
                        </g>
                    </g>
                </g>
            </g>
        </g>
    </g>
</svg>