<?xml version="1.0" encoding="UTF-8"?>
<svg width="12px" height="12px" viewBox="0 0 12 12" version="1.1" xmlns="http://www.w3.org/2000/svg" xmlns:xlink="http://www.w3.org/1999/xlink">
    <!-- Generator: Sketch 41 (35326) - http://www.bohemiancoding.com/sketch -->
    <title>Fill 1</title>
    <desc>Created with Sketch.</desc>
    <defs></defs>
    <g id="Page-1" stroke="none" stroke-width="1" fill="none" fill-rule="evenodd">
        <g id="kw-share-card-focus" transform="translate(-897.000000, -1015.000000)" fill="#FFFFFF">
            <g id="Group-19" transform="translate(373.000000, 150.000000)">
                <g id="Group-15" transform="translate(0.000000, 736.000000)">
                    <g id="Group-14" transform="translate(85.000000, 102.000000)">
                        <g id="Group-12" transform="translate(54.000000, 0.000000)">
                            <g id="Group-11" transform="translate(317.000000, 16.000000)">
                                <path d="M71.7868006,17.7197039 L74.784638,17.7197039 C75.0321122,17.7197039 75.1990458,17.6085078 75.2859962,17.3855581 C75.3105207,17.3175584 75.3230616,17.2278212 75.3230616,17.1163463 C75.3230616,17.0051502 75.2703897,16.8970196 75.1653247,16.7916758 C75.0599809,16.6863321 74.9331783,16.6339389 74.784638,16.6339389 L71.7868006,16.6339389 C71.6443915,16.6339389 71.5175889,16.6863321 71.4063927,16.7916758 C71.2949179,16.8970196 71.2391804,17.0235435 71.2391804,17.1720837 C71.2391804,17.3144929 71.2949179,17.4412955 71.4063927,17.5527704 C71.5175889,17.6639665 71.6443915,17.7197039 71.7868006,17.7197039 M71.7868006,15.5386985 L75.9726813,15.5386985 C76.1212215,15.5448296 76.2510897,15.4921578 76.3625645,15.3806829 C76.4737607,15.2694867 76.5264326,15.1396185 76.5203015,14.9910783 C76.5264326,14.8425381 76.4737607,14.7126699 76.3625645,14.601195 C76.2510897,14.4899989 76.1212215,14.437327 75.9726813,14.4434581 L71.7868006,14.4434581 C71.6443915,14.437327 71.5175889,14.4899989 71.4063927,14.601195 C71.2949179,14.7126699 71.2391804,14.8425381 71.2391804,14.9910783 C71.2391804,15.1396185 71.2949179,15.2694867 71.4063927,15.3806829 C71.5175889,15.4921578 71.6443915,15.5448296 71.7868006,15.5386985 M70.0882026,11 L77.1793965,11 C77.7546067,11 78.2464895,11.2042777 78.6550448,11.6125543 C79.0633215,12.0211096 79.2675991,12.5129924 79.2675991,13.0884813 L79.2675991,18.9356159 C79.2675991,19.3132369 79.1747963,19.6627106 78.9891907,19.9843155 C78.8035851,20.3061992 78.5497011,20.5598044 78.2280962,20.7454101 C77.9062125,20.9310157 77.5567389,21.0238185 77.1793965,21.0238185 L73.503792,21.0238185 C73.3243175,21.0238185 73.1665806,21.0859657 73.0305813,21.2094241 L71.2578525,22.9172188 C71.1586399,23.0038905 71.0505093,23.0225626 70.9329033,22.9729562 C70.8152973,22.9233499 70.7564943,22.8305471 70.7564943,22.6945478 L70.7751664,21.6087828 C70.7751664,21.4415705 70.719429,21.3022269 70.6079541,21.1910308 C70.4967579,21.0795559 70.3234146,21.0238185 70.0882026,21.0238185 C69.5129924,21.0238185 69.0208309,20.8198195 68.6125543,20.4112642 C68.2042777,20.0029876 68,19.5111048 68,18.9356159 L68,13.0884813 C68,12.5129924 68.2042777,12.0211096 68.6125543,11.6125543 C69.0208309,11.2042777 69.5129924,11 70.0882026,11" id="Fill-1"></path>
                            </g>
                        </g>
                    </g>
                </g>
            </g>
        </g>
    </g>
</svg>