<svg xmlns="http://www.w3.org/2000/svg" viewBox="0 0 37.55 39.2"><defs><style>.cls-1{fill:#f2ba00;}.cls-2{fill:#ffd500;}.cls-3{fill:#ffea00;}.cls-4{fill:#e0bb00;}.cls-5{fill:#e0ce00;}.cls-6{fill:#f06000;}.cls-7{fill:#f70;}.cls-8{fill:#ff8400;}</style></defs><title>Featured</title><g id="Layer_2" data-name="Layer 2"><g id="Layer_4" data-name="Layer 4"><path class="cls-1" d="M33.63,25.46l3.13-3.13a2.69,2.69,0,0,0,0-3.81l-3.13-3.13a2.7,2.7,0,0,1-.79-1.91V9.05a2.69,2.69,0,0,0-2.7-2.69H25.72a2.71,2.71,0,0,1-1.91-.79L20.68,2.44a2.69,2.69,0,0,0-3.81,0L13.74,5.57a2.71,2.71,0,0,1-1.91.79H7.4A2.69,2.69,0,0,0,4.71,9.05v4.43a2.7,2.7,0,0,1-.79,1.91L.79,18.52a2.69,2.69,0,0,0,0,3.81l3.13,3.13a2.7,2.7,0,0,1,.79,1.91v4.43A2.69,2.69,0,0,0,7.4,34.49h4.43a2.7,2.7,0,0,1,1.91.79l3.13,3.13a2.7,2.7,0,0,0,3.81,0l3.13-3.13a2.7,2.7,0,0,1,1.91-.79h4.43a2.7,2.7,0,0,0,2.7-2.69V27.37a2.7,2.7,0,0,1,.79-1.91"/><polyline class="cls-1" points="37.54 18.59 0 18.59 0 20.42 37.54 20.42 37.54 18.59"/><path class="cls-2" d="M33.63,23.81l3.13-3.13a2.69,2.69,0,0,0,0-3.81l-3.13-3.13a2.7,2.7,0,0,1-.79-1.91V7.4a2.7,2.7,0,0,0-2.7-2.69H25.72a2.7,2.7,0,0,1-1.91-.79L20.68.79a2.7,2.7,0,0,0-3.81,0L13.74,3.92a2.7,2.7,0,0,1-1.91.79H7.4A2.69,2.69,0,0,0,4.71,7.4v4.43a2.7,2.7,0,0,1-.79,1.91L.79,16.87a2.7,2.7,0,0,0,0,3.81l3.13,3.13a2.7,2.7,0,0,1,.79,1.91v4.43A2.69,2.69,0,0,0,7.4,32.84h4.43a2.7,2.7,0,0,1,1.91.79l3.13,3.13a2.69,2.69,0,0,0,3.81,0l3.13-3.13a2.7,2.7,0,0,1,1.91-.79h4.43a2.7,2.7,0,0,0,2.7-2.69V25.71a2.69,2.69,0,0,1,.79-1.91"/><path class="cls-3" d="M4.73,25.83v.09l21.1-21.1h-.09A2.69,2.69,0,0,1,23.83,4L22.74,2.95,2.85,22.84l1.09,1.09a2.71,2.71,0,0,1,.79,1.91"/><path class="cls-3" d="M32.86,12V7.52a2.69,2.69,0,0,0-1.22-2.25L5.17,31.74A2.69,2.69,0,0,0,7.42,33h4.43a2.7,2.7,0,0,1,1.91.79l.14.14L33.79,14l-.14-.14a2.69,2.69,0,0,1-.79-1.9"/><path class="cls-1" d="M30.18,22.64l.71.71,2.4-2.4a3.07,3.07,0,0,0,0-4.34l-2.4-2.4a1.07,1.07,0,0,1-.31-.76V10A3.07,3.07,0,0,0,27.51,7H24.1a1.07,1.07,0,0,1-.76-.31l-2.4-2.4a3.07,3.07,0,0,0-4.34,0l-2.4,2.4a1.08,1.08,0,0,1-.76.31H10A3.07,3.07,0,0,0,7,10v3.4a1.07,1.07,0,0,1-.31.75L4.25,16.6a3.07,3.07,0,0,0,0,4.34l2.4,2.4A1.07,1.07,0,0,1,7,24.1v3.4A3.07,3.07,0,0,0,10,30.57h3.4a1.07,1.07,0,0,1,.76.31l2.4,2.4a3.07,3.07,0,0,0,4.34,0l2.4-2.4a1.07,1.07,0,0,1,.76-.31h3.4a3.07,3.07,0,0,0,3.07-3.07V24.1a1.07,1.07,0,0,1,.31-.76l-.71-.71-.71-.71a3.07,3.07,0,0,0-.9,2.17v3.4a1.07,1.07,0,0,1-1.07,1.07H24.1a3.07,3.07,0,0,0-2.17.9l-2.4,2.4a1.07,1.07,0,0,1-1.51,0l-2.4-2.4a3.07,3.07,0,0,0-2.17-.9H10A1.07,1.07,0,0,1,9,27.5V24.1a3.06,3.06,0,0,0-.9-2.17l-2.4-2.4a1.07,1.07,0,0,1,0-1.51l2.4-2.4A3.06,3.06,0,0,0,9,13.44V10A1.07,1.07,0,0,1,10,9h3.4a3.07,3.07,0,0,0,2.17-.9L18,5.67a1.07,1.07,0,0,1,1.51,0l2.4,2.4A3.07,3.07,0,0,0,24.1,9h3.4A1.07,1.07,0,0,1,28.58,10v3.4a3.07,3.07,0,0,0,.9,2.17L31.88,18a1.07,1.07,0,0,1,0,1.51l-2.4,2.4Z"/><path class="cls-4" d="M24,24.46a1.64,1.64,0,0,1-.2.26,1.39,1.39,0,0,1-1,.4h-.15l-.93.93a1.46,1.46,0,0,0,1,.37,1.39,1.39,0,0,0,1-.4,1.42,1.42,0,0,0,.42-1,1.35,1.35,0,0,0-.11-.54m-9.9-7.93-.11.11V22.9l.11-.11V16.53"/><path class="cls-5" d="M14.12,13.94a1.33,1.33,0,0,0-.11.53v2.16l.11-.11V13.94"/><path class="cls-5" d="M14.12,22.79,14,22.9V25a1.33,1.33,0,0,0,.42,1,1.45,1.45,0,0,0,2,0,1.35,1.35,0,0,0,.41-1v-.74a1.44,1.44,0,0,1-2.31.44,1.33,1.33,0,0,1-.42-1v-.9M17,20.42v1.39L21.71,26l0,0,.93-.93a1.47,1.47,0,0,1-.86-.39L17,20.42M24,13.93a1.54,1.54,0,0,1-.2.24l-4.29,3.74.69.6,3.5-3.05a1.35,1.35,0,0,0,.42-1,1.37,1.37,0,0,0-.11-.55"/><path class="cls-6" d="M23.82,22.71a1.35,1.35,0,0,1,.42,1,1.42,1.42,0,0,1-.42,1,1.39,1.39,0,0,1-1,.4,1.47,1.47,0,0,1-1-.4L17,20.42v3.28a1.35,1.35,0,0,1-.41,1,1.45,1.45,0,0,1-2,0,1.33,1.33,0,0,1-.42-1V13.18a1.34,1.34,0,0,1,.42-1,1.41,1.41,0,0,1,2.42,1v3.28l4.86-4.26a1.43,1.43,0,0,1,1-.42,1.4,1.4,0,0,1,1,2.4l-4.88,4.26,4.88,4.28"/><rect class="cls-6" x="23.78" y="22.47" width="0.44" height="1.44"/><rect class="cls-6" x="23.63" y="11.96" width="0.6" height="1.32"/><path class="cls-7" d="M23.82,21.69a1.35,1.35,0,0,1,.42,1,1.42,1.42,0,0,1-.42,1,1.39,1.39,0,0,1-1,.4,1.47,1.47,0,0,1-1-.4L17,19.39v3.28a1.35,1.35,0,0,1-.41,1,1.45,1.45,0,0,1-2,0,1.33,1.33,0,0,1-.42-1V12.15a1.34,1.34,0,0,1,.42-1,1.41,1.41,0,0,1,2.42,1v3.28l4.86-4.26a1.43,1.43,0,0,1,1-.42,1.4,1.4,0,0,1,1,2.4l-4.88,4.26,4.88,4.28"/><path class="cls-8" d="M22.83,10.82a1.42,1.42,0,0,0-1,.42L17,15.5V12.22a1.42,1.42,0,0,0-2.84,0v8.06L23.43,11a1.35,1.35,0,0,0-.6-.15"/></g></g></svg>
