<?xml version="1.0" encoding="UTF-8"?>
<svg width="19px" height="19px" viewBox="0 0 19 19" version="1.1" xmlns="http://www.w3.org/2000/svg" xmlns:xlink="http://www.w3.org/1999/xlink">
    <!-- Generator: Sketch 41 (35326) - http://www.bohemiancoding.com/sketch -->
    <title>Fill 24</title>
    <desc>Created with Sketch.</desc>
    <defs></defs>
    <g id="Page-1" stroke="none" stroke-width="1" fill="none" fill-rule="evenodd" opacity="0.300000012">
        <g id="kw-share-card-focus" transform="translate(-1025.000000, -691.000000)" fill="#636B7E">
            <g id="Group-19" transform="translate(373.000000, 150.000000)">
                <g id="Group-18" transform="translate(23.000000, 538.000000)">
                    <g id="Group-5" transform="translate(4.000000, 0.000000)">
                        <path d="M643.43987,8.95294118 C643.290073,9.10420168 643.10661,9.17983193 642.889858,9.17983193 C642.673107,9.17983193 642.481321,9.10382353 642.314881,8.95256303 C642.148061,8.80092437 642.064841,8.61147059 642.064841,8.38382353 L642.064841,6.41327731 C642.064841,6.0510084 641.938497,5.74357143 641.68581,5.49096639 C641.433122,5.23836134 641.121424,5.10789916 640.750714,5.09920168 L638.792008,5.09920168 C638.480309,5.09920168 638.248427,4.96609244 638.096739,4.6994958 C638.029406,4.57470588 637.995739,4.42079832 637.995739,4.23701681 C637.995739,4.0539916 638.071394,3.88722689 638.222704,3.73747899 C638.373636,3.58735294 638.562773,3.51247899 638.78936,3.51247899 L640.704187,3.51247899 C641.527312,3.51247899 642.228634,3.80214286 642.808151,4.38147059 C643.387668,4.96079832 643.677426,5.65773109 643.677426,6.47189076 L643.677426,8.38609244 C643.669104,8.61298319 643.589666,8.80205882 643.43987,8.95294118 L643.43987,8.95294118 Z M637.983256,20.6778992 C637.991578,20.4597059 638.071394,20.2664706 638.223082,20.0985714 C638.374771,19.9306723 638.560125,19.8508824 638.779146,19.8592017 L640.750714,19.8592017 C641.121424,19.8508824 641.433122,19.7207983 641.68581,19.4689496 C641.938497,19.2171008 642.064841,18.9107983 642.064841,18.5496639 L642.064841,16.5976471 C642.064841,16.3794538 642.1439,16.1945378 642.302397,16.0432773 C642.460516,15.892395 642.648141,15.812605 642.864892,15.8042857 C643.081265,15.812605 643.27305,15.892395 643.43987,16.0432773 C643.589666,16.1945378 643.664943,16.3794538 643.664943,16.5976471 L643.664943,18.5118487 C643.664943,19.0492017 643.530277,19.5445798 643.261702,19.9979832 C642.992749,20.4513866 642.631875,20.8121429 642.178323,21.0810084 C641.724772,21.3494958 641.229232,21.4841176 640.691704,21.4841176 L638.776877,21.4841176 C638.558234,21.4841176 638.373636,21.4084874 638.222704,21.2572269 C638.071394,21.0893277 637.991578,20.8960924 637.983256,20.6778992 L637.983256,20.6778992 Z M629.744054,18.5496639 C629.416468,18.5413445 629.143353,18.4278992 628.925089,18.2097059 C628.706824,17.9911345 628.597503,17.7226471 628.597503,17.4034874 L628.597503,7.55529412 C628.597503,7.23613445 628.706824,6.96764706 628.925089,6.74907563 C629.143353,6.53088235 629.416468,6.41743697 629.744054,6.40911765 L639.595842,6.40911765 C639.923428,6.41743697 640.196164,6.53088235 640.414428,6.74907563 C640.632693,6.96764706 640.742014,7.23613445 640.742014,7.55529412 L640.742014,17.4034874 C640.742014,17.7226471 640.632693,17.9911345 640.414428,18.2097059 C640.196164,18.4278992 639.923428,18.5413445 639.595842,18.5496639 L629.744054,18.5496639 Z M631.369122,4.28731092 C631.3608,4.50361345 631.280606,4.69533613 631.128161,4.86210084 C630.976095,5.02886555 630.790362,5.11205882 630.570584,5.11205882 L628.592964,5.11205882 C628.22112,5.11205882 627.908665,5.23836134 627.655221,5.49096639 C627.401777,5.74357143 627.274676,6.05516807 627.274676,6.4257563 L627.274676,8.37096639 C627.274676,8.59029412 627.196373,8.77558824 627.039389,8.92722689 C626.882027,9.07886555 626.696294,9.15865546 626.481056,9.16697479 C626.266196,9.15865546 626.075923,9.07886555 625.910617,8.92798319 C625.761955,8.77672269 625.687435,8.59218487 625.687435,8.37361345 L625.687435,6.45941176 C625.687435,5.6452521 625.977194,4.94831933 626.556711,4.36861345 C627.136228,3.78966387 627.837549,3.5 628.660675,3.5 L630.575502,3.5 C630.793766,3.50831933 630.978743,3.58735294 631.130053,3.73747899 C631.280984,3.88722689 631.3608,4.07063025 631.369122,4.28731092 L631.369122,4.28731092 Z M626.518505,15.7914286 C626.692133,15.7914286 626.8616,15.8712185 627.026906,16.0307983 C627.192212,16.1903782 627.274676,16.3794538 627.274676,16.5976471 L627.274676,18.5496639 C627.274676,19.0533613 627.494454,19.4311345 627.934009,19.6829832 C628.136764,19.8005882 628.356542,19.8592017 628.592964,19.8592017 L630.558101,19.8592017 C630.870556,19.8592017 631.103195,19.9979832 631.255261,20.2747899 C631.322594,20.392395 631.356639,20.5436555 631.356639,20.7281933 C631.356639,20.9127311 631.280984,21.0810084 631.130053,21.2318908 C630.978743,21.3831513 630.789605,21.4629412 630.563019,21.4712605 L628.648192,21.4712605 C627.824688,21.4712605 627.123745,21.1815966 626.544228,20.6022689 C625.964711,20.0229412 625.674952,19.3222269 625.674952,18.4993697 L625.674952,16.5976471 C625.66663,16.2784874 625.794487,16.0432773 626.059279,15.892395 C626.175031,15.825084 626.328233,15.7914286 626.518505,15.7914286 L626.518505,15.7914286 Z" id="Fill-24"></path>
                    </g>
                </g>
            </g>
        </g>
    </g>
</svg>