<?xml version="1.0" encoding="UTF-8"?>
<svg width="10px" height="12px" viewBox="0 0 10 12" version="1.1" xmlns="http://www.w3.org/2000/svg" xmlns:xlink="http://www.w3.org/1999/xlink">
    <!-- Generator: Sketch 41 (35326) - http://www.bohemiancoding.com/sketch -->
    <title>Fill 10</title>
    <desc>Created with Sketch.</desc>
    <defs></defs>
    <g id="Page-1" stroke="none" stroke-width="1" fill="none" fill-rule="evenodd" opacity="0.300000012">
        <g id="kw-share-card-focus" transform="translate(-400.000000, -695.000000)" fill="#636B7E">
            <g id="Group-19" transform="translate(373.000000, 150.000000)">
                <g id="Group-18" transform="translate(23.000000, 538.000000)">
                    <g id="Group-5" transform="translate(4.000000, 0.000000)">
                        <path d="M6.59450429,18.496898 C6.29863122,18.505258 6.04083705,18.399998 5.82074099,18.180358 C5.60102573,17.961098 5.49135849,17.699658 5.49135849,17.396038 L5.49135849,8.233098 C5.49135849,7.929478 5.60102573,7.668038 5.82074099,7.448778 C6.04083705,7.229518 6.29863122,7.123878 6.59450429,7.132238 L8.11613722,7.132238 C8.42076844,7.123878 8.67856261,7.229518 8.88990051,7.448778 C9.10123842,7.668038 9.20709777,7.929478 9.20709777,8.233098 L9.20709777,17.396038 C9.20709777,17.699658 9.10123842,17.961098 8.88990051,18.180358 C8.67856261,18.399998 8.42076844,18.505258 8.11613722,18.496898 L6.59450429,18.496898 Z M1.09057976,18.496898 C0.786329331,18.505258 0.528154374,18.399998 0.317197256,18.180358 C0.105478559,17.961098 0,17.699658 0,17.396038 L0,8.233098 C0,7.929478 0.105478559,7.668038 0.317197256,7.448778 C0.528154374,7.229518 0.786329331,7.123878 1.09057976,7.132238 L2.61259348,7.132238 C2.91684391,7.123878 3.17463808,7.229518 3.38597599,7.448778 C3.59731389,7.668038 3.70317324,7.929478 3.70317324,8.233098 L3.70317324,17.396038 C3.70317324,17.699658 3.59731389,17.961098 3.38597599,18.180358 C3.17463808,18.399998 2.91684391,18.505258 2.61259348,18.496898 L1.09057976,18.496898 Z" id="Fill-10"></path>
                    </g>
                </g>
            </g>
        </g>
    </g>
</svg>