<?xml version="1.0" encoding="UTF-8"?>
<svg width="17px" height="11px" viewBox="0 0 17 11" version="1.1" xmlns="http://www.w3.org/2000/svg" xmlns:xlink="http://www.w3.org/1999/xlink">
    <!-- Generator: Sketch 41 (35326) - http://www.bohemiancoding.com/sketch -->
    <title>Fill 22</title>
    <desc>Created with Sketch.</desc>
    <defs></defs>
    <g id="Page-1" stroke="none" stroke-width="1" fill="none" fill-rule="evenodd">
        <g id="kw-share-card-focus" transform="translate(-1015.000000, -789.000000)" fill="#FFFFFF">
            <g id="Group-19" transform="translate(373.000000, 150.000000)">
                <g id="Group-16" transform="translate(23.000000, 592.000000)">
                    <g id="Group-10-Copy" transform="translate(570.000000, 36.000000)">
                        <path d="M61.9871542,16.5046813 C61.9871542,16.3176093 61.9194492,16.1563904 61.7840392,16.0210246 L58.929097,13.1574284 C58.683848,12.9058688 58.5612235,12.6060888 58.5612235,12.2577979 C58.5612235,11.909507 58.6902407,11.6129223 58.9485658,11.3677534 C59.1935242,11.1225845 59.4904963,11 59.838901,11 C60.1873056,11 60.4807908,11.1225845 60.7193564,11.3677534 L65.3741473,16.0210246 C65.5031646,16.1563904 65.5676732,16.3176093 65.5676732,16.5046813 C65.5676732,16.6920438 65.5031646,16.8529722 65.3741473,16.9886285 L60.7193564,21.6418997 C60.4807908,21.8803875 60.1873056,21.9997766 59.838901,21.9997766 C59.4904963,22.0058768 59.1935242,21.8870686 58.9485658,21.6418997 C58.7033168,21.3967308 58.5742996,21.0998556 58.5612235,20.7518552 C58.5612235,20.4035643 58.683848,20.1034938 58.929097,19.8519342 L61.7840392,16.9886285 C61.9194492,16.8529722 61.9871542,16.6920438 61.9871542,16.5046813 M54.7290628,21.9997766 C54.3806581,21.9997766 54.087173,21.8803875 53.8486073,21.6418997 L49.1935259,16.9886285 C49.0645086,16.8529722 49,16.6920438 49,16.5046813 C49,16.3176093 49.0645086,16.1563904 49.1935259,16.0210246 L53.8486073,11.3677534 C54.087173,11.1225845 54.3806581,11 54.7290628,11 C55.0774675,11 55.374149,11.1225845 55.619398,11.3677534 C55.864647,11.6129223 55.9936642,11.909507 56.0064497,12.2577979 C56.0064497,12.6060888 55.8838252,12.9058688 55.6388668,13.1574284 L52.7839245,16.0210246 C52.6485145,16.1563904 52.5808095,16.3176093 52.5808095,16.5046813 C52.5808095,16.6920438 52.6485145,16.8529722 52.7839245,16.9886285 L55.6388668,19.8519342 C55.8838252,20.1034938 56.0064497,20.4035643 56.0064497,20.7518552 C56.0064497,21.0998556 55.8774325,21.3967308 55.619398,21.6418997 C55.374149,21.8870686 55.0774675,22.0058768 54.7290628,21.9997766" id="Fill-22"></path>
                    </g>
                </g>
            </g>
        </g>
    </g>
</svg>