<?xml version="1.0" encoding="UTF-8"?>
<svg width="14px" height="16px" viewBox="0 0 14 16" version="1.1" xmlns="http://www.w3.org/2000/svg" xmlns:xlink="http://www.w3.org/1999/xlink">
    <!-- Generator: Sketch 41 (35326) - http://www.bohemiancoding.com/sketch -->
    <title>Fill 31 Copy</title>
    <desc>Created with Sketch.</desc>
    <defs></defs>
    <g id="Page-1" stroke="none" stroke-width="1" fill="none" fill-rule="evenodd" opacity="0.300000012">
        <g id="kw-share-card-focus" transform="translate(-437.000000, -692.000000)" fill="#636B7E">
            <g id="Group-19" transform="translate(373.000000, 150.000000)">
                <g id="Group-18" transform="translate(23.000000, 538.000000)">
                    <g id="Group-5" transform="translate(4.000000, 0.000000)">
                        <path d="M43.9945702,4.79479476 L43.9945702,5.84000484 C43.9945702,5.98294602 44.0448807,6.10433257 44.1455018,6.20529896 C44.2465012,6.30626534 44.3683057,6.36487879 44.5109152,6.38151744 C45.5859721,6.4571477 46.5687299,6.78878635 47.4588104,7.37643341 C48.3492692,7.96408047 49.0464296,8.72832417 49.5502916,9.66878635 C50.0624756,10.6088704 50.3185676,11.6208032 50.3185676,12.7038284 C50.3185676,14.642988 49.5586136,16.2637443 48.0383273,17.5649628 C47.1395465,18.3292065 46.0228794,18.8034082 44.6875696,18.987946 C44.0490418,19.0718956 43.3938699,19.0465595 42.7220539,18.9123158 C41.4877434,18.6774838 40.4168475,18.1064754 39.5097447,17.1996687 C38.6026418,16.292862 38.04393,15.3066435 37.8339875,14.2402569 C37.456091,12.3007191 37.7500105,10.6088704 38.7161242,9.16471072 C38.8840782,8.92987879 39.1106648,8.78693761 39.3962623,8.7366435 C39.6818597,8.68634938 39.9379517,8.74950064 40.1645383,8.92534097 C40.3998252,9.04332417 40.5469741,9.25319812 40.6056066,9.55534097 C40.6642392,9.85748383 40.6139287,10.1263494 40.454675,10.3611813 C39.9757792,11.0581141 39.7363313,11.7841645 39.7363313,12.5400889 C39.7363313,13.2956351 39.8793191,13.9630721 40.1645383,14.5423998 C40.4418137,15.1217275 40.8155491,15.6046267 41.2861229,15.9907191 C41.7563185,16.3768116 42.310491,16.6456771 42.9490188,16.7965595 C43.5871683,16.9648368 44.2714673,16.9731561 45.0022941,16.8218956 C45.733121,16.6706351 46.3920756,16.3015595 46.9802929,15.7139124 C47.5681318,15.1258872 47.9543504,14.4247948 48.1393267,13.6102569 C48.3072807,12.8131141 48.2569702,12.0360132 47.9880168,11.280467 C47.7190635,10.5249208 47.2825344,9.90361829 46.6780513,9.41655946 C46.081512,8.92987879 45.401374,8.62773593 44.6368807,8.51013089 C44.4689267,8.48479476 44.3176168,8.52676955 44.1837076,8.63605526 C44.0490418,8.74496282 43.9862482,8.88374434 43.9945702,9.05126534 L43.9945702,10.0087443 C43.9945702,10.1346687 43.9397204,10.2227779 43.8307772,10.2730721 C43.7214558,10.3233662 43.6208347,10.315425 43.5285357,10.2477359 L40.3411926,7.82983677 C40.1982047,7.72924854 40.1270891,7.58630736 40.1270891,7.40176955 C40.1270891,7.21723173 40.1982047,7.07013089 40.3411926,6.96084518 L43.5285357,4.567904 C43.6208347,4.4926519 43.7214558,4.47979476 43.8307772,4.53008887 C43.9397204,4.58076114 43.9945702,4.66887039 43.9945702,4.79479476" id="Fill-31-Copy"></path>
                    </g>
                </g>
            </g>
        </g>
    </g>
</svg>