<?xml version="1.0" encoding="UTF-8"?>
<svg width="12px" height="13px" viewBox="0 0 12 13" version="1.1" xmlns="http://www.w3.org/2000/svg" xmlns:xlink="http://www.w3.org/1999/xlink">
    <!-- Generator: Sketch 41 (35326) - http://www.bohemiancoding.com/sketch -->
    <title>Fill 1</title>
    <desc>Created with Sketch.</desc>
    <defs></defs>
    <g id="Page-1" stroke="none" stroke-width="1" fill="none" fill-rule="evenodd">
        <g id="kw-share-card-focus" transform="translate(-569.000000, -860.000000)" fill="#000000">
            <g id="Group-19" transform="translate(373.000000, 150.000000)">
                <g id="Group-16" transform="translate(23.000000, 592.000000)">
                    <g id="Group-9" transform="translate(2.000000, 118.000000)">
                        <g id="Group-6" transform="translate(171.000000, 0.000000)">
                            <path d="M4.335705,6.5 C4.335705,6.75990892 4.43687105,6.95508458 4.63920315,7.08487639 L7.55317572,8.80762686 C7.85667387,8.97385147 8.1744849,8.98458613 8.50660881,8.84015614 C9.13507443,8.56560905 9.75605832,8.59098188 10.3698858,8.91594935 C10.9908696,9.24091683 11.3630046,9.74642178 11.4859652,10.4324642 C11.6011189,11.1188319 11.442376,11.7183465 11.009086,12.2310079 C10.5757961,12.7436693 10.0484965,13 9.42751262,13 C8.81368518,13 8.29712027,12.8051496 7.87814319,12.4151236 C7.45949141,12.0250976 7.23536469,11.5918076 7.20673893,11.1152537 C7.17778787,10.6383745 7.00798505,10.3098288 6.69733046,10.1292914 L3.96747359,8.52592333 C3.67828832,8.35969873 3.36795903,8.34180763 3.03583511,8.47192473 C2.69622947,8.60171654 2.37484022,8.6667751 2.07166736,8.6667751 C1.76816922,8.6667751 1.47930924,8.5945601 1.20476215,8.45013012 C0.930215057,8.30570013 0.699257195,8.11800621 0.51156327,7.88672305 C0.309231171,7.67007807 0.164801184,7.40301271 0.0782733091,7.08487639 C-0.0085798588,6.76739065 -0.0232180332,6.44567611 0.0346840787,6.12070864 C0.157644743,5.41319688 0.536610813,4.90053548 1.17223287,4.58239916 C1.80785493,4.26458813 2.42168238,4.23954059 3.0140405,4.50660595 C3.36795903,4.66567411 3.6929265,4.65493945 3.98894291,4.47407667 L6.70839041,2.84923932 C7.01156327,2.67585827 7.17778787,2.3508908 7.20673893,1.87401161 C7.23536469,1.40461415 7.45949141,0.974902412 7.87814319,0.584876389 C8.29712027,0.194850365 8.81693811,0 9.43824729,0 C10.0592312,0 10.5829525,0.256330698 11.009086,0.768992093 C11.442376,1.28197878 11.6011189,1.87791512 11.4859652,2.55647583 C11.370161,3.23568712 10.9944479,3.74119207 10.3591511,4.07331598 C9.73068548,4.40576519 9.11685804,4.43439095 8.51734347,4.16016915 C8.16342495,4.00825743 7.83845747,4.01931739 7.54244106,4.19237314 L4.63920315,5.92585827 C4.43687105,6.04881894 4.335705,6.24009108 4.335705,6.5" id="Fill-1"></path>
                        </g>
                    </g>
                </g>
            </g>
        </g>
    </g>
</svg>