<?xml version="1.0" encoding="utf-8"?>
<!-- Generator: Adobe Illustrator 20.1.0, SVG Export Plug-In . SVG Version: 6.00 Build 0)  -->
<svg version="1.1" id="Layer_1" xmlns="http://www.w3.org/2000/svg" xmlns:xlink="http://www.w3.org/1999/xlink" x="0px" y="0px"
	 viewBox="0 0 740 277.4" style="enable-background:new 0 0 740 277.4;" xml:space="preserve">
<style type="text/css">
	.st0{fill:#F74D4D;}
	.st1{fill:#FD5555;}
	.st2{fill:#009E00;}
	.st3{fill:#009700;}
	.st4{fill:#009000;}
	.st5{fill:#008900;}
	.st6{fill:#008200;}
	.st7{fill:#007B00;}
	.st8{fill:#00B900;}
	.st9{fill:#00B200;}
	.st10{fill:#00AB00;}
	.st11{fill:#00A400;}
	.st12{fill:#B57836;}
	.st13{fill:none;stroke:#F79292;stroke-miterlimit:10;}
	.st14{fill:#FFFFFF;stroke:#F79292;stroke-miterlimit:10;}
	.st15{fill:#00C000;}
	.st16{fill:#38BA38;}
	.st17{fill:#31A331;}
	.st18{fill:#42C942;}
	.st19{fill:#46B046;}
	.st20{fill:none;stroke:#FFFFFF;stroke-width:2;stroke-miterlimit:10;stroke-dasharray:5.0215,5.0215;}
	.st21{fill:#D8FFB3;}
	.st22{fill:#88D93B;}
	.st23{fill:#6B6B6B;}
	.st24{fill:#FAEBFA;}
	.st25{fill:#DB7FDE;}
	.st26{fill:#D6E5FF;}
	.st27{fill:#629CFF;}
	.st28{fill:#55D955;}
	.st29{fill:#3AC23A;}
	.st30{fill:none;stroke:#FFFFFF;stroke-miterlimit:10;}
	.st31{fill:none;stroke:#FDAAAA;stroke-miterlimit:10;}
	.st32{fill:#FDAAAA;}
	.st33{fill:#FFFFFF;}
	.st34{fill:#DE9343;}
	.st35{fill:#0B628A;}
	.st36{fill:#80C430;}
	.st37{fill:#93E037;}
	.st38{fill:#B2DAED;}
	.st39{fill:none;stroke:#5FBFED;stroke-width:2;stroke-miterlimit:10;}
	.st40{fill:none;stroke:#A0F53C;stroke-width:2;stroke-miterlimit:10;}
	.st41{fill:none;stroke:#C8F593;stroke-width:2;stroke-miterlimit:10;}
	.st42{fill:#FFB300;}
	.st43{fill:#FFCD19;}
	.st44{fill:#FFDB59;}
	.st45{fill:#FDD5D5;}
	.st46{fill:#FD6565;}
	.st47{fill:#FF9D00;}
	.st48{fill:#FFF6D6;}
	.st49{fill:#FFE175;}
	.st50{fill:#FDB9B9;}
	.st51{fill:#FFF2BA;}
	.st52{fill:#FFD417;}
	.st53{fill:#D2FDEF;}
	.st54{fill:#30FDBC;}
	.st55{fill:#A63434;}
	.st56{fill:#D64343;}
	.st57{fill:#D9D9D9;}
	.st58{opacity:0.25;fill:url(#);}
	.st59{fill:#FFBABA;}
	.st60{fill:#3CB83C;}
	.st61{fill:#5FBFED;}
	.st62{fill:#A0F53C;}
	.st63{fill:#C8F593;}
	.st64{opacity:0.5;}
	.st65{fill:#B5ECFF;}
	.st66{fill:#17C5FF;}
</style>
<g>
	<g>
		<g>
			
				<rect x="323.9" y="86.6" transform="matrix(0.5752 -0.818 0.818 0.5752 28.9388 322.4216)" class="st33" width="2" height="93.4"/>
		</g>
		<g>
			<g>
				<polygon class="st33" points="358.7,161.6 362.1,159.5 363,155.6 368,163.7 				"/>
			</g>
		</g>
	</g>
	<g>
		<g>
			
				<rect x="351.9" y="140.5" transform="matrix(0.5752 -0.818 0.818 0.5752 24.7324 353.6563)" class="st59" width="2" height="25.1"/>
		</g>
		<g>
			<g>
				<polygon class="st59" points="358.7,161.6 362.1,159.5 363,155.6 368,163.7 				"/>
			</g>
		</g>
	</g>
	<g>
		<g>
			<g>
				<g>
					<g>
						<g>
							<path class="st16" d="M416.4,277.4h-64.8l29.4-31.3c0.1-0.1,0.2-0.2,0.3-0.3c1.1-0.9,2.5-1.2,3.8-0.9c0.7,0.2,1.4,0.6,2,1.2
								L416.4,277.4z"/>
						</g>
					</g>
				</g>
			</g>
			<g>
				<g>
					<g>
						<g>
							<path class="st18" d="M460.5,277.4H307.4l56-59.7l9.1-9.7l5.2-5.6l3.5-3.8c1.5-1.6,4-1.6,5.5,0l3.5,3.8l5.2,5.6l9.1,9.7
								l25.7,27.4l0.6,0.7L460.5,277.4z"/>
						</g>
					</g>
					<g>
						<path class="st60" d="M404.6,217.8h-41.2l17.8-19c1.5-1.6,4-1.6,5.5,0L404.6,217.8z"/>
					</g>
				</g>
			</g>
		</g>
		<g>
			<g>
				<g>
					<g>
						<path class="st33" d="M387.1,151.7c-1.1-1.2-3-1.7-4.5-1.2l0.6,1.9c0.9-0.3,1.8,0,2.5,0.6l0.8,0.9l1.5-1.4L387.1,151.7z
							 M378.5,154.2l-3.4,3.7l1.5,1.4l3.4-3.7L378.5,154.2z M391.4,156.3l-1.5,1.4l3.4,3.7l1.5-1.4L391.4,156.3z M371.6,161.5
							l-3.4,3.7l1.5,1.4l3.4-3.7L371.6,161.5z M398.3,163.6l-1.5,1.4l3.4,3.7l1.5-1.4L398.3,163.6z M364.8,168.8l-3.4,3.7l1.5,1.4
							l3.4-3.7L364.8,168.8z M405.1,170.9l-1.5,1.4l3.4,3.7l1.5-1.4L405.1,170.9z M357.9,176.1l-3.4,3.7l1.5,1.4l3.4-3.7
							L357.9,176.1z M412,178.2l-1.5,1.4l3.4,3.7l1.5-1.4L412,178.2z M351,183.5l-3.4,3.7l1.5,1.4l3.4-3.7L351,183.5z M418.9,185.6
							l-1.5,1.4l3.4,3.7l1.5-1.4L418.9,185.6z M344.1,190.8l-3.4,3.7l1.5,1.4l3.4-3.7L344.1,190.8z M425.8,192.9l-1.5,1.4l3.4,3.7
							l1.5-1.4L425.8,192.9z M337.3,198.1l-3.4,3.7l0.8,0.8l0.7,0.6l0.6-0.6l2.9-3L337.3,198.1z M434.8,202.5l-2.2-2.3l-1.4,1.4
							l0.9,1l2.5,2.7l1.5-1.4L434.8,202.5z M330.4,205.4l-2.5,2.7l-0.9,1l1.5,1.4l2.2-2.4l1.2-1.3L330.4,205.4z M440,208.1l-0.5-0.6
							l-0.6,0.6l-0.8,0.8l3.4,3.7l1.5-1.4L440,208.1z M323.5,212.8l-3.4,3.7l1.5,1.4l3.4-3.7L323.5,212.8z M446.4,214.9l-1.5,1.4
							l3.4,3.7l1.5-1.4L446.4,214.9z M316.6,220.1l-3.4,3.7l1.5,1.4l3.4-3.7L316.6,220.1z M453.2,222.2l-1.5,1.4l3.4,3.7l1.5-1.4
							L453.2,222.2z M311.1,228.7l-1.3-1.3l-1,1.1l-2.4,2.6l1.5,1.4l3.4-3.7L311.1,228.7z M460.1,229.5l-1.5,1.4l3.4,3.7l1.5-1.4
							L460.1,229.5z M302.9,234.7l-3.4,3.7l1.5,1.4l3.4-3.7L302.9,234.7z M468.6,238.6l-1.6-1.7l-1.5,1.4l1.5,1.6l0.1,0.1
							c0.4,0.4,0.6,1,0.6,1.5c0,0.1,0,0.1,0,0.2l2,0.1c0-0.1,0-0.2,0-0.3C469.7,240.4,469.3,239.4,468.6,238.6z M302.6,243.8
							c-0.7,0-1.3-0.3-1.8-0.8l-1.5,1.3c0.8,1,2,1.5,3.3,1.5h2.1v-2H302.6z M309.7,243.8v2h5v-2H309.7z M319.7,243.8v2h5v-2H319.7z
							 M329.8,243.8v2h5v-2H329.8z M339.8,243.8v2h5v-2H339.8z M349.9,243.8v2h5v-2H349.9z M359.9,243.8v2h5v-2H359.9z M370,243.8v2
							h5v-2H370z M380,243.8v2h5v-2H380z M390,243.8v2h5v-2H390z M400.1,243.8v2h5v-2H400.1z M410.1,243.8v2h5v-2H410.1z
							 M420.2,243.8v2h5v-2H420.2z M430.2,243.8v2h5v-2H430.2z M440.3,243.8v2h5v-2H440.3z M450.3,243.8v2h5v-2H450.3z M465.4,243.8
							h-5v2h5L465.4,243.8z"/>
					</g>
				</g>
			</g>
		</g>
		<g>
			<g>
				
					<rect x="263.9" y="176.2" transform="matrix(0.1073 -0.9942 0.9942 0.1073 14.9649 462.2158)" class="st33" width="2" height="93.2"/>
			</g>
			<g>
				<g>
					<path class="st33" d="M217.2,248.8h-70.8c-1.6,0-2.8-1.3-2.8-2.8v-56.3c0-1.6,1.3-2.8,2.8-2.8h70.8c1.6,0,2.8,1.3,2.8,2.8v56.3
						C220.1,247.5,218.8,248.8,217.2,248.8z"/>
				</g>
				<g>
					<g>
						<path class="st35" d="M194.7,209.2v-9.6c0-1.3-1.1-2.4-2.4-2.4h-35.1c-1.3,0-2.4,1.1-2.4,2.4v5.8v3.8v25.1v1.5
							c0,1.3,1.1,2.4,2.4,2.4h0h13.3c1.3,0,2.4-1.1,2.4-2.4v-1.5h-15.7v-25.1H194.7z"/>
					</g>
					<g>
						<path class="st36" d="M203.2,223.9h-45.9v-14.8h45.9c1.6,0,2.8,1.3,2.8,2.8v9.1C206,222.7,204.7,223.9,203.2,223.9z"/>
					</g>
					<g>
						<path class="st37" d="M195,234.3h-37.7v-10.3h40.6v7.5C197.8,233,196.6,234.3,195,234.3z"/>
					</g>
					<g>
						<path class="st38" d="M192,206.8h-11.6c-0.2,0-0.3-0.2-0.3-0.3v-6.7c0-0.2,0.2-0.3,0.3-0.3H192c0.2,0,0.3,0.2,0.3,0.3v6.7
							C192.3,206.6,192.2,206.8,192,206.8z"/>
					</g>
					<g>
						<path class="st33" d="M201,220.3h-11.6c-0.2,0-0.3-0.2-0.3-0.3v-6.7c0-0.2,0.2-0.3,0.3-0.3H201c0.2,0,0.3,0.2,0.3,0.3v6.7
							C201.4,220.1,201.2,220.3,201,220.3z"/>
					</g>
					<g>
						<rect x="159.5" y="202.1" class="st61" width="14.1" height="2"/>
					</g>
					<g>
						<rect x="159.5" y="215.5" class="st62" width="14.1" height="2"/>
					</g>
					<g>
						<rect x="159.5" y="228.1" class="st63" width="6.8" height="2"/>
					</g>
					<g>
						<rect x="168.9" y="228.1" class="st63" width="22.5" height="2"/>
					</g>
					<g>
						<rect x="177.6" y="215.5" class="st62" width="7.8" height="2"/>
					</g>
				</g>
			</g>
		</g>
		<g>
			<g>
				<g>
					<path class="st21" d="M285.6,92c0,1.5-3.1,2.5-3.5,3.9c-0.5,1.4,1.4,4,0.5,5.2c-0.9,1.2-3.9,0.2-5.1,1.1
						c-1.2,0.9-1.2,4.1-2.6,4.5c-1.4,0.4-3.3-2.1-4.8-2.1c-1.5,0-3.4,2.6-4.8,2.1c-1.4-0.5-1.4-3.7-2.6-4.5
						c-1.2-0.9-4.3,0.1-5.1-1.1c-0.9-1.2,1-3.8,0.5-5.2c-0.4-1.4-3.5-2.4-3.5-3.9c0-1.5,3.1-2.5,3.5-3.9c0.5-1.4-1.4-4-0.5-5.2
						c0.9-1.2,3.9-0.2,5.1-1.1c1.2-0.9,1.2-4.1,2.6-4.5c1.4-0.4,3.3,2.1,4.8,2.1c1.5,0,3.4-2.6,4.8-2.1c1.4,0.5,1.4,3.7,2.6,4.5
						c1.2,0.9,4.3-0.1,5.1,1.1c0.9,1.2-1,3.8-0.5,5.2C282.5,89.4,285.6,90.4,285.6,92z"/>
				</g>
				<g>
					<path class="st22" d="M275,97.2c0,3.8-1.5,7.2-3.9,9.7c-0.6,0.6-1.5,0.6-2,0c-2.4-2.5-3.9-5.9-3.9-9.7c0-3.8,1.5-7.2,3.9-9.7
						c0.6-0.6,1.5-0.6,2,0C273.5,90,275,93.5,275,97.2z"/>
				</g>
				<g>
					<path class="st23" d="M273,111.4h-5.9c-0.5,0-0.9-0.4-0.9-0.9v-5c0-0.5,0.4-0.9,0.9-0.9h5.9c0.5,0,0.9,0.4,0.9,0.9v5
						C273.9,111,273.5,111.4,273,111.4z"/>
				</g>
			</g>
			<g>
				<g>
					<g>
						<g>
							<path class="st28" d="M465.4,208.1H302.6c-2.9,0-4.4-3.4-2.5-5.6c0,0,0,0,0.1-0.1l81.4-86.7c1.3-1.4,3.6-1.4,4.9,0l81.4,86.7
								c0,0,0,0,0.1,0.1C469.8,204.7,468.3,208.1,465.4,208.1z"/>
						</g>
					</g>
				</g>
				<g>
					<path class="st29" d="M465.4,208.1H302.6c-2.9,0-4.4-3.4-2.5-5.6h167.8C469.8,204.7,468.3,208.1,465.4,208.1z"/>
				</g>
			</g>
			<g>
				<g>
					<rect x="383" y="93.9" class="st33" width="2" height="8.6"/>
				</g>
				<g>
					<g>
						<polygon class="st33" points="380.3,99.7 384,101.3 387.7,99.7 384,108.5 						"/>
					</g>
				</g>
			</g>
			<g>
				<g>
					
						<rect x="405.7" y="131.6" transform="matrix(0.7455 -0.6665 0.6665 0.7455 26.5407 334.6482)" class="st33" width="91.6" height="2"/>
				</g>
				<g>
					<g>
						<polygon class="st33" points="417,158.5 418.3,162.3 421.9,164 412.9,167.1 						"/>
					</g>
				</g>
			</g>
			<g>
				<g>
					<g>
						<g>
							<path class="st42" d="M391,88.2h-14c-1,0-1.8-1-1.5-2l0.3-1.3l4.2-16h8.2l4.2,16l0.3,1.3C392.8,87.2,392,88.2,391,88.2z"/>
						</g>
						<g>
							<path class="st43" d="M386,22.6l8.1,16.4c0.3,0.7,1,1.1,1.7,1.3l18.1,2.6c1.9,0.3,2.6,2.6,1.3,3.9l-13.1,12.8
								c-0.5,0.5-0.8,1.3-0.7,2l3.1,18.1c0.3,1.9-1.6,3.3-3.3,2.4L385,73.6c-0.7-0.4-1.5-0.4-2.1,0l-16.2,8.5
								c-1.7,0.9-3.7-0.5-3.3-2.4l3.1-18.1c0.1-0.7-0.1-1.5-0.7-2l-13.1-12.8c-1.4-1.3-0.6-3.6,1.3-3.9l18.1-2.6
								c0.7-0.1,1.4-0.6,1.7-1.3l8.1-16.4C382.7,20.9,385.2,20.9,386,22.6z"/>
						</g>
						<g>
							<path class="st44" d="M384.7,44l2.7,5.6c0.1,0.2,0.3,0.4,0.6,0.4l6.1,0.9c0.6,0.1,0.9,0.9,0.4,1.3l-4.4,4.3
								c-0.2,0.2-0.3,0.4-0.2,0.7l1,6.1c0.1,0.6-0.6,1.1-1.1,0.8l-5.5-2.9c-0.2-0.1-0.5-0.1-0.7,0l-5.5,2.9
								c-0.6,0.3-1.2-0.2-1.1-0.8l1-6.1c0-0.3,0-0.5-0.2-0.7l-4.4-4.3c-0.5-0.4-0.2-1.2,0.4-1.3l6.1-0.9c0.3,0,0.5-0.2,0.6-0.4
								l2.7-5.6C383.6,43.4,384.4,43.4,384.7,44z"/>
						</g>
					</g>
					<g>
						<path class="st47" d="M391,88.2h-14c-1,0-1.8-1-1.5-2l0.3-1.3h16.5l0.3,1.3C392.8,87.2,392,88.2,391,88.2z"/>
					</g>
				</g>
				<g>
					<path class="st48" d="M382,38.5c-5.2,1-6.9,2.7-8,8c-0.2,0.8-1.3,0.8-1.5,0c-1-5.2-2.7-6.9-8-8c-0.8-0.2-0.8-1.3,0-1.5
						c5.2-1,6.9-2.7,8-8c0.2-0.8,1.3-0.8,1.5,0c1,5.2,2.7,6.9,8,8C382.8,37.2,382.8,38.4,382,38.5z"/>
				</g>
				<g>
					<path class="st49" d="M420.3,20.3c-3.8,0.8-5,2-5.7,5.7c-0.1,0.6-1,0.6-1.1,0c-0.8-3.8-2-5-5.7-5.7c-0.6-0.1-0.6-1,0-1.1
						c3.8-0.8,5-2,5.7-5.7c0.1-0.6,1-0.6,1.1,0c0.8,3.8,2,5,5.7,5.7C420.9,19.4,420.9,20.2,420.3,20.3z"/>
				</g>
				<g>
					<circle class="st50" cx="421.9" cy="28.4" r="1.2"/>
				</g>
			</g>
		</g>
		<g>
			<g>
				<path class="st51" d="M593.5,119.1c0,1.5-3.1,2.5-3.5,3.9c-0.5,1.4,1.4,4,0.5,5.2c-0.9,1.2-3.9,0.2-5.1,1.1
					c-1.2,0.9-1.2,4.1-2.6,4.5c-1.4,0.4-3.3-2.1-4.8-2.1s-3.4,2.6-4.8,2.1c-1.4-0.5-1.4-3.7-2.6-4.5c-1.2-0.9-4.3,0.1-5.1-1.1
					c-0.9-1.2,1-3.8,0.5-5.2c-0.4-1.4-3.5-2.4-3.5-3.9c0-1.5,3.1-2.5,3.5-3.9c0.5-1.4-1.4-4-0.5-5.2c0.9-1.2,3.9-0.2,5.1-1.1
					c1.2-0.9,1.2-4.1,2.6-4.5c1.4-0.4,3.3,2.1,4.8,2.1c1.5,0,3.4-2.6,4.8-2.1c1.4,0.5,1.4,3.7,2.6,4.5c1.2,0.9,4.3-0.1,5.1,1.1
					c0.9,1.2-1,3.8-0.5,5.2C590.4,116.6,593.5,117.6,593.5,119.1z"/>
			</g>
			<g>
				<path class="st52" d="M583,124.4c0,3.8-1.5,7.2-3.9,9.7c-0.6,0.6-1.5,0.6-2,0c-2.4-2.5-3.9-5.9-3.9-9.7c0-3.8,1.5-7.2,3.9-9.7
					c0.6-0.6,1.5-0.6,2,0C581.5,117.2,583,120.6,583,124.4z"/>
			</g>
			<g>
				<path class="st23" d="M580.9,138.6h-5.9c-0.5,0-0.9-0.4-0.9-0.9v-5c0-0.5,0.4-0.9,0.9-0.9h5.9c0.5,0,0.9,0.4,0.9,0.9v5
					C581.8,138.2,581.4,138.6,580.9,138.6z"/>
			</g>
		</g>
		<g>
			<g>
				<path class="st45" d="M538.9,225.4c0,1.5-3.1,2.5-3.5,3.9c-0.5,1.4,1.4,4,0.5,5.2c-0.9,1.2-3.9,0.2-5.1,1.1
					c-1.2,0.9-1.2,4.1-2.6,4.5c-1.4,0.4-3.3-2.1-4.8-2.1s-3.4,2.6-4.8,2.1c-1.4-0.5-1.4-3.7-2.6-4.5c-1.2-0.9-4.3,0.1-5.1-1.1
					c-0.9-1.2,1-3.8,0.5-5.2c-0.4-1.4-3.5-2.4-3.5-3.9c0-1.5,3.1-2.5,3.5-3.9c0.5-1.4-1.4-4-0.5-5.2c0.9-1.2,3.9-0.2,5.1-1.1
					c1.2-0.9,1.2-4.1,2.6-4.5c1.4-0.4,3.3,2.1,4.8,2.1c1.5,0,3.4-2.6,4.8-2.1c1.4,0.5,1.4,3.7,2.6,4.5c1.2,0.9,4.3-0.1,5.1,1.1
					c0.9,1.2-1,3.8-0.5,5.2C535.9,222.8,538.9,223.8,538.9,225.4z"/>
			</g>
			<g>
				<path class="st46" d="M528.4,230.6c0,3.8-1.5,7.2-3.9,9.7c-0.6,0.6-1.5,0.6-2,0c-2.4-2.5-3.9-5.9-3.9-9.7c0-3.8,1.5-7.2,3.9-9.7
					c0.6-0.6,1.5-0.6,2,0C526.9,223.4,528.4,226.9,528.4,230.6z"/>
			</g>
			<g>
				<path class="st23" d="M526.4,244.8h-5.9c-0.5,0-0.9-0.4-0.9-0.9v-5c0-0.5,0.4-0.9,0.9-0.9h5.9c0.5,0,0.9,0.4,0.9,0.9v5
					C527.3,244.4,526.9,244.8,526.4,244.8z"/>
			</g>
		</g>
	</g>
	<g>
		<g>
			<path class="st45" d="M60.4,168.6c0,1.5-3.1,2.5-3.5,3.9c-0.5,1.4,1.4,4,0.5,5.2c-0.9,1.2-3.9,0.2-5.1,1.1
				c-1.2,0.9-1.2,4.1-2.6,4.5c-1.4,0.4-3.3-2.1-4.8-2.1c-1.5,0-3.4,2.6-4.8,2.1c-1.4-0.5-1.4-3.7-2.6-4.5c-1.2-0.9-4.3,0.1-5.1-1.1
				c-0.9-1.2,1-3.8,0.5-5.2c-0.4-1.4-3.5-2.4-3.5-3.9c0-1.5,3.1-2.5,3.5-3.9c0.5-1.4-1.4-4-0.5-5.2c0.9-1.2,3.9-0.2,5.1-1.1
				c1.2-0.9,1.2-4.1,2.6-4.5c1.4-0.4,3.3,2.1,4.8,2.1c1.5,0,3.4-2.6,4.8-2.1c1.4,0.5,1.4,3.7,2.6,4.5c1.2,0.9,4.3-0.1,5.1,1.1
				c0.9,1.2-1,3.8-0.5,5.2C57.3,166.1,60.4,167.1,60.4,168.6z"/>
		</g>
		<g>
			<path class="st46" d="M49.8,173.9c0,3.8-1.5,7.2-3.9,9.7c-0.6,0.6-1.5,0.6-2,0c-2.4-2.5-3.9-5.9-3.9-9.7c0-3.8,1.5-7.2,3.9-9.7
				c0.6-0.6,1.5-0.6,2,0C48.3,166.7,49.8,170.1,49.8,173.9z"/>
		</g>
		<g>
			<path class="st23" d="M47.8,188.1h-5.9c-0.5,0-0.9-0.4-0.9-0.9v-5c0-0.5,0.4-0.9,0.9-0.9h5.9c0.5,0,0.9,0.4,0.9,0.9v5
				C48.7,187.7,48.3,188.1,47.8,188.1z"/>
		</g>
	</g>
	<g>
		<g>
			<path class="st51" d="M141.4,91c0,1.5-3.1,2.5-3.5,3.9c-0.5,1.4,1.4,4,0.5,5.2c-0.9,1.2-3.9,0.2-5.1,1.1
				c-1.2,0.9-1.2,4.1-2.6,4.5c-1.4,0.4-3.3-2.1-4.8-2.1c-1.5,0-3.4,2.6-4.8,2.1c-1.4-0.5-1.4-3.7-2.6-4.5c-1.2-0.9-4.3,0.1-5.1-1.1
				c-0.9-1.2,1-3.8,0.5-5.2c-0.4-1.4-3.5-2.4-3.5-3.9c0-1.5,3.1-2.5,3.5-3.9c0.5-1.4-1.4-4-0.5-5.2c0.9-1.2,3.9-0.2,5.1-1.1
				c1.2-0.9,1.2-4.1,2.6-4.5c1.4-0.4,3.3,2.1,4.8,2.1c1.5,0,3.4-2.6,4.8-2.1c1.4,0.5,1.4,3.7,2.6,4.5c1.2,0.9,4.3-0.1,5.1,1.1
				c0.9,1.2-1,3.8-0.5,5.2C138.3,88.5,141.4,89.5,141.4,91z"/>
		</g>
		<g>
			<path class="st52" d="M130.8,96.3c0,3.8-1.5,7.2-3.9,9.7c-0.6,0.6-1.5,0.6-2,0c-2.4-2.5-3.9-5.9-3.9-9.7c0-3.8,1.5-7.2,3.9-9.7
				c0.6-0.6,1.5-0.6,2,0C129.3,89.1,130.8,92.5,130.8,96.3z"/>
		</g>
		<g>
			<path class="st23" d="M128.8,110.5h-5.9c-0.5,0-0.9-0.4-0.9-0.9v-5c0-0.5,0.4-0.9,0.9-0.9h5.9c0.5,0,0.9,0.4,0.9,0.9v5
				C129.7,110.1,129.3,110.5,128.8,110.5z"/>
		</g>
	</g>
	<g class="st64">
		<path class="st32" d="M115.6,114.1l-3.9,3.1l1.2,1.6l3.9-3.1L115.6,114.1z M107.7,120.2l-3.9,3.1l1.2,1.6l3.9-3.1L107.7,120.2z
			 M99.8,126.4l-4,3.1l1.2,1.6l4-3.1L99.8,126.4z M91.9,132.5l-3.9,3.1l1.2,1.6l3.9-3.1L91.9,132.5z M84,138.7l-4,3.1l1.2,1.6
			l3.9-3.1L84,138.7z M76.1,144.8l-3.9,3.1l1.2,1.6l3.9-3.1L76.1,144.8z M68.2,151l-3.9,3.1l1.2,1.6l3.9-3.1L68.2,151z"/>
	</g>
	<g class="st64">
		<path class="st32" d="M138.9,108.4v2h5v-2H138.9z M148.9,108.4v2h5v-2H148.9z M158.9,108.4v2h5v-2H158.9z M168.9,108.4v2h5v-2
			H168.9z M178.9,108.4v2h5v-2H178.9z M188.9,108.4v2h5v-2H188.9z M198.9,108.4v2h5v-2H198.9z M208.9,108.4v2h5v-2H208.9z
			 M218.9,108.4v2h5v-2H218.9z M228.9,108.4v2h5v-2H228.9z M238.9,108.4v2h5v-2H238.9z M248.9,108.4v2h5v-2H248.9z"/>
	</g>
	<g class="st64">
		<path class="st32" d="M197.6,114.8l-2,0.2c0.2,1.7,0.4,3.4,0.8,5l2-0.4C198,118.1,197.7,116.5,197.6,114.8z M199.5,124.4l-1.9,0.6
			c0.5,1.6,1.1,3.2,1.7,4.8l1.8-0.8C200.5,127.5,200,126,199.5,124.4z M203.3,133.5l-1.8,1c0.8,1.5,1.7,3,2.7,4.4l1.6-1.1
			C204.9,136.3,204.1,134.9,203.3,133.5z M208.8,141.6l-1.5,1.3c1.1,1.3,2.2,2.6,3.5,3.8l1.4-1.4C210.9,144,209.8,142.8,208.8,141.6
			z M215.7,148.4l-1.3,1.6c1.3,1.1,2.7,2.1,4.1,3l1.1-1.7C218.3,150.4,217,149.5,215.7,148.4z M223.9,153.8l-0.9,1.8
			c1.5,0.8,3,1.5,4.6,2.2l0.8-1.9C226.8,155.3,225.3,154.6,223.9,153.8z M232.9,157.5l-0.6,1.9c1.6,0.5,3.3,0.9,5,1.2l0.4-2
			C236.1,158.4,234.5,158,232.9,157.5z M242.6,159.4l-0.2,2c1.6,0.1,3.2,0.2,4.7,0.2v-2C245.6,159.6,244.1,159.5,242.6,159.4z"/>
	</g>
	<g>
		<g>
			<path class="st26" d="M273.2,143.7c0,1.5-3.1,2.5-3.5,3.9c-0.5,1.4,1.4,4,0.5,5.2c-0.9,1.2-3.9,0.2-5.1,1.1
				c-1.2,0.9-1.2,4.1-2.6,4.5c-1.4,0.4-3.3-2.1-4.8-2.1c-1.5,0-3.4,2.6-4.8,2.1c-1.4-0.5-1.4-3.7-2.6-4.5c-1.2-0.9-4.3,0.1-5.1-1.1
				c-0.9-1.2,1-3.8,0.5-5.2c-0.4-1.4-3.5-2.4-3.5-3.9c0-1.5,3.1-2.5,3.5-3.9c0.5-1.4-1.4-4-0.5-5.2c0.9-1.2,3.9-0.2,5.1-1.1
				c1.2-0.9,1.2-4.1,2.6-4.5c1.4-0.4,3.3,2.1,4.8,2.1c1.5,0,3.4-2.6,4.8-2.1c1.4,0.5,1.4,3.7,2.6,4.5c1.2,0.9,4.3-0.1,5.1,1.1
				c0.9,1.2-1,3.8-0.5,5.2C270.1,141.1,273.2,142.1,273.2,143.7z"/>
		</g>
		<g>
			<path class="st27" d="M262.7,148.9c0,3.8-1.5,7.2-3.9,9.7c-0.6,0.6-1.5,0.6-2,0c-2.4-2.5-3.9-5.9-3.9-9.7c0-3.8,1.5-7.2,3.9-9.7
				c0.6-0.6,1.5-0.6,2,0C261.2,141.7,262.7,145.2,262.7,148.9z"/>
		</g>
		<g>
			<path class="st23" d="M260.6,163.1h-5.9c-0.5,0-0.9-0.4-0.9-0.9v-5c0-0.5,0.4-0.9,0.9-0.9h5.9c0.5,0,0.9,0.4,0.9,0.9v5
				C261.5,162.7,261.1,163.1,260.6,163.1z"/>
		</g>
	</g>
	<g>
		<g>
			
				<rect x="304.6" y="133.5" transform="matrix(0.369 -0.9294 0.9294 0.369 37.7134 389.2827)" class="st33" width="2" height="66.7"/>
		</g>
		<g>
			<g>
				<polygon class="st33" points="332.6,181.6 335.4,178.7 335.3,174.7 342.1,181.4 				"/>
			</g>
		</g>
	</g>
	<g class="st64">
		<path class="st32" d="M499.9,105.1l-1.6,1.2c1,1.4,2,2.7,3,4l1.6-1.3C501.8,107.8,500.8,106.4,499.9,105.1z M506.1,112.7l-1.5,1.4
			c1.2,1.2,2.4,2.4,3.6,3.6l1.3-1.5C508.4,115.1,507.2,113.9,506.1,112.7z M513.3,119.4l-1.2,1.6c1.3,1,2.7,2.1,4.1,3l1.1-1.7
			C516,121.4,514.6,120.4,513.3,119.4z M521.5,125l-1,1.7c1.5,0.9,3,1.7,4.5,2.4l0.9-1.8C524.3,126.6,522.9,125.8,521.5,125z
			 M530.3,129.3l-0.8,1.8c1.6,0.6,3.2,1.2,4.8,1.7l0.6-1.9C533.4,130.4,531.8,129.9,530.3,129.3z M539.7,132.3l-0.5,2
			c1.6,0.4,3.3,0.7,5,1l0.3-2C542.9,133,541.3,132.7,539.7,132.3z M549.4,133.9l-0.2,2c1.7,0.2,3.4,0.2,5.1,0.3l0-2
			C552.7,134.1,551,134,549.4,133.9z M559.3,134.1v2h5v-2H559.3z"/>
	</g>
	<g>
		<g>
			<path class="st24" d="M509.6,82.3c0,1.5-3.1,2.5-3.5,3.9c-0.5,1.4,1.4,4,0.5,5.2c-0.9,1.2-3.9,0.2-5.1,1.1
				c-1.2,0.9-1.2,4.1-2.6,4.5c-1.4,0.4-3.3-2.1-4.8-2.1c-1.5,0-3.4,2.6-4.8,2.1c-1.4-0.5-1.4-3.7-2.6-4.5c-1.2-0.9-4.3,0.1-5.1-1.1
				c-0.9-1.2,1-3.8,0.5-5.2c-0.4-1.4-3.5-2.4-3.5-3.9c0-1.5,3.1-2.5,3.5-3.9c0.5-1.4-1.4-4-0.5-5.2c0.9-1.2,3.9-0.2,5.1-1.1
				c1.2-0.9,1.2-4.1,2.6-4.5c1.4-0.4,3.3,2.1,4.8,2.1c1.5,0,3.4-2.6,4.8-2.1c1.4,0.5,1.4,3.7,2.6,4.5c1.2,0.9,4.3-0.1,5.1,1.1
				c0.9,1.2-1,3.8-0.5,5.2C506.6,79.7,509.6,80.8,509.6,82.3z"/>
		</g>
		<g>
			<path class="st25" d="M499.1,87.5c0,3.8-1.5,7.2-3.9,9.7c-0.6,0.6-1.5,0.6-2,0c-2.4-2.5-3.9-5.9-3.9-9.7c0-3.8,1.5-7.2,3.9-9.7
				c0.6-0.6,1.5-0.6,2,0C497.6,80.3,499.1,83.8,499.1,87.5z"/>
		</g>
		<g>
			<path class="st23" d="M497.1,101.7h-5.9c-0.5,0-0.9-0.4-0.9-0.9v-5c0-0.5,0.4-0.9,0.9-0.9h5.9c0.5,0,0.9,0.4,0.9,0.9v5
				C497.9,101.3,497.5,101.7,497.1,101.7z"/>
		</g>
	</g>
	<g class="st64">
		<path class="st32" d="M584.5,145.6l-1.9,0.6c0.5,1.6,1,3.2,1.4,4.7l1.9-0.5C585.5,148.8,585,147.2,584.5,145.6z M587,155.4l-2,0.4
			c0.3,1.6,0.6,3.2,0.8,4.9l2-0.2C587.6,158.7,587.3,157,587,155.4z M588.2,165.4l-2,0.1c0.1,1.5,0.1,3,0.1,4.5v0.4l2,0v-0.4
			C588.4,168.5,588.3,167,588.2,165.4z M586.2,175.4c-0.1,1.6-0.3,3.3-0.5,4.9l2,0.3c0.2-1.7,0.4-3.4,0.5-5L586.2,175.4z
			 M584.9,185.2c-0.3,1.6-0.7,3.2-1.1,4.8l1.9,0.5c0.4-1.6,0.8-3.3,1.2-4.9L584.9,185.2z M582.3,194.7c-0.5,1.6-1.1,3.1-1.7,4.6
			l1.8,0.8c0.6-1.5,1.2-3.1,1.8-4.7L582.3,194.7z M578.6,203.8c-0.7,1.5-1.5,2.9-2.3,4.4l1.7,1c0.8-1.5,1.6-3,2.4-4.5L578.6,203.8z
			 M573.7,212.4c-0.9,1.4-1.9,2.7-2.8,4l1.6,1.2c1-1.3,2-2.7,2.9-4.1L573.7,212.4z M567.7,220.2c-1.1,1.2-2.2,2.5-3.3,3.6l1.4,1.4
			c1.2-1.2,2.3-2.5,3.4-3.7L567.7,220.2z M560.8,227.3c-1.2,1.1-2.5,2.2-3.8,3.2l1.2,1.6c1.3-1,2.6-2.1,3.9-3.2L560.8,227.3z
			 M553,233.4c-1.3,0.9-2.7,1.8-4.2,2.6l1,1.7c1.5-0.9,2.9-1.8,4.3-2.7L553,233.4z M544.6,238.4c-1.5,0.7-3,1.5-4.5,2.1l0.8,1.8
			c1.5-0.7,3.1-1.4,4.6-2.1L544.6,238.4z"/>
	</g>
	<g class="st64">
		<path class="st32" d="M590.6,188.3l-0.5,1.9l4.8,1.2l0.5-1.9L590.6,188.3z M600.3,190.7l-0.5,1.9l4.8,1.2l0.5-1.9L600.3,190.7z
			 M610,193.2l-0.5,1.9l4.8,1.2l0.5-1.9L610,193.2z M619.7,195.7l-0.5,1.9l4.8,1.2l0.5-1.9L619.7,195.7z M629.4,198.1l-0.5,1.9
			l4.8,1.2l0.5-1.9L629.4,198.1z M639.1,200.6l-0.5,1.9l4.8,1.2l0.5-1.9L639.1,200.6z M648.8,203.1l-0.5,1.9l4.8,1.2l0.5-1.9
			L648.8,203.1z"/>
	</g>
	<g>
		<g>
			<path class="st65" d="M682.2,188.1c0,1.5-3.1,2.5-3.5,3.9c-0.5,1.4,1.4,4,0.5,5.2c-0.9,1.2-3.9,0.2-5.1,1.1
				c-1.2,0.9-1.2,4.1-2.6,4.5c-1.4,0.4-3.3-2.1-4.8-2.1c-1.5,0-3.4,2.6-4.8,2.1c-1.4-0.5-1.4-3.7-2.6-4.5c-1.2-0.9-4.3,0.1-5.1-1.1
				c-0.9-1.2,1-3.8,0.5-5.2c-0.4-1.4-3.5-2.4-3.5-3.9c0-1.5,3.1-2.5,3.5-3.9c0.5-1.4-1.4-4-0.5-5.2c0.9-1.2,3.9-0.2,5.1-1.1
				c1.2-0.9,1.2-4.1,2.6-4.5c1.4-0.4,3.3,2.1,4.8,2.1c1.5,0,3.4-2.6,4.8-2.1c1.4,0.5,1.4,3.7,2.6,4.5c1.2,0.9,4.3-0.1,5.1,1.1
				c0.9,1.2-1,3.8-0.5,5.2C679.1,185.5,682.2,186.6,682.2,188.1z"/>
		</g>
		<g>
			<path class="st66" d="M671.7,193.4c0,3.8-1.5,7.2-3.9,9.7c-0.6,0.6-1.5,0.6-2,0c-2.4-2.5-3.9-5.9-3.9-9.7c0-3.8,1.5-7.2,3.9-9.7
				c0.6-0.6,1.5-0.6,2,0C670.2,186.2,671.7,189.6,671.7,193.4z"/>
		</g>
		<g>
			<path class="st23" d="M669.6,207.5h-5.9c-0.5,0-0.9-0.4-0.9-0.9v-5c0-0.5,0.4-0.9,0.9-0.9h5.9c0.5,0,0.9,0.4,0.9,0.9v5
				C670.5,207.1,670.1,207.5,669.6,207.5z"/>
		</g>
	</g>
	<g class="st64">
		<path class="st32" d="M185,2.1l-1.4,1.4l3.5,3.5l1.4-1.4L185,2.1z M192.1,9.2l-1.4,1.4l3.5,3.5l1.4-1.4L192.1,9.2z M199.1,16.3
			l-1.4,1.4l3.5,3.5l1.4-1.4L199.1,16.3z M206.2,23.3l-1.4,1.4l3.5,3.5l1.4-1.4L206.2,23.3z M213.3,30.4l-1.4,1.4l3.5,3.5l1.4-1.4
			L213.3,30.4z M220.3,37.5l-1.4,1.4l3.5,3.5l1.4-1.4L220.3,37.5z M227.4,44.5L226,46l3.5,3.5l1.4-1.4L227.4,44.5z M234.5,51.6
			l-1.4,1.4l3.5,3.5l1.4-1.4L234.5,51.6z M241.5,58.7l-1.4,1.4l3.5,3.5l1.4-1.4L241.5,58.7z M248.6,65.8l-1.4,1.4l3.5,3.5l1.4-1.4
			L248.6,65.8z M255.7,72.8l-1.4,1.4l3.5,3.5l1.4-1.4L255.7,72.8z"/>
	</g>
	<g class="st64">
		<path class="st32" d="M697.6,2.8l-3.5,3.5l1.4,1.4l3.5-3.5L697.6,2.8z M690.6,9.9l-3.5,3.5l1.4,1.4l3.5-3.5L690.6,9.9z
			 M683.5,16.9l-3.5,3.5l1.4,1.4l3.5-3.5L683.5,16.9z M676.4,24l-3.5,3.5l1.4,1.4l3.5-3.5L676.4,24z M669.4,31.1l-3.5,3.5l1.4,1.4
			l3.5-3.5L669.4,31.1z M662.3,38.1l-3.5,3.5l1.4,1.4l3.5-3.5L662.3,38.1z M655.2,45.2l-3.5,3.5l1.4,1.4l3.5-3.5L655.2,45.2z
			 M648.1,52.3l-3.5,3.5l1.4,1.4l3.5-3.5L648.1,52.3z M641.1,59.4l-3.5,3.5l1.4,1.4l3.5-3.5L641.1,59.4z M634,66.4l-3.5,3.5l1.4,1.4
			l3.5-3.5L634,66.4z M626.9,73.5l-3.5,3.5l1.4,1.4l3.5-3.5L626.9,73.5z M619.9,80.6l-3.5,3.5l1.4,1.4l3.5-3.5L619.9,80.6z
			 M612.8,87.6l-3.5,3.5l1.4,1.4l3.5-3.5L612.8,87.6z M605.7,94.7l-3.5,3.5l1.4,1.4l3.5-3.5L605.7,94.7z M598.6,101.8l-3.5,3.5
			l1.4,1.4l3.5-3.5L598.6,101.8z"/>
	</g>
</g>
</svg>
