<svg id="Layer_1" data-name="Layer 1" xmlns="http://www.w3.org/2000/svg" xmlns:xlink="http://www.w3.org/1999/xlink" viewBox="0 0 1440 753"><defs><style>.cls-1,.cls-15,.cls-16{fill:none;}.cls-2{fill:#4a3e53;}.cls-3{opacity:0.9;}.cls-4{clip-path:url(#clip-path);}.cls-5{fill:#c6602c;}.cls-6{fill:#b74918;}.cls-7{fill:#fed78a;}.cls-8{fill:#b6581b;}.cls-9{fill:#d8874a;}.cls-10{fill:#e73d15;}.cls-11{fill:#f9af14;}.cls-12{fill:gold;}.cls-13{fill:#2a3034;}.cls-14{opacity:0.8;}.cls-15,.cls-16{stroke:#bf906a;stroke-linecap:round;stroke-miterlimit:10;}.cls-15{stroke-width:1.86px;}.cls-16{stroke-width:2.27px;}</style><clipPath id="clip-path"><rect class="cls-1" x="955.34" y="399.22" width="484.66" height="353.78"/></clipPath></defs><title>Artboard 2</title><rect class="cls-2" width="1440" height="753"/><g class="cls-3"><g class="cls-4"><path class="cls-5" d="M1532,699.87a15.62,15.62,0,0,0,13.4-18.71l-9.7-49.05a15.62,15.62,0,0,0-19.52-12.2l-235.3,62.22a18.2,18.2,0,0,0-13,20.79l2.91,14.71a18.2,18.2,0,0,0,19.93,14.28Z"/><path class="cls-5" d="M1496.91,579a15.62,15.62,0,0,0,3.17-22.79l-31.39-38.92a15.62,15.62,0,0,0-22.95-1.73L1266.33,680.06a18.2,18.2,0,0,0-1.84,24.45l9.41,11.67a18.2,18.2,0,0,0,24.28,3.38Z"/><path class="cls-5" d="M1409.7,488.33a15.62,15.62,0,0,0-7.79-21.66L1356,446.8a15.62,15.62,0,0,0-21.12,9.14l-82.4,229a18.2,18.2,0,0,0,9.74,22.5l13.76,6a18.2,18.2,0,0,0,23.07-8.3Z"/><path class="cls-5" d="M1290.31,448.57a15.62,15.62,0,0,0-17-15.55l-49.86,3.74A15.62,15.62,0,0,0,1209,454.66l33.5,241.07a18.2,18.2,0,0,0,19.08,15.4l15-1.12a18.2,18.2,0,0,0,16.57-18.07Z"/><path class="cls-5" d="M1166.13,468.85a15.62,15.62,0,0,0-22.25-5.89l-42.41,26.49A15.62,15.62,0,0,0,1097,512L1238.73,709.9a18.2,18.2,0,0,0,24.05,4.76l12.72-7.94a18.2,18.2,0,0,0,6.27-23.7Z"/><path class="cls-5" d="M1065.61,544.54a15.62,15.62,0,0,0-22.44,5.13l-25.24,43.17a15.62,15.62,0,0,0,6.54,22.07l217.46,109.31a18.2,18.2,0,0,0,23.51-7l7.57-12.94a18.2,18.2,0,0,0-5.46-23.9Z"/><path class="cls-5" d="M1011.8,658.28a15.62,15.62,0,0,0-17.48,15l-2.28,50a15.62,15.62,0,0,0,16,16.5l243.35-4.3A18.2,18.2,0,0,0,1269,718.31l.68-15a18.2,18.2,0,0,0-15.95-18.62Z"/><path class="cls-6" d="M1051.37,600.48a14.25,14.25,0,0,0-18.75,9.44l-12.92,43.74a14.25,14.25,0,0,0,10.61,18.12l216.47,49.33a16.6,16.6,0,0,0,19.3-11.3L1270,696.7a16.6,16.6,0,0,0-10.06-20Z"/><path class="cls-6" d="M1028.44,708.94a14.25,14.25,0,0,0-13.12,16.39l6.45,45.15A14.25,14.25,0,0,0,1039,782.54l217.37-45.24A16.6,16.6,0,0,0,1269.17,719l-1.94-13.54a16.6,16.6,0,0,0-17.46-14Z"/><path class="cls-6" d="M1123.87,511.49a14.25,14.25,0,0,0-21-.36l-31.78,32.72a14.25,14.25,0,0,0,1,21l168.73,144.3a16.6,16.6,0,0,0,22.34-1l9.53-9.81a16.6,16.6,0,0,0,.38-22.36Z"/><path class="cls-6" d="M1229.43,466.41A14.25,14.25,0,0,0,1211,456.34l-43.35,14.2a14.25,14.25,0,0,0-8.89,19l82.32,206.2a16.6,16.6,0,0,0,20.26,9.47l13-4.26a16.6,16.6,0,0,0,10.73-19.62Z"/><path class="cls-6" d="M1343.85,475.56a14.25,14.25,0,0,0-11.63-17.48l-45-7.58a14.25,14.25,0,0,0-16.71,12.71l-23,220.83a16.6,16.6,0,0,0,13.54,17.8l13.49,2.27a16.6,16.6,0,0,0,18.62-12.39Z"/><path class="cls-6" d="M1440.9,536.84a14.25,14.25,0,0,0-2.17-20.88l-36.3-27.62a14.25,14.25,0,0,0-20.7,3.48l-123,184.85a16.6,16.6,0,0,0,3.71,22.06l10.89,8.28a16.6,16.6,0,0,0,22.25-2.31Z"/><path class="cls-6" d="M1498.34,636.22a14.25,14.25,0,0,0,7.79-19.5l-19.31-41.33a14.25,14.25,0,0,0-19.95-6.54L1272.05,675.35a16.6,16.6,0,0,0-7,21.25l5.79,12.39a16.6,16.6,0,0,0,20.77,8.3Z"/><path class="cls-7" d="M1071.28,607.77a217.49,217.49,0,0,0-20.14,68.71l-21.28-4.85a14.25,14.25,0,0,1-10.61-18.12l12.92-43.74a14.25,14.25,0,0,1,18.75-9.44Z"/><path class="cls-7" d="M1062.49,777.4l-24,5a14.25,14.25,0,0,1-17.19-12.06l-6.45-45.15A14.26,14.26,0,0,1,1028,708.78l21.59-1.71A218.26,218.26,0,0,0,1062.49,777.4Z"/><path class="cls-7" d="M1137.86,527.25a220,220,0,0,0-49.71,51.55l-16.52-14.13a14.24,14.24,0,0,1-1-21L1102.43,511a14.25,14.25,0,0,1,21,.36Z"/><path class="cls-7" d="M1234.25,486.63a217.45,217.45,0,0,0-68,22.66l-7.94-19.89a14.26,14.26,0,0,1,8.89-19l43.35-14.2A14.25,14.25,0,0,1,1229,466.25Z"/><path class="cls-7" d="M1343.39,475.4l-4.68,20a218.9,218.9,0,0,0-70.08-11.44h-.73l2.17-20.9a14.25,14.25,0,0,1,16.71-12.71l45,7.57A14.25,14.25,0,0,1,1343.39,475.4Z"/><path class="cls-7" d="M1440.45,536.68l-13.18,15.23a219.87,219.87,0,0,0-57.33-43.2l11.34-17a14.25,14.25,0,0,1,20.7-3.48l36.31,27.62A14.25,14.25,0,0,1,1440.45,536.68Z"/><path class="cls-8" d="M1187.82,634.46l-21.42,32.66s-29.93,49.15-41.61,85.88H1440l.68-50.13c-44.16-35.46-109.44-70-109.44-70l-37.15-21.62Z"/><circle class="cls-9" cx="1247.45" cy="643.95" r="17.78" transform="translate(-121.21 331.57) rotate(-14.45)"/><path class="cls-9" d="M1258.62,457c-6.12-33.59-42.23-54.73-75.27-46.22s-54.66,44.48-44.44,77.06c11.43,36.44,53.57,50.55,58.1,90.67,4.8,42.55-30.61,88.65-30.61,88.65,2.34,7.34,11.63,11.76,20.73,9.87s14.58-9.38,12.24-16.73c2.34,7.34,11.63,11.76,20.73,9.87s14.58-9.38,12.24-16.73l33-6.85c2.34,7.34,11.63,11.76,20.74,9.87s14.58-9.38,12.24-16.73c2.34,7.34,11.62,11.77,20.73,9.87s14.58-9.38,12.24-16.73c0,0-70.78-37.78-77-78S1265.39,494.07,1258.62,457Z"/><path class="cls-10" d="M1193.47,564.14c2.28-15.84,16.07-47.22,19.54-46.72s7.86,34.48,5.58,50.33-11.71,16.89-15.17,16.39S1191.19,580,1193.47,564.14Z"/><path class="cls-10" d="M1216.21,568c-5-15.21-6.54-49.44-3.2-50.54s22.33,27.43,27.32,42.64-3,20.33-6.33,21.42S1221.19,583.17,1216.21,568Z"/><path class="cls-11" d="M1247.59,485.49c2.4,9.31-22.54,35.59-36.25,39.13s-48.25-7.43-50.65-16.74,22.54-35.59,36.25-39.13S1245.19,476.18,1247.59,485.49Z"/><path class="cls-12" d="M1247.59,485.49c2.4,9.31-84.5,31.7-86.9,22.39s22.54-35.59,36.25-39.13S1245.19,476.18,1247.59,485.49Z"/><circle class="cls-13" cx="1157.4" cy="482.25" r="8.65" transform="translate(-83.71 304) rotate(-14.45)"/><circle class="cls-13" cx="1238.09" cy="461.46" r="8.65" transform="translate(-75.98 323.47) rotate(-14.45)"/></g></g><g class="cls-14"><path class="cls-15" d="M742.68,356.77s.57,10.83-16.45,20.22"/><path class="cls-15" d="M729.49,366.48c-3.06,3.22-8.1,6.75-16.37,9.71"/><path class="cls-15" d="M719.92,385.79c-3.22,1.1-6.76,2.14-10.65,3.11"/><path class="cls-15" d="M746.67,369.63a42.18,42.18,0,0,1-9.17,7.88"/><path class="cls-15" d="M752.38,356.77a13.87,13.87,0,0,1-.95,4.85"/><path class="cls-6" d="M705.78,385s-3.5,14.55-15.06,14.2-21-7.19-21-7.19l-1.18-.7.77-1.13s5.65-10.17,16-15.36S705,381.38,705,381.38s-11.34,5-16.52,5.56S703.34,386.65,705.78,385Z"/><path class="cls-5" d="M703.75,390.22c-2.13,4.14-6.16,9.2-13,9-8.94-.27-16.6-4.42-19.61-6.29C680,394,692.31,394.25,703.75,390.22Z"/></g><g class="cls-14"><path class="cls-15" d="M1262.75,369.88s-10.67-1.93-15.9-20.65"/><path class="cls-15" d="M1256.32,354.82c-2.44-3.72-4.71-9.43-5.69-18.16"/><path class="cls-15" d="M1239.72,341.07c-.33-3.39-.54-7.07-.58-11.07"/><path class="cls-6" d="M1267.44,369.82s10.71-10.44,20.31-4,13.92,17.25,13.92,17.25l.62,1.22-1.26.55s-10.2,5.6-21.71,4.48-13.13-16-13.13-16,12.26,1.81,16.94,4.09S1270.38,369.73,1267.44,369.82Z"/><path class="cls-5" d="M1271.93,366.49c4-2.36,10.12-4.51,15.82-.67,7.43,5,11.69,12.59,13.24,15.76C1294.06,376,1283.76,369.17,1271.93,366.49Z"/></g><g class="cls-14"><path class="cls-16" d="M804,660.51s-3.66,13.69,12.49,29.79"/><path class="cls-16" d="M815.79,676.09c2.48,4.86,7,10.57,15.34,16.35"/><path class="cls-16" d="M821,703.06c3.24,2.18,6.85,4.37,10.87,6.54"/><path class="cls-16" d="M796,676a50.47,50.47,0,0,0,7.91,12.28"/><path class="cls-16" d="M793.27,658.17a20.73,20.73,0,0,0-.31,6.43"/><path class="cls-6" d="M836.77,705.49s-.2,19.42,12.64,21.77,25.13-4.11,25.13-4.11l1.5-.61-.54-1.63s-3.38-14.35-13.33-23.47-23.48,3.6-23.48,3.6,11.11,9.12,16.66,11.09S839,708.16,836.77,705.49Z"/><path class="cls-5" d="M837.54,712.62c1.2,5.8,4.22,13.24,11.86,14.64,9.94,1.82,19.54-1.64,23.38-3.29C862.71,723.19,849,720.53,837.54,712.62Z"/></g></svg>